<?xml version="1.0" encoding="utf-8"?>
<!-- Generator: Adobe Illustrator 16.0.0, SVG Export Plug-In . SVG Version: 6.00 Build 0)  -->
<!DOCTYPE svg PUBLIC "-//W3C//DTD SVG 1.1//EN" "http://www.w3.org/Graphics/SVG/1.1/DTD/svg11.dtd">
<svg version="1.1" id="Layer_1" xmlns="http://www.w3.org/2000/svg" xmlns:xlink="http://www.w3.org/1999/xlink" x="0px" y="0px"
	 width="960px" height="560px" viewBox="0 0 960 560" enable-background="new 0 0 960 560" xml:space="preserve">
<g id="logo">
	<path id="Janela" fill="none" stroke="#FFFFFF" stroke-width="3" stroke-miterlimit="10" d="M497.27,144.856
		c60.314,0,109.207,48.796,109.207,108.987c0,60.195-48.893,108.988-109.207,108.988c-60.311,0-109.202-48.793-109.202-108.988
		C388.068,193.652,436.959,144.856,497.27,144.856z"/>
	<path id="chapéu" fill="#FFFFFF" d="M551.149,214.077L551.149,214.077c0,0-4.711-8.324-3.405-11.362
		c0,0-0.981-22.781-45.687-14.459c0,0,3.971-16.099,8.322-26.105c0,0,45.029-4.405,59.553,32.958
		C569.93,195.108,560.862,209.331,551.149,214.077z"/>
	<g>
		<path fill="#FFFFFF" stroke="#FFFFFF" stroke-width="0.3" stroke-miterlimit="10" d="M565.689,268.201
			c17.457-4.568,55.146-30.184,36.546-43.889c-9.295-6.848-30.347,3.916-44.051,0.591c0,0-11.748-15.227-10.443-22.189
			c0,0-1.632-22.454-45.684-14.459c0,0-11.586,7.997-15.01,12.239c0,0-25.452-4.242-36.22,5.873c0,0-19.579,0.979-24.965,7.505
			c-2.338,2.837-11.26,21.7,21.21,23.005c0,0,5.698,20.094,40.462,26.923c0,0,28.654,26.591-33.561,36.38
			c-2.708,0.426-9.204-0.387-5.27-7.502c1.876-3.391,3.197-9.053-0.166-15.499c-2.192-4.209-4.666-6.2,5.79-14.644
			c7.469-6.035-11.827-13.621-15.906,15.622c0,0-14.847,4.079-8.32-14.031c0,0,30.836-19.201,0.489-12.565
			c-5.03,1.098-12.777,10.354-12.5,16.71c0,0-14.663-5.126-6.505-14.426c2.439-2.779,4.142-14.075-1.999-12.236
			c-0.77,0.229-12.935,10.174-5.754,24.962l2.776,8.484c-2.687-0.543-8.26-10.616-10.934-7.281
			c-1.957,2.45-0.821,10.544,16.316,19.843c17.562,9.525,15.828,38.832,87.539,42.746c1.359,0.074,17.398,7.832,16.585,26.27
			c0.001-0.004,49.085-6.037,74.536-55.477C590.651,301.158,558.53,270.075,565.689,268.201z M543.824,275.024
			c-0.678-1.048-1.496-2.323-2.439-3.783c-0.869-1.504-2.186-2.973-3.44-4.691c-0.641-0.846-1.317-1.729-2.01-2.641
			c-0.673-0.93-1.411-1.851-2.276-2.715c-1.682-1.759-3.365-3.691-5.221-5.57c-1.979-1.761-3.949-3.653-6.068-5.436
			c-2.242-1.623-4.355-3.513-6.768-4.968c-2.373-1.51-4.695-3.111-7.201-4.306c-1.239-0.62-2.423-1.328-3.653-1.896
			c-1.247-0.546-2.477-1.086-3.687-1.619c-2.417-1.073-4.857-1.851-7.135-2.698c-2.336-0.666-4.523-1.404-6.609-1.812
			c-1.574-0.381-3.059-0.694-4.433-0.953c0.418,0.092,0.844,0.192,1.279,0.303c1.622,0.362,3.343,0.874,5.163,1.438
			c1.823,0.548,3.704,1.275,5.632,2.052c1.868,0.916,3.904,1.66,5.775,2.81c0.954,0.535,1.915,1.078,2.884,1.624
			c0.945,0.582,1.855,1.226,2.785,1.836c1.883,1.201,3.583,2.641,5.278,4.032c1.764,1.313,3.167,2.983,4.67,4.421
			c1.55,1.404,2.665,3.118,3.888,4.576c1.238,1.456,2.193,2.985,3.08,4.388c0.883,1.407,1.762,2.649,2.322,3.877
			c0.578,1.213,1.079,2.274,1.493,3.146c0.819,1.742,1.251,2.746,1.251,2.746s-0.615-0.91-1.693-2.501
			c-0.521-0.798-1.15-1.767-1.877-2.878c-0.714-1.114-1.746-2.223-2.691-3.538c-0.977-1.298-2.021-2.708-3.346-4.018
			c-1.304-1.321-2.516-2.858-4.053-4.173c-1.504-1.343-2.949-2.845-4.653-4.104c-1.651-1.321-3.311-2.679-5.14-3.816
			c-0.889-0.6-1.756-1.236-2.661-1.805c-0.925-0.54-1.845-1.075-2.763-1.608c-1.795-1.122-3.709-1.965-5.492-2.919
			c-1.85-0.798-3.602-1.688-5.332-2.36c-1.447-0.579-2.83-1.115-4.156-1.56c0.66,0.25,1.33,0.517,2.015,0.831
			c2.032,0.785,4.106,1.901,6.349,3.016c2.15,1.251,4.498,2.5,6.691,4.129c1.101,0.811,2.221,1.631,3.355,2.465
			c1.134,0.833,2.146,1.843,3.229,2.787c2.22,1.838,4.137,4.046,6.118,6.19c1.027,1.047,1.873,2.238,2.73,3.416
			c0.855,1.172,1.713,2.337,2.564,3.495c1.594,2.386,2.873,4.92,4.26,7.268c1.219,2.439,2.143,4.92,3.131,7.207
			c0.524,1.137,0.873,2.296,1.193,3.429c0.334,1.122,0.657,2.208,0.966,3.245c0.614,2.086,1.239,3.973,1.438,5.734
			c0.287,1.732,0.54,3.244,0.746,4.49c0.382,2.486,0.598,3.906,0.598,3.906s-0.396-1.379-1.096-3.803
			c-0.328-1.207-0.729-2.67-1.19-4.355c-0.376-1.697-1.189-3.502-1.894-5.516c-0.367-1.004-0.75-2.045-1.145-3.126
			c-0.38-1.083-0.79-2.198-1.374-3.273c-1.106-2.175-2.175-4.515-3.404-6.855c-1.407-2.246-2.776-4.625-4.313-6.929
			c-0.832-1.108-1.677-2.228-2.519-3.352c-0.835-1.126-1.665-2.271-2.665-3.269c-1.891-2.087-3.717-4.244-5.842-6.039
			c-1.041-0.915-1.995-1.922-3.064-2.766c-1.07-0.839-2.128-1.67-3.173-2.488c-1.013-0.859-2.128-1.529-3.177-2.261
			c-1.063-0.708-2.067-1.466-3.115-2.085c-1.831-1.054-3.551-2.104-5.242-2.946c0.584,0.369,1.176,0.748,1.79,1.131
			c1.563,1.157,3.31,2.296,4.85,3.778c0.79,0.727,1.585,1.469,2.394,2.218c0.788,0.772,1.494,1.636,2.24,2.48
			c1.559,1.636,2.782,3.577,4.125,5.432c1.285,1.892,2.23,3.987,3.346,5.942c0.918,2.053,1.648,4.143,2.445,6.126
			c0.598,2.047,1.055,4.061,1.525,5.95c0.463,1.894,0.555,3.75,0.821,5.417c0.235,1.68,0.438,3.215,0.366,4.596
			c0,1.371-0.001,2.568-0.001,3.55c-0.037,1.961-0.054,3.08-0.054,3.08s-0.166-1.109-0.454-3.051
			c-0.128-0.967-0.278-2.137-0.457-3.485c-0.114-1.349-0.518-2.83-0.851-4.454c-0.393-1.611-0.62-3.401-1.221-5.201
			c-0.588-1.792-1.203-3.683-1.844-5.639c-0.824-1.878-1.678-3.813-2.545-5.787c-1.09-1.849-2.018-3.837-3.266-5.621
			c-1.254-1.782-2.391-3.653-3.859-5.226c-0.705-0.808-1.354-1.66-2.067-2.433c-0.742-0.747-1.477-1.48-2.202-2.208
			c-1.441-1.458-2.996-2.697-4.418-3.938c-1.514-1.122-2.912-2.25-4.332-3.102c-2.763-1.821-5.202-3.156-6.964-3.987
			c-0.552-0.267-1.025-0.484-1.427-0.664c-1.243-0.401-1.95-0.583-1.95-0.583s0.297,0.027,0.844,0.109
			c-0.173-0.07-0.274-0.109-0.274-0.109s1-0.339,2.763-0.875c1.768-0.507,4.304-1.285,7.44-1.843c1.567-0.268,3.27-0.553,5.09-0.719
			c1.818-0.257,3.76-0.275,5.765-0.334c2.004,0.138,4.094,0.061,6.183,0.459c1.045,0.17,2.115,0.262,3.158,0.51l3.144,0.777
			c1.058,0.222,2.046,0.688,3.06,1.051c0.994,0.413,2.036,0.708,2.977,1.213c1.863,1.029,3.799,1.881,5.383,3.161
			c0.816,0.6,1.617,1.186,2.404,1.764c0.787,0.571,1.395,1.321,2.074,1.945c1.314,1.295,2.59,2.48,3.506,3.812
			c0.982,1.264,1.881,2.424,2.584,3.503c0.625,1.131,1.17,2.121,1.619,2.934c0.883,1.626,1.35,2.56,1.35,2.56
			s-0.646-0.831-1.778-2.287c-0.548-0.729-1.211-1.619-1.974-2.633c-0.863-0.923-1.838-1.966-2.9-3.1
			c-0.984-1.206-2.312-2.238-3.666-3.365c-1.295-1.207-2.889-2.165-4.486-3.212c-1.524-1.167-3.421-1.82-5.164-2.792
			c-0.889-0.464-1.877-0.718-2.814-1.096c-0.959-0.326-1.887-0.757-2.89-0.948l-2.954-0.778c-0.984-0.25-2.002-0.344-2.991-0.525
			c-1.976-0.393-3.972-0.458-5.886-0.657c-1.928,0.01-3.799-0.171-5.575-0.067c-1.784,0.01-3.465,0.145-5.022,0.28
			c-3.1,0.311-5.71,0.584-7.526,0.887c-1.304,0.186-2.202,0.297-2.613,0.345c0.515-0.054,1.79-0.163,3.687-0.161
			c1.257,0.007,2.786,0.053,4.538,0.173c1.75,0.14,3.734,0.295,5.86,0.708c2.149,0.286,4.418,0.895,6.854,1.43
			c2.37,0.716,4.946,1.333,7.451,2.386c1.265,0.505,2.546,1.022,3.847,1.542c1.293,0.541,2.535,1.231,3.814,1.869
			c2.596,1.21,5.016,2.83,7.48,4.367c2.477,1.527,4.638,3.498,6.933,5.201c2.187,1.838,4.114,3.902,6.096,5.759
			c1.868,1.968,3.456,4.074,5.054,5.973c0.819,0.931,1.516,1.917,2.143,2.909c0.646,0.969,1.271,1.907,1.871,2.81
			c1.191,1.804,2.351,3.413,3.072,5.026c0.791,1.561,1.48,2.924,2.052,4.046c1.104,2.248,1.733,3.533,1.733,3.533
			S545.206,277.116,543.824,275.024z"/>
		<path fill="#603A26" stroke="#FFFFFF" stroke-width="0.3" stroke-miterlimit="10" d="M473.844,230.886
			c0.182,0.04,0.396,0.089,0.657,0.155c0.129,0.023,0.261,0.048,0.403,0.075C474.458,231.015,474.115,230.942,473.844,230.886z"/>
	</g>
	<g id="fio_1_">
		<path fill="#FFFFFF" d="M470.079,203.376c0,0-15.826-21.647-25.942-22.46"/>
		<path fill="#FFFFFF" d="M467.978,204.927c0,0-1.109-1.792-2.974-4.456c-1.857-2.648-4.426-6.138-7.271-9.381
			c-1.428-1.611-2.898-3.199-4.382-4.565c-1.477-1.374-2.93-2.595-4.299-3.444c-0.665-0.466-1.299-0.847-1.901-1.098
			c-0.597-0.276-1.102-0.584-1.57-0.666c-0.923-0.255-1.448-0.397-1.448-0.397s0.546,0.063,1.502,0.184
			c0.494,0.015,1.038,0.239,1.69,0.431c0.663,0.173,1.372,0.464,2.122,0.834c1.542,0.665,3.209,1.693,4.935,2.873
			c1.734,1.173,3.473,2.562,5.18,3.993c3.404,2.878,6.544,6.032,8.849,8.451c2.29,2.407,3.767,4.145,3.767,4.143L467.978,204.927z"
			/>
	</g>
	<g id="fio">
		<path fill="#FFFFFF" d="M464.308,203.376c0,0-15.005-17.404-20.173-17.404"/>
		<path fill="#FFFFFF" d="M462.334,205.086c0,0-3.849-5.46-8.198-10.557c-2.171-2.545-4.466-4.989-6.396-6.575
			c-0.497-0.375-0.956-0.716-1.359-1.02c-0.441-0.245-0.826-0.458-1.145-0.637c-0.675-0.221-1.101-0.326-1.101-0.326
			s0.413,0.018,1.17,0.115c0.359,0.117,0.797,0.26,1.297,0.423c0.474,0.227,1.007,0.487,1.588,0.765
			c2.276,1.231,5.07,3.243,7.754,5.374c5.367,4.262,10.335,9.017,10.335,9.017L462.334,205.086z"/>
	</g>
	<path fill="#FFFFFF" stroke="#FFFFFF" stroke-width="0.5" stroke-miterlimit="10" d="M601.689,106.135
		c0,0-12.216-8.148-27.513-4.65c0,0-16.975-22.603-30.188-22.544c0,0-34.429-5.221-34.429,81.417c0,0,47.424-6.424,62.325,34.262
		l1.089-1.04C572.974,193.581,655.421,138.822,601.689,106.135z M532.574,114.267c-0.998,2.31-1.797,4.714-2.605,6.958
		c-0.736,2.274-1.422,4.397-2.01,6.217c-1.153,3.697-1.918,6.16-1.918,6.16s-0.025-0.653,0.031-1.79
		c0.083-1.129,0.149-2.761,0.433-4.688c0.253-1.936,0.688-4.171,1.27-6.544c0.344-1.172,0.62-2.409,1.048-3.623
		c0.436-1.21,0.816-2.463,1.341-3.671c1.013-2.419,2.175-4.803,3.585-6.859c0.613-1.076,1.447-1.979,2.161-2.868
		c0.666-0.926,1.578-1.588,2.286-2.279c0.684-0.73,1.573-1.123,2.23-1.573c0.658-0.464,1.314-0.737,1.867-0.92
		c1.083-0.406,1.693-0.592,1.693-0.592s-0.537,0.408-1.449,1.035c-0.477,0.288-1.017,0.673-1.534,1.257
		c-0.515,0.581-1.21,1.071-1.753,1.851c-0.549,0.767-1.264,1.466-1.801,2.404c-0.566,0.915-1.213,1.82-1.74,2.875
		c-0.582,1.015-1.121,2.093-1.636,3.217C533.515,111.932,533.038,113.097,532.574,114.267z M550.476,111.593
		c-0.392,0.205-0.738,0.667-1.189,1.079c-0.46,0.4-0.892,0.948-1.356,1.552c-0.951,1.163-1.895,2.677-2.855,4.316
		c-0.525,0.79-0.908,1.72-1.426,2.577c-0.492,0.874-0.92,1.813-1.39,2.72c-1.833,3.673-3.535,7.452-4.898,10.271
		c-1.339,2.83-2.347,4.714-2.347,4.714s0.168-2.133,0.941-5.211c0.369-1.545,0.895-3.319,1.558-5.188
		c0.647-1.876,1.502-3.818,2.414-5.743c0.987-1.886,2.015-3.76,3.218-5.389c0.591-0.823,1.17-1.603,1.826-2.279
		c0.61-0.707,1.229-1.333,1.887-1.837c0.609-0.546,1.213-0.992,1.822-1.298c0.588-0.327,1.058-0.645,1.55-0.74
		c0.925-0.265,1.427-0.376,1.427-0.376S551.229,111.063,550.476,111.593z M570.606,166.082c0,0,1.195-1.535,3.021-3.709
		c0.905-1.086,1.957-2.351,3.087-3.709c1.094-1.372,2.313-2.784,3.396-4.285c1.166-1.445,2.186-2.98,3.136-4.413
		c0.931-1.45,1.695-2.85,2.3-4.094c0.319-0.619,0.489-1.221,0.723-1.744c0.235-0.527,0.354-1.005,0.452-1.402
		c0.232-0.816,0.365-1.277,0.365-1.277s0.072,0.467,0.155,1.325c0.041,0.431,0.102,0.967,0.009,1.556
		c-0.078,0.591-0.078,1.3-0.276,2.014c-0.19,0.708-0.347,1.522-0.666,2.308c-0.328,0.775-0.595,1.652-1.058,2.449
		c-0.445,0.8-0.833,1.688-1.398,2.466c-0.523,0.81-1.063,1.626-1.663,2.394c-2.373,3.1-5.21,5.756-7.525,7.495
		C572.362,165.218,570.606,166.082,570.606,166.082z M606.884,136.025c-0.079,0.716-0.104,1.615-0.388,2.581
		c-0.254,0.971-0.461,2.113-0.887,3.286c-0.464,1.15-0.923,2.43-1.54,3.722c-0.68,1.249-1.333,2.621-2.172,3.928
		c-0.884,1.272-1.672,2.697-2.713,3.952c-1.009,1.274-1.998,2.61-3.109,3.826c-2.175,2.488-4.538,4.788-6.845,6.83
		c-2.306,2.042-4.573,3.811-6.577,5.239c-1.996,1.435-3.749,2.5-4.966,3.255c-1.226,0.745-1.963,1.109-1.963,1.109
		s2.446-2.177,5.985-5.517c1.766-1.67,3.816-3.618,5.948-5.759c2.112-2.16,4.393-4.431,6.457-6.881
		c1.103-1.167,2.08-2.43,3.078-3.648c1.013-1.211,1.877-2.48,2.789-3.671c0.857-1.226,1.604-2.455,2.378-3.592
		c0.664-1.195,1.291-2.33,1.87-3.372c0.531-1.071,0.913-2.098,1.333-2.991c0.451-0.884,0.622-1.721,0.825-2.396
		c0.394-1.356,0.661-2.149,0.661-2.149S607.014,134.588,606.884,136.025z"/>
	<line fill="none" stroke="#FFFFFF" stroke-miterlimit="10" x1="202.719" y1="483.783" x2="797.908" y2="483.783"/>
	<polygon fill="#FFFFFF" points="302.975,513.131 308.994,525.32 322.442,527.273 312.711,536.761 315.008,550.162 302.975,543.834 
		290.945,550.162 293.245,536.761 283.509,527.273 296.961,525.32 	"/>
	<polygon fill="#FFFFFF" points="700.203,512.888 706.223,525.08 719.67,527.031 709.941,536.519 712.238,549.916 700.203,543.592 
		688.174,549.916 690.474,536.519 680.737,527.031 694.191,525.08 	"/>
	<polygon fill="#FFFFFF" points="591,513.131 597.019,525.32 610.466,527.273 600.736,536.761 603.031,550.162 591,543.834 
		578.969,550.162 581.269,536.761 571.533,527.273 584.987,525.32 	"/>
	<polygon fill="#FFFFFF" points="396.305,512.89 402.324,525.082 415.772,527.035 406.04,536.523 408.338,549.92 396.305,543.594 
		384.275,549.92 386.574,536.523 376.839,527.035 390.291,525.082 	"/>
	<polygon fill="#FFFFFF" points="493.539,513.131 499.559,525.32 513.006,527.273 503.277,536.761 505.573,550.162 493.539,543.834 
		481.51,550.162 483.81,536.761 474.074,527.273 487.527,525.32 	"/>
</g>
<g id="texto">
	<g>
		<path fill="#FFFFFF" d="M370.848,453.519c0,0.533,0.048,1.041,0.148,1.521c0.092,0.482,0.308,0.893,0.65,1.23
			c0.288,0.291,0.675,0.486,1.154,0.58c0.484,0.098,0.967,0.168,1.451,0.217c0.145,0,0.265,0,0.362,0c0.097,0,0.191,0,0.291,0
			l8.896-0.07c0.337,0.047,0.691,0.061,1.05,0.035c0.362-0.023,0.734-0.082,1.122-0.178c0.484-0.049,0.963-0.148,1.45-0.289
			c0.479-0.146,0.89-0.336,1.229-0.578c0.675-0.436,1.183-0.988,1.52-1.668c0.336-0.676,0.653-1.422,0.938-2.24
			c0.051-0.193,0.11-0.377,0.181-0.543c0.074-0.168,0.133-0.326,0.181-0.475l0.938-2.674v12.158h-36.832l1.665-0.508
			c0.382-0.047,0.832-0.145,1.338-0.287c0.51-0.143,1.027-0.289,1.558-0.438c0.482-0.188,0.964-0.373,1.448-0.541
			c0.481-0.168,0.918-0.35,1.303-0.543c0.242-0.094,0.459-0.219,0.652-0.361c0.191-0.145,0.337-0.266,0.434-0.361
			c0.097-0.148,0.181-0.291,0.252-0.436c0.074-0.146,0.161-0.289,0.257-0.434c0.094-0.289,0.156-0.582,0.178-0.869
			c0.023-0.289,0.038-0.582,0.038-0.867c0-0.193,0-0.398,0-0.617c0-0.217,0-0.443,0-0.686v-39.299c0-0.047,0-0.131,0-0.254
			c0-0.121,0.023-0.252,0.069-0.395c0-0.098,0-0.219,0-0.365c0-0.145,0-0.289,0-0.434c0-0.193-0.013-0.375-0.036-0.541
			c-0.025-0.168-0.061-0.35-0.109-0.543c-0.051-0.289-0.12-0.568-0.216-0.832c-0.097-0.266-0.243-0.518-0.434-0.76
			c-0.097-0.096-0.243-0.219-0.434-0.365c-0.193-0.143-0.41-0.264-0.652-0.359c-0.385-0.193-0.821-0.377-1.303-0.543
			c-0.484-0.168-0.966-0.35-1.448-0.543c-0.53-0.145-1.048-0.291-1.558-0.436c-0.505-0.143-0.951-0.264-1.338-0.361l-1.665-0.582
			h24.529l-1.588,0.652c-0.291,0.193-0.627,0.336-1.018,0.434c-0.382,0.096-0.795,0.193-1.229,0.291
			c-0.097,0.047-0.194,0.084-0.291,0.107c-0.097,0.025-0.194,0.057-0.286,0.107c-0.821,0.195-1.606,0.426-2.353,0.689
			c-0.747,0.268-1.268,0.566-1.555,0.904c-0.051,0.096-0.109,0.176-0.181,0.252c-0.074,0.07-0.132,0.152-0.181,0.248
			c-0.288,0.521-0.459,1.055-0.505,1.598c-0.048,0.547-0.072,1.146-0.072,1.809v39.439H370.848z"/>
		<path fill="#FFFFFF" d="M428.526,408.037c0.094,0.314,0.191,0.613,0.288,0.906c0.051,0.336,0.12,0.65,0.217,0.939
			c0.097,0.287,0.194,0.629,0.291,1.014c0.675,2.074,1.665,4.932,2.967,8.576c1.302,3.639,2.677,7.418,4.125,11.326
			c0.097,0.24,0.191,0.484,0.291,0.723c0.095,0.242,0.189,0.482,0.286,0.723c1.736,4.775,3.391,9.18,4.958,13.209
			c1.566,4.029,2.616,6.621,3.146,7.777c0.146,0.387,0.291,0.725,0.437,1.014c0.145,0.289,0.286,0.602,0.434,0.938
			c0.097,0.244,0.216,0.498,0.362,0.762c0.148,0.27,0.291,0.543,0.434,0.832c0.242,0.482,0.736,0.918,1.483,1.303
			c0.747,0.385,1.558,0.746,2.424,1.086c0.194,0.049,0.388,0.121,0.579,0.217c0.194,0.098,0.388,0.166,0.582,0.217
			c0.145,0.049,0.275,0.109,0.397,0.18c0.123,0.07,0.255,0.133,0.398,0.18l1.519,0.58h-21.421l1.881-0.723
			c0.291-0.051,0.604-0.148,0.94-0.287c0.337-0.146,0.699-0.289,1.086-0.436c0.676-0.242,1.29-0.531,1.846-0.867
			c0.553-0.34,0.904-0.75,1.05-1.232c0-0.051,0.023-0.096,0.069-0.146c0-0.047,0-0.082,0-0.105c0-0.027,0-0.063,0-0.109
			c0-0.242-0.048-0.557-0.145-0.941c-0.097-0.385-0.217-0.746-0.362-1.086c-0.051-0.191-0.097-0.361-0.146-0.504
			c-0.051-0.145-0.099-0.287-0.145-0.436c-0.051-0.189-0.109-0.373-0.181-0.545c-0.074-0.164-0.135-0.322-0.179-0.469l-4.849-13.605
			H415.71l-5.066,13.531c-0.048,0.148-0.084,0.258-0.109,0.328c-0.022,0.072-0.036,0.158-0.036,0.254
			c-0.097,0.191-0.181,0.408-0.255,0.654c-0.072,0.24-0.132,0.48-0.178,0.721c-0.148,0.529-0.268,1.037-0.365,1.518
			c-0.094,0.486-0.145,0.846-0.145,1.088c0,0.051,0,0.082,0,0.107s0,0.061,0,0.107c0.193,0.436,0.565,0.785,1.121,1.051
			c0.559,0.264,1.17,0.518,1.846,0.76c0.096,0,0.194,0.014,0.29,0.035c0.095,0.025,0.168,0.063,0.217,0.107
			c0.24,0.1,0.484,0.182,0.724,0.258c0.24,0.07,0.456,0.156,0.65,0.254l1.955,0.721h-19.757l1.59-0.58
			c0.339-0.096,0.709-0.217,1.123-0.361c0.413-0.148,0.808-0.291,1.195-0.434c0.818-0.289,1.59-0.627,2.314-1.014
			s1.206-0.799,1.45-1.232c0.146-0.24,0.265-0.482,0.362-0.721c0.097-0.242,0.191-0.461,0.289-0.652
			c0.094-0.148,0.168-0.287,0.219-0.434c0.046-0.148,0.092-0.314,0.143-0.508c0.097-0.191,0.181-0.385,0.254-0.578
			c0.072-0.191,0.159-0.408,0.255-0.65c0.625-1.354,1.242-2.766,1.843-4.234c0.602-1.471,1.221-2.98,1.846-4.523
			c0.339-0.771,0.678-1.557,1.014-2.35c0.336-0.795,0.676-1.604,1.015-2.428c2.509-6.223,4.775-12.047,6.802-17.473
			c2.024-5.428,3.281-8.889,3.76-10.389c0.146-0.482,0.278-0.914,0.397-1.301c0.12-0.383,0.229-0.77,0.327-1.158
			c0-0.145,0.022-0.275,0.071-0.396c0.048-0.117,0.071-0.256,0.071-0.396c0.097-0.242,0.181-0.504,0.252-0.797
			c0.074-0.289,0.135-0.578,0.181-0.867l4.849-0.074C428.334,407.377,428.431,407.724,428.526,408.037z M424.62,416.324
			l-7.382,18.961h14.691L424.62,416.324z"/>
		<path fill="#FFFFFF" d="M522.531,423.416c0,0.096,0,0.172,0,0.217c0,0.053,0,0.086,0,0.109c0,0.027,0,0.061,0,0.109
			c0,4.053-1.801,7.574-5.393,10.564c-3.594,2.992-7.538,4.633-11.833,4.922c-0.24,0.051-0.47,0.072-0.687,0.072s-0.446,0-0.688,0
			c-0.629,0-1.245-0.037-1.846-0.109c-0.604-0.07-1.22-0.178-1.846-0.324l-2.606-0.652v15.195c0,0.822,0.038,1.533,0.11,2.137
			c0.07,0.602,0.35,1.193,0.831,1.771c0.287,0.387,0.798,0.701,1.522,0.941c0.718,0.242,1.49,0.484,2.314,0.723
			c0.145,0.051,0.29,0.086,0.433,0.107c0.146,0.029,0.292,0.063,0.436,0.107c0.384,0.1,0.747,0.207,1.083,0.328
			c0.34,0.121,0.654,0.229,0.939,0.324l1.592,0.582h-24.529l1.666-0.508c0.383-0.047,0.828-0.143,1.338-0.287
			c0.506-0.146,1.027-0.289,1.557-0.436c0.482-0.189,0.963-0.373,1.449-0.541c0.482-0.168,0.914-0.352,1.303-0.543
			c0.24-0.098,0.456-0.219,0.65-0.361c0.193-0.146,0.336-0.266,0.436-0.363c0.143-0.244,0.272-0.475,0.396-0.691
			c0.122-0.215,0.204-0.445,0.255-0.688c0.048-0.24,0.083-0.484,0.109-0.723c0.023-0.24,0.036-0.457,0.036-0.65
			c0-0.146,0-0.277,0-0.396s0-0.229,0-0.326c-0.048-0.148-0.072-0.277-0.072-0.396c0-0.121,0-0.23,0-0.326V414.08
			c0-0.621-0.038-1.205-0.108-1.736c-0.07-0.527-0.302-1.035-0.689-1.518c-0.336-0.385-0.879-0.762-1.626-1.123
			c-0.749-0.363-1.532-0.709-2.351-1.051c-0.484-0.189-0.953-0.371-1.412-0.543c-0.461-0.164-0.881-0.32-1.265-0.469l-1.593-0.652
			h13.172c0.722,0.051,1.424,0.061,2.101,0.039c0.676-0.025,1.325-0.039,1.952-0.039c0.146,0,0.266,0,0.363,0
			c0.096,0,0.193,0,0.289,0c0.531-0.047,1.074-0.068,1.627-0.068c0.556,0,1.123,0,1.701,0c0.483,0,0.985,0,1.519,0
			c0.53,0,1.061,0.025,1.591,0.068c0.531,0,1.086,0.051,1.664,0.146c0.579,0.096,1.158,0.217,1.737,0.363
			c2.993,0.725,5.766,2.389,8.323,4.994c2.555,2.605,3.908,6.268,4.054,11v-0.076H522.531z M504.29,410.969
			c-0.146,0-0.313,0-0.507,0c-0.242,0-0.469,0-0.687,0c-0.216,0-0.448,0-0.688,0c-0.821,0.051-1.604,0.121-2.353,0.219
			c-0.747,0.096-1.262,0.242-1.557,0.432c-0.432,0.289-0.688,0.678-0.759,1.156c-0.071,0.486-0.108,0.992-0.108,1.52
			c0,0.053,0,0.086,0,0.107c0,0.029,0,0.063,0,0.111v20.191l2.17,0.287c0.58,0.145,1.143,0.242,1.699,0.287
			c0.555,0.051,1.096,0.072,1.629,0.072c3.717,0,6.877-1.061,9.483-3.184c2.604-2.123,3.907-5.09,3.907-8.902
			c0-0.145,0-0.275,0-0.398c0-0.119,0-0.227,0-0.324c-0.146-3.23-1.063-5.705-2.754-7.418c-1.687-1.713-3.5-2.883-5.428-3.51
			c-0.623-0.191-1.242-0.338-1.845-0.434c-0.601-0.098-1.195-0.168-1.773-0.217C504.583,410.969,504.436,410.969,504.29,410.969z"/>
		<path fill="#FFFFFF" d="M562.836,406.988l-0.069,11.869l-1.017-2.893c-0.096-0.193-0.18-0.408-0.254-0.65
			c-0.073-0.242-0.158-0.459-0.252-0.652c-0.242-0.674-0.497-1.266-0.759-1.775c-0.271-0.504-0.692-0.949-1.267-1.338
			c-0.387-0.242-0.819-0.436-1.305-0.58c-0.483-0.143-0.966-0.24-1.447-0.289c-0.288,0-0.568-0.01-0.831-0.035
			c-0.267-0.023-0.543-0.037-0.831-0.037l-8.9-0.074c-0.099,0.049-0.193,0.074-0.289,0.074c-0.098,0-0.217,0-0.362,0
			c-0.581,0-1.147,0.023-1.701,0.07c-0.556,0.051-0.976,0.215-1.268,0.506c-0.19,0.195-0.31,0.518-0.36,0.977
			c-0.05,0.459-0.069,0.953-0.069,1.48c0,0.053,0,0.098,0,0.148c0,0.049,0,0.107,0,0.178c0,0.072,0,0.137,0,0.182v17.295h10.275
			c0.288,0,0.579,0,0.867,0c0.291,0,0.581,0,0.87,0c0.578,0,1.121-0.035,1.629-0.105c0.506-0.076,0.976-0.277,1.41-0.619
			c0.096-0.092,0.193-0.178,0.289-0.252c0.098-0.072,0.166-0.154,0.217-0.252c0.243-0.195,0.424-0.389,0.543-0.58
			c0.12-0.193,0.254-0.436,0.396-0.723l1.519-3.184v17.078l-0.651-1.66c-0.051-0.146-0.111-0.314-0.182-0.506
			c-0.072-0.191-0.136-0.385-0.18-0.58c-0.051-0.096-0.084-0.18-0.109-0.252c-0.021-0.072-0.061-0.156-0.107-0.254
			c-0.244-0.771-0.52-1.508-0.832-2.211c-0.314-0.697-0.737-1.193-1.268-1.48c-0.285-0.193-0.578-0.336-0.864-0.432
			c-0.291-0.098-0.581-0.172-0.87-0.219c-0.288-0.051-0.594-0.072-0.907-0.072c-0.313,0-0.662,0-1.046,0c-0.051,0-0.108,0-0.18,0
			c-0.074,0-0.135,0-0.182,0h-10.635v17.742c0,0.242,0.01,0.508,0.035,0.799c0.022,0.283,0.059,0.553,0.109,0.791
			c0.094,0.531,0.227,0.998,0.396,1.408c0.169,0.406,0.397,0.686,0.688,0.826c0.385,0.191,0.737,0.313,1.047,0.361
			c0.314,0.049,0.641,0.072,0.977,0.072c0.147,0,0.277,0,0.398,0c0.119,0,0.254-0.025,0.4-0.072c0.094,0,0.216,0,0.358,0
			c0.146,0,0.292,0,0.436,0l11.868-0.07c0.146,0.047,0.29,0.07,0.436,0.07c0.146,0,0.289,0,0.433,0
			c0.098,0.049,0.218,0.072,0.365,0.072c0.146,0,0.286,0,0.435,0c0.241,0,0.48-0.025,0.721-0.072
			c0.242-0.049,0.484-0.119,0.725-0.217c0.381-0.189,0.708-0.58,0.975-1.156s0.516-1.232,0.76-1.953
			c0.05-0.146,0.098-0.301,0.146-0.473c0.051-0.168,0.098-0.324,0.145-0.471c0.096-0.289,0.204-0.582,0.327-0.869
			c0.122-0.289,0.229-0.553,0.325-0.795l0.939-2.318l-0.362,11.725h-38.354l1.664-0.508c0.385-0.047,0.832-0.143,1.341-0.287
			c0.511-0.143,1.025-0.289,1.556-0.436c0.485-0.189,0.966-0.373,1.448-0.541c0.483-0.168,0.921-0.352,1.303-0.543
			c0.245-0.098,0.461-0.219,0.653-0.361c0.191-0.146,0.338-0.266,0.433-0.363c0.241-0.291,0.41-0.615,0.508-0.977
			c0.093-0.363,0.168-0.736,0.216-1.125c0-0.143,0-0.287,0-0.436c0-0.145,0-0.285,0-0.432c0-0.244,0-0.461,0-0.654
			c0-0.188,0-0.381,0-0.578v-39.223c0-0.189,0-0.418,0-0.686c0-0.266,0-0.492,0-0.689c0-0.484-0.035-0.928-0.109-1.338
			c-0.071-0.412-0.275-0.811-0.614-1.195c-0.095-0.094-0.241-0.217-0.433-0.365c-0.192-0.143-0.408-0.262-0.653-0.359
			c-0.382-0.193-0.819-0.377-1.303-0.543c-0.482-0.168-0.963-0.35-1.448-0.543c-0.53-0.145-1.045-0.291-1.556-0.436
			c-0.507-0.143-0.953-0.266-1.341-0.363l-1.664-0.58h36.252V406.988z"/>
		<path fill="#FFFFFF" d="M572.533,406.988h34.157l3.763-1.371l-0.143,16.211l-1.159-3.84c-0.05-0.045-0.085-0.107-0.107-0.178
			c-0.026-0.072-0.036-0.137-0.036-0.182c-0.1-0.289-0.181-0.578-0.257-0.867c-0.069-0.291-0.156-0.578-0.253-0.869
			c-0.34-0.963-0.7-1.869-1.087-2.715c-0.385-0.84-0.917-1.383-1.588-1.627c-0.244-0.096-0.486-0.166-0.724-0.217
			c-0.242-0.047-0.487-0.072-0.725-0.072c-0.241-0.047-0.483-0.07-0.721-0.07c-0.245,0-0.507,0-0.798,0c-0.097,0-0.179,0-0.255,0
			c-0.072,0-0.158,0-0.253,0h-9.552v42.334c0,0.82,0.035,1.531,0.107,2.137c0.071,0.602,0.35,1.193,0.83,1.771
			c0.289,0.387,0.811,0.715,1.559,0.979c0.747,0.266,1.532,0.492,2.351,0.686c0.147,0.051,0.274,0.098,0.397,0.148
			c0.12,0.049,0.252,0.068,0.397,0.068c0.382,0.1,0.746,0.207,1.086,0.326c0.337,0.123,0.65,0.229,0.938,0.326l1.591,0.582h-24.532
			l1.668-0.508c0.383-0.049,0.828-0.143,1.339-0.289c0.509-0.141,1.023-0.287,1.555-0.436c0.484-0.188,0.967-0.371,1.45-0.539
			c0.482-0.168,0.918-0.354,1.303-0.543c0.242-0.098,0.46-0.221,0.653-0.363c0.188-0.145,0.337-0.264,0.433-0.361
			c0.146-0.244,0.276-0.471,0.396-0.689c0.118-0.219,0.203-0.445,0.254-0.688c0.049-0.24,0.082-0.48,0.109-0.721
			c0.024-0.242,0.037-0.459,0.037-0.65c0-0.145,0-0.275,0-0.395s0-0.23,0-0.326c-0.052-0.146-0.072-0.275-0.072-0.396
			c0-0.119,0-0.229,0-0.324v-42.125h-11.217c-0.243,0.047-0.472,0.068-0.688,0.068c-0.216,0-0.423,0.027-0.615,0.074
			c-0.096,0.051-0.206,0.096-0.325,0.143c-0.12,0.051-0.23,0.098-0.326,0.146c-0.579,0.387-1.035,1.064-1.372,2.025
			c-0.341,0.967-0.627,2.006-0.87,3.113c-0.051,0.143-0.083,0.299-0.105,0.467c-0.028,0.172-0.063,0.328-0.11,0.477
			c-0.051,0.24-0.107,0.48-0.182,0.721c-0.07,0.242-0.133,0.484-0.181,0.721l-0.795,2.463l-0.362-15.777L572.533,406.988z"/>
		<path fill="#FFFFFF" d="M629.847,453.519c0,0.822,0.038,1.533,0.105,2.137c0.074,0.602,0.353,1.193,0.835,1.771
			c0.287,0.387,0.808,0.711,1.554,0.98c0.747,0.264,1.533,0.492,2.354,0.686c0.146,0.051,0.273,0.096,0.397,0.146
			c0.12,0.049,0.253,0.07,0.396,0.07c0.385,0.098,0.747,0.205,1.087,0.326c0.336,0.121,0.648,0.229,0.94,0.326l1.588,0.58h-24.529
			l1.664-0.506c0.385-0.049,0.832-0.143,1.341-0.289c0.508-0.143,1.025-0.289,1.556-0.436c0.482-0.189,0.966-0.373,1.448-0.541
			c0.483-0.168,0.919-0.352,1.303-0.543c0.241-0.096,0.458-0.219,0.651-0.361c0.192-0.145,0.337-0.266,0.435-0.361
			c0.146-0.244,0.277-0.475,0.397-0.691s0.203-0.445,0.252-0.689c0.052-0.238,0.085-0.484,0.11-0.725
			c0.022-0.238,0.035-0.455,0.035-0.648c0-0.146,0-0.275,0-0.396c0-0.119,0-0.229,0-0.324c-0.048-0.148-0.068-0.279-0.068-0.398
			s0-0.23,0-0.326v-39.006c0-0.047,0-0.131,0-0.254c0-0.121,0.022-0.252,0.068-0.396c0-0.096,0-0.217,0-0.363
			c0-0.145,0-0.291,0-0.434c0-0.193-0.013-0.375-0.035-0.541c-0.025-0.168-0.059-0.35-0.11-0.543
			c-0.049-0.293-0.119-0.568-0.217-0.836c-0.096-0.262-0.242-0.514-0.433-0.76c-0.098-0.092-0.242-0.215-0.435-0.361
			c-0.193-0.143-0.41-0.264-0.651-0.359c-0.384-0.193-0.819-0.377-1.303-0.543c-0.482-0.168-0.966-0.35-1.448-0.543
			c-0.53-0.148-1.048-0.291-1.559-0.436c-0.505-0.143-0.95-0.266-1.338-0.365l-1.664-0.578h24.529l-1.588,0.652
			c-0.292,0.193-0.628,0.336-1.018,0.434c-0.383,0.096-0.796,0.193-1.229,0.291c-0.098,0.047-0.193,0.084-0.291,0.107
			c-0.094,0.025-0.191,0.057-0.286,0.107c-0.82,0.195-1.604,0.426-2.354,0.689c-0.746,0.268-1.264,0.566-1.554,0.902
			c-0.051,0.098-0.11,0.178-0.181,0.254c-0.072,0.066-0.134,0.152-0.179,0.248c-0.291,0.521-0.462,1.055-0.508,1.598
			c-0.045,0.547-0.07,1.146-0.07,1.809V453.519z"/>
	</g>
	<g>
		<g>
			<path fill="#FFFFFF" d="M294.203,123.582c0.179,0.043,0.271,0.064,0.454,0.11c0.095,0.018,0.237,0.008,0.437-0.025
				c0.199-0.031,0.434-0.082,0.683-0.164c0.207-0.066,0.426-0.148,0.642-0.239c0.217-0.092,0.431-0.192,0.643-0.286
				c0.459-0.207,0.882-0.406,1.262-0.597c0.382-0.194,0.736-0.41,1.079-0.617c0.456-0.275,0.93-0.571,1.381-0.898
				c0.451-0.326,0.961-0.696,1.453-1.119c0.056-0.043,0.115-0.089,0.173-0.135c0.059-0.044,0.112-0.09,0.15-0.123
				c0.028-0.023,0.046-0.043,0.057-0.054c0.01-0.01,0.035-0.033,0.059-0.056c0.066-0.059,0.148-0.128,0.232-0.194
				c0.082-0.066,0.173-0.138,0.278-0.212c0.321-0.242,0.477-0.364,0.798-0.604c-0.161,0.308-0.232,0.461-0.388,0.77
				c-0.03,0.048-0.059,0.089-0.081,0.13c-0.023,0.043-0.062,0.086-0.095,0.12c-0.104,0.123-0.222,0.306-0.361,0.446
				c-0.141,0.143-0.296,0.288-0.467,0.446c-0.028,0.025-0.062,0.051-0.087,0.074c-0.026,0.022-0.051,0.051-0.074,0.073
				c-0.028,0.025-0.057,0.048-0.084,0.072c-0.028,0.028-0.054,0.051-0.077,0.074c-0.091,0.086-0.183,0.173-0.27,0.25
				c-0.086,0.081-0.173,0.163-0.268,0.25c-1.308,1.216-2.662,2.246-4.063,3.095c-1.405,0.85-2.677,1.423-3.745,1.759
				c-0.133,0.044-0.265,0.087-0.39,0.115c-0.125,0.03-0.254,0.061-0.375,0.089c-0.165,0.043-0.333,0.074-0.492,0.1
				c-0.158,0.025-0.309,0.051-0.469,0.073c-0.155,0.026-0.308,0.041-0.469,0.049c-0.163,0.008-0.341,0.021-0.533,0.041
				c-0.181,0.13-0.275,0.196-0.456,0.329c-0.201,0.138-0.411,0.273-0.624,0.414c-0.214,0.14-0.449,0.272-0.694,0.395
				c-1.529,0.755-3.266,1.183-5.21,1.247c-1.945,0.062-3.717-0.632-5.293-2.116c-1.777-1.67-2.544-3.862-2.238-6.59
				c0.305-2.728,1.488-5.265,3.546-7.543c0.041-0.04,0.089-0.089,0.132-0.143c0.046-0.056,0.082-0.099,0.123-0.137
				c0.043-0.041,0.089-0.09,0.141-0.138c0.048-0.046,0.094-0.092,0.135-0.133c0.053-0.053,0.115-0.112,0.178-0.173
				c0.059-0.061,0.12-0.125,0.173-0.175c1.948-1.84,4.397-2.963,7.089-3.365c2.695-0.4,4.89,0.375,6.585,2.259
				c0.01,0.01,0.025,0.025,0.046,0.048c0.022,0.023,0.04,0.041,0.051,0.054c0.021,0.023,0.038,0.044,0.054,0.059
				c0.015,0.018,0.038,0.041,0.056,0.061c1.529,1.749,2.19,3.809,2.039,5.932c-0.153,2.129-0.974,4.229-2.457,6.343
				C294.425,123.246,294.353,123.355,294.203,123.582z M281.125,113.474c-1.82,1.915-2.758,3.959-2.796,6.081
				c-0.045,2.118,0.663,3.849,2.08,5.2c0.013,0.013,0.025,0.026,0.036,0.036c0.01,0.01,0.022,0.021,0.033,0.03
				c0.01,0.011,0.025,0.023,0.036,0.034c0.013,0.01,0.025,0.021,0.036,0.03c1.544,1.456,3.437,2.08,5.565,1.902
				c2.128-0.173,4.188-1.024,5.856-2.56c0.041-0.038,0.087-0.077,0.13-0.11c0.049-0.035,0.084-0.068,0.123-0.106
				c0.028-0.028,0.059-0.059,0.097-0.097c0.043-0.041,0.082-0.082,0.12-0.117c1.501-1.491,2.406-3.327,2.74-5.504
				c0.334-2.177-0.224-4.056-1.662-5.616c-1.428-1.548-3.325-2.34-5.724-2.292c-2.396,0.051-4.551,1.012-6.419,2.881
				c-0.013,0.013-0.033,0.03-0.054,0.051c-0.021,0.02-0.041,0.043-0.054,0.056c-0.03,0.028-0.051,0.046-0.061,0.059
				c-0.01,0.013-0.033,0.035-0.062,0.061C281.133,113.482,281.133,113.479,281.125,113.474z"/>
			<path fill="#FFFFFF" d="M307.752,92.586c1.803,2.274,2.708,3.408,4.513,5.682c1.66,2.095,2.154,4.045,1.547,5.861
				c-0.609,1.815-1.688,3.365-3.276,4.678c-1.519,1.254-3.21,2.001-5.088,2.244c-1.879,0.245-3.615-0.51-5.201-2.308
				c-2.221-2.514-3.327-3.768-5.55-6.282c-0.01-0.013-0.03-0.035-0.054-0.063c-0.022-0.028-0.046-0.077-0.063-0.112
				c-0.013-0.021-0.041-0.057-0.071-0.092c-0.03-0.036-0.059-0.067-0.089-0.102c-0.043-0.046-0.087-0.087-0.13-0.12
				c-0.046-0.033-0.094-0.066-0.148-0.102c-0.074-0.051-0.16-0.104-0.245-0.143c-0.084-0.041-0.188-0.066-0.291-0.066
				c-0.046,0-0.117,0.01-0.205,0.028c-0.086,0.021-0.178,0.048-0.27,0.084c-0.153,0.062-0.321,0.13-0.499,0.217
				c-0.176,0.089-0.377,0.168-0.549,0.257c-0.186,0.092-0.369,0.213-0.55,0.311c-0.181,0.099-0.344,0.194-0.479,0.272
				c-0.25,0.123-0.37,0.184-0.615,0.306c2.909-2.641,4.382-3.931,7.354-6.465c-0.14,0.227-0.216,0.344-0.356,0.576
				c-0.049,0.12-0.116,0.242-0.212,0.367c-0.094,0.125-0.224,0.254-0.308,0.39c-0.023,0.031-0.048,0.066-0.069,0.098
				c-0.021,0.032-0.041,0.076-0.062,0.106c-0.163,0.255-0.39,0.52-0.561,0.78c-0.166,0.26-0.278,0.487-0.275,0.622
				c0,0.033,0.005,0.066-0.003,0.104c-0.005,0.038,0,0.079,0.005,0.112c0.028,0.202,0.079,0.377,0.181,0.522
				c0.102,0.146,0.229,0.303,0.373,0.467c2.228,2.567,3.347,3.847,5.578,6.411c1.216,1.4,2.47,2.073,3.75,2.03
				c1.277-0.043,2.585-0.482,3.87-1.326c0.12-0.078,0.232-0.165,0.334-0.24c0.103-0.076,0.206-0.15,0.303-0.232
				c1.155-0.963,1.872-2.171,2.162-3.632c0.291-1.458-0.054-2.814-1.046-4.054c-2.167-2.705-3.25-4.055-5.417-6.761
				c-0.01-0.01-0.027-0.025-0.038-0.038c-0.063-0.082-0.132-0.168-0.204-0.259c-0.069-0.092-0.176-0.176-0.273-0.248
				c-0.071-0.057-0.153-0.11-0.245-0.156c-0.094-0.043-0.209-0.089-0.316-0.1c-0.046-0.005-0.123,0.011-0.205,0.031
				c-0.082,0.018-0.183,0.038-0.298,0.076c-0.13,0.046-0.286,0.11-0.461,0.183c-0.173,0.074-0.38,0.138-0.551,0.217
				c-0.201,0.092-0.393,0.201-0.588,0.28c-0.192,0.077-0.373,0.148-0.518,0.207c-0.271,0.09-0.403,0.135-0.673,0.222
				c2.769-2.274,4.166-3.394,6.98-5.578c-0.12,0.219-0.181,0.331-0.298,0.553c-0.072,0.159-0.176,0.309-0.304,0.472
				c-0.13,0.158-0.254,0.337-0.382,0.505c-0.191,0.26-0.393,0.518-0.574,0.767c-0.176,0.25-0.273,0.451-0.283,0.592
				c-0.01,0.106,0.03,0.247,0.112,0.428c0.079,0.181,0.17,0.37,0.275,0.563c0.112,0.207,0.227,0.382,0.339,0.543
				c0.112,0.158,0.196,0.267,0.247,0.329C307.765,92.595,307.758,92.593,307.752,92.586z"/>
			<path fill="#FFFFFF" d="M318.352,81.034c0.087,0.059,0.191,0.112,0.263,0.168c0.077,0.062,0.15,0.146,0.234,0.199
				c0.084,0.054,0.181,0.125,0.283,0.196c0.559,0.393,1.443,0.913,2.526,1.573c1.086,0.66,2.22,1.382,3.381,2.054
				c0.073,0.041,0.152,0.082,0.227,0.125c0.074,0.043,0.15,0.089,0.219,0.13c1.402,0.818,2.728,1.677,3.944,2.406
				c1.216,0.727,2.031,1.183,2.383,1.385c0.113,0.066,0.214,0.138,0.312,0.181c0.094,0.046,0.206,0.1,0.308,0.158
				c0.071,0.044,0.158,0.084,0.25,0.128c0.095,0.038,0.186,0.081,0.283,0.129c0.162,0.077,0.386,0.09,0.686,0.036
				c0.301-0.051,0.63-0.112,0.934-0.214c0.061-0.021,0.135-0.046,0.211-0.059c0.074-0.015,0.16-0.04,0.227-0.063
				c0.051-0.018,0.097-0.025,0.147-0.033c0.051-0.005,0.1-0.018,0.156-0.038c0.227-0.061,0.344-0.094,0.57-0.156
				c-2.625,1.751-3.928,2.646-6.516,4.477c0.171-0.237,0.26-0.354,0.433-0.591c0.08-0.074,0.164-0.167,0.24-0.273
				c0.077-0.11,0.161-0.227,0.248-0.347c0.161-0.207,0.288-0.415,0.396-0.622c0.106-0.207,0.155-0.418,0.097-0.543
				c-0.005-0.011,0-0.039-0.003-0.051c-0.002-0.008-0.013-0.023-0.018-0.033c-0.005-0.008-0.016-0.016-0.023-0.028
				c-0.045-0.061-0.117-0.132-0.213-0.213c-0.103-0.082-0.214-0.148-0.306-0.212c-0.051-0.034-0.1-0.08-0.143-0.107
				c-0.041-0.025-0.079-0.049-0.119-0.076c-0.049-0.039-0.103-0.077-0.156-0.105c-0.057-0.03-0.102-0.059-0.143-0.087
				c-1.586-1.02-2.392-1.521-3.993-2.523c-2.21,1.561-3.309,2.355-5.491,3.972c0.411,1.851,0.62,2.776,1.051,4.622
				c0.013,0.046,0.027,0.084,0.035,0.109c0.008,0.023,0.033,0.052,0.041,0.069c0.021,0.051,0.018,0.148,0.043,0.224
				c0.025,0.08,0.059,0.156,0.087,0.222c0.063,0.163,0.122,0.326,0.186,0.472c0.061,0.142,0.117,0.252,0.163,0.316
				c0.01,0.013,0.02,0.018,0.025,0.026c0.005,0.007,0.01,0.022,0.023,0.03c0.089,0.076,0.319,0.071,0.533,0.016
				c0.219-0.054,0.497-0.11,0.696-0.217c0.025-0.013,0.056-0.038,0.092-0.054c0.032-0.015,0.063-0.02,0.081-0.022
				c0.077-0.008,0.181-0.059,0.271-0.094c0.084-0.036,0.163-0.066,0.24-0.084c0.288-0.1,0.436-0.146,0.724-0.243
				c-2.358,1.744-3.533,2.631-5.853,4.443c0.143-0.204,0.214-0.306,0.357-0.51c0.079-0.102,0.168-0.219,0.262-0.349
				c0.092-0.132,0.179-0.258,0.268-0.383c0.183-0.259,0.344-0.522,0.486-0.782c0.141-0.26,0.2-0.482,0.189-0.646
				c-0.005-0.091-0.018-0.181-0.035-0.264c-0.018-0.085-0.036-0.167-0.039-0.235c-0.002-0.054-0.005-0.112-0.021-0.161
				c-0.013-0.049-0.043-0.107-0.054-0.163c-0.015-0.059-0.021-0.138-0.035-0.204c-0.016-0.066-0.044-0.146-0.057-0.222
				c-0.086-0.472-0.158-0.989-0.259-1.502c-0.103-0.512-0.225-1.047-0.322-1.578c-0.051-0.268-0.094-0.554-0.148-0.832
				c-0.051-0.28-0.102-0.568-0.161-0.854c-0.418-2.159-0.833-4.189-1.231-6.055c-0.398-1.866-0.647-3.054-0.783-3.546
				c-0.043-0.155-0.079-0.295-0.115-0.425c-0.036-0.13-0.069-0.28-0.122-0.38c-0.019-0.033-0.044-0.077-0.051-0.12
				c-0.008-0.041-0.039-0.087-0.054-0.12c-0.026-0.061-0.036-0.173-0.064-0.265c-0.033-0.092-0.069-0.181-0.107-0.268
				c0.609-0.453,0.921-0.677,1.532-1.129C318.164,80.907,318.263,80.974,318.352,81.034z M318.658,84.084
				c0.492,2.641,0.744,3.959,1.277,6.582c1.802-1.331,2.708-1.988,4.53-3.281C322.159,86.047,321.001,85.386,318.658,84.084z"/>
			<path fill="#FFFFFF" d="M340.489,83.668c0.091,0.143,0.196,0.271,0.308,0.382c0.112,0.113,0.25,0.181,0.413,0.207
				c0.14,0.021,0.286,0,0.454-0.068c0.165-0.071,0.341-0.146,0.489-0.229c0.046-0.025,0.089-0.052,0.119-0.069
				c0.033-0.018,0.057-0.036,0.087-0.056c1.106-0.704,1.664-1.05,2.776-1.744c0.115-0.051,0.222-0.114,0.329-0.191
				c0.11-0.074,0.222-0.173,0.327-0.26c0.127-0.107,0.272-0.227,0.402-0.36c0.127-0.13,0.232-0.267,0.299-0.392
				c0.135-0.245,0.209-0.49,0.204-0.739c-0.005-0.248-0.02-0.538-0.077-0.8c-0.013-0.059-0.025-0.118-0.03-0.181
				c-0.005-0.059-0.013-0.115-0.021-0.163c-0.056-0.367-0.082-0.548-0.138-0.918c0.795,1.341,1.201,2.009,1.996,3.345
				c-4.629,2.758-6.921,4.196-11.444,7.186c0.166-0.186,0.248-0.283,0.416-0.474c0.11-0.092,0.237-0.209,0.367-0.349
				c0.13-0.143,0.276-0.286,0.4-0.432c0.117-0.137,0.229-0.292,0.349-0.433c0.12-0.146,0.222-0.289,0.308-0.408
				c0.054-0.074,0.107-0.147,0.143-0.227c0.033-0.08,0.063-0.143,0.071-0.186c0.011-0.051,0.005-0.113,0.003-0.164
				c-0.003-0.054,0.002-0.12,0-0.171c-0.005-0.086-0.051-0.183-0.089-0.265c-0.046-0.082-0.087-0.168-0.138-0.248
				c-0.036-0.051-0.076-0.107-0.115-0.163c-0.041-0.059-0.069-0.125-0.112-0.191c-2.725-4.235-4.089-6.348-6.812-10.58
				c-0.008-0.013-0.018-0.036-0.041-0.068c-0.021-0.031-0.035-0.085-0.051-0.123c-0.01-0.022-0.035-0.058-0.062-0.099
				c-0.025-0.038-0.045-0.076-0.069-0.114c-0.033-0.051-0.068-0.097-0.106-0.138c-0.041-0.038-0.084-0.081-0.128-0.122
				c-0.066-0.062-0.142-0.125-0.216-0.178c-0.077-0.052-0.178-0.1-0.278-0.115c-0.046-0.008-0.109-0.008-0.196-0.008
				c-0.089,0.003-0.188,0.021-0.28,0.041c-0.155,0.036-0.329,0.076-0.515,0.135c-0.187,0.056-0.385,0.102-0.563,0.158
				c-0.194,0.061-0.396,0.147-0.586,0.216c-0.188,0.069-0.357,0.13-0.495,0.189c-0.26,0.081-0.388,0.119-0.645,0.201
				c3.189-2.11,4.795-3.136,8.036-5.137c-0.166,0.201-0.25,0.303-0.413,0.505c-0.063,0.109-0.148,0.219-0.26,0.327
				c-0.112,0.106-0.254,0.216-0.359,0.331c-0.026,0.028-0.054,0.062-0.08,0.087c-0.028,0.026-0.049,0.061-0.068,0.089
				c-0.192,0.219-0.459,0.443-0.658,0.67c-0.201,0.227-0.347,0.434-0.364,0.566c0,0.03,0,0.07-0.013,0.106
				c-0.011,0.033-0.013,0.072-0.013,0.105c-0.003,0.196,0.03,0.377,0.104,0.535c0.076,0.156,0.17,0.326,0.283,0.505
				C336.44,77.261,337.789,79.395,340.489,83.668z"/>
			<path fill="#FFFFFF" d="M360.576,74.96c0.159,0.094,0.232,0.14,0.388,0.235c0.081,0.043,0.217,0.081,0.411,0.109
				c0.194,0.028,0.426,0.048,0.677,0.045c0.209-0.002,0.437-0.018,0.661-0.041c0.225-0.021,0.444-0.051,0.668-0.079
				c0.479-0.056,0.922-0.125,1.328-0.196c0.4-0.069,0.795-0.163,1.163-0.258c0.492-0.125,1.012-0.265,1.515-0.441
				c0.502-0.176,1.078-0.375,1.644-0.63c0.062-0.025,0.122-0.056,0.184-0.081c0.064-0.023,0.13-0.049,0.175-0.069
				c0.031-0.015,0.049-0.031,0.062-0.038c0.013-0.007,0.043-0.018,0.072-0.033c0.079-0.039,0.17-0.077,0.267-0.112
				c0.097-0.039,0.202-0.08,0.317-0.118c0.361-0.135,0.54-0.204,0.904-0.339c-0.226,0.245-0.352,0.364-0.578,0.609
				c-0.041,0.039-0.067,0.075-0.1,0.108c-0.032,0.035-0.076,0.056-0.114,0.081c-0.127,0.086-0.286,0.227-0.454,0.319
				c-0.166,0.091-0.349,0.186-0.55,0.285c-0.031,0.016-0.062,0.028-0.095,0.043c-0.03,0.015-0.061,0.033-0.094,0.051
				c-0.031,0.015-0.059,0.028-0.092,0.043c-0.03,0.016-0.056,0.03-0.086,0.046c-0.11,0.056-0.214,0.107-0.314,0.159
				c-0.102,0.051-0.211,0.102-0.319,0.155c-1.527,0.768-3.043,1.346-4.563,1.731c-1.522,0.388-2.851,0.554-3.929,0.556
				c-0.135,0-0.27,0-0.393-0.01c-0.122-0.011-0.257-0.016-0.375-0.023c-0.166-0.01-0.324-0.032-0.477-0.053
				c-0.153-0.026-0.304-0.049-0.459-0.069c-0.153-0.02-0.301-0.056-0.451-0.094c-0.153-0.038-0.319-0.079-0.5-0.118
				c-0.199,0.069-0.303,0.102-0.505,0.171c-0.221,0.069-0.453,0.137-0.688,0.204c-0.235,0.069-0.481,0.125-0.737,0.166
				c-1.611,0.255-3.34,0.141-5.167-0.385c-1.825-0.52-3.294-1.698-4.39-3.564c-1.239-2.105-1.399-4.402-0.434-6.881
				c0.966-2.475,2.733-4.629,5.19-6.054c0.046-0.028,0.103-0.059,0.156-0.097c0.054-0.038,0.107-0.069,0.156-0.097
				c0.051-0.028,0.1-0.062,0.158-0.092c0.056-0.03,0.112-0.051,0.161-0.079c0.066-0.035,0.14-0.073,0.211-0.114
				c0.074-0.039,0.146-0.077,0.207-0.11c2.271-1.158,4.849-1.502,7.462-1.086c2.613,0.416,4.458,1.794,5.565,4.074
				c0.008,0.013,0.018,0.033,0.03,0.059c0.016,0.031,0.021,0.051,0.028,0.063c0.016,0.025,0.03,0.054,0.041,0.074
				c0.01,0.021,0.02,0.046,0.033,0.071c0.984,2.111,1.084,4.253,0.406,6.221s-1.976,3.719-3.888,5.274
				C360.865,74.704,360.773,74.789,360.576,74.96z M350.94,61.532c-2.179,1.27-3.564,2.919-4.132,4.902
				c-0.571,1.986-0.342,3.826,0.637,5.525c0.008,0.013,0.013,0.03,0.021,0.043c0.008,0.015,0.018,0.025,0.028,0.038
				c0.007,0.013,0.013,0.028,0.021,0.041c0.007,0.013,0.013,0.025,0.021,0.041c1.08,1.833,2.681,2.982,4.703,3.449
				c2.024,0.472,4.156,0.283,6.09-0.67c0.049-0.022,0.092-0.048,0.143-0.063c0.054-0.021,0.1-0.041,0.147-0.064
				c0.033-0.018,0.077-0.036,0.123-0.063c0.049-0.025,0.089-0.049,0.135-0.071c1.772-0.964,3.083-2.433,3.939-4.393
				c0.859-1.961,0.819-3.9-0.129-5.8c-0.938-1.887-2.509-3.197-4.755-3.857c-2.244-0.662-4.499-0.387-6.705,0.823
				c-0.016,0.008-0.041,0.019-0.066,0.031c-0.023,0.016-0.041,0.028-0.053,0.035c-0.036,0.019-0.062,0.031-0.077,0.041
				c-0.015,0.01-0.038,0.021-0.071,0.038C350.943,61.545,350.945,61.537,350.94,61.532z"/>
			<path fill="#FFFFFF" d="M381.091,49.52c1.104,2.682,1.662,4.025,2.766,6.705c1.018,2.473,0.994,4.479-0.041,6.027
				c-1.033,1.547-2.45,2.709-4.27,3.495c-1.742,0.752-3.503,0.969-5.318,0.652c-1.812-0.316-3.248-1.539-4.272-3.707
				c-1.435-3.033-2.146-4.55-3.582-7.582c-0.007-0.013-0.02-0.04-0.038-0.079c-0.015-0.033-0.022-0.084-0.033-0.125
				c-0.005-0.022-0.03-0.062-0.051-0.104c-0.02-0.041-0.041-0.082-0.059-0.125c-0.025-0.054-0.056-0.107-0.086-0.151
				c-0.036-0.046-0.066-0.092-0.105-0.138c-0.056-0.071-0.132-0.146-0.199-0.204c-0.069-0.062-0.163-0.12-0.257-0.153
				c-0.043-0.013-0.109-0.021-0.193-0.03c-0.087-0.008-0.184-0.005-0.278,0c-0.155,0.013-0.329,0.028-0.52,0.059
				c-0.186,0.03-0.388,0.049-0.574,0.079c-0.196,0.035-0.4,0.089-0.594,0.135c-0.194,0.041-0.372,0.08-0.515,0.118
				c-0.265,0.043-0.392,0.066-0.655,0.112c3.383-1.649,5.088-2.447,8.51-3.985c-0.189,0.176-0.291,0.268-0.479,0.444
				c-0.077,0.102-0.168,0.194-0.291,0.283c-0.122,0.086-0.273,0.178-0.387,0.278c-0.028,0.023-0.062,0.056-0.095,0.079
				c-0.03,0.023-0.043,0.053-0.066,0.079c-0.214,0.189-0.51,0.377-0.732,0.573c-0.224,0.197-0.384,0.381-0.418,0.513
				c-0.007,0.031-0.018,0.066-0.033,0.102c-0.015,0.031-0.021,0.066-0.025,0.103c-0.025,0.196-0.013,0.382,0.046,0.553
				c0.059,0.168,0.132,0.352,0.224,0.548c1.433,3.084,2.147,4.625,3.577,7.714c0.78,1.68,1.782,2.682,2.988,3.014
				c1.206,0.332,2.539,0.298,3.957-0.13c0.132-0.038,0.258-0.089,0.372-0.13c0.115-0.041,0.232-0.086,0.344-0.135
				c1.326-0.583,2.302-1.52,2.947-2.825c0.645-1.305,0.675-2.692,0.059-4.163c-1.336-3.2-2.004-4.795-3.338-7.992
				c-0.008-0.013-0.022-0.031-0.027-0.046c-0.041-0.1-0.074-0.201-0.123-0.308c-0.046-0.107-0.115-0.212-0.188-0.311
				c-0.054-0.074-0.118-0.153-0.194-0.219c-0.079-0.069-0.173-0.148-0.273-0.189c-0.038-0.016-0.11-0.021-0.191-0.028
				c-0.079-0.008-0.187-0.018-0.303-0.013c-0.136,0.003-0.299,0.018-0.482,0.036c-0.183,0.018-0.38,0.025-0.561,0.048
				c-0.211,0.031-0.436,0.077-0.637,0.095c-0.202,0.02-0.38,0.04-0.53,0.056c-0.271,0.005-0.413,0.008-0.686,0.013
				c3.167-1.364,4.759-2.024,7.957-3.293c-0.168,0.173-0.25,0.262-0.418,0.438c-0.107,0.125-0.243,0.248-0.403,0.364
				c-0.161,0.115-0.319,0.248-0.484,0.375c-0.25,0.188-0.51,0.375-0.742,0.561c-0.232,0.184-0.37,0.352-0.416,0.479
				c-0.036,0.1-0.036,0.246-0.005,0.441c0.034,0.199,0.064,0.4,0.113,0.614c0.056,0.227,0.117,0.438,0.181,0.617
				c0.066,0.184,0.118,0.309,0.145,0.38C381.098,49.53,381.093,49.53,381.091,49.52z"/>
			<path fill="#FFFFFF" d="M397.48,39.979c0.484,1.439,0.719,2.162,1.201,3.602c-0.262-0.304-0.395-0.454-0.66-0.754
				c-0.054-0.046-0.105-0.1-0.156-0.164c-0.053-0.063-0.11-0.12-0.161-0.168c-0.158-0.152-0.311-0.324-0.459-0.443
				c-0.147-0.12-0.354-0.209-0.599-0.248c-0.161-0.025-0.337-0.03-0.521-0.013c-0.186,0.018-0.375,0.043-0.54,0.094
				c-0.099,0.031-0.214,0.063-0.312,0.089c-0.097,0.028-0.193,0.059-0.298,0.097c-1.274,0.439-1.904,0.658-3.176,1.114
				c-0.027,0.025-0.063,0.048-0.097,0.059c-0.036,0.013-0.077,0.028-0.127,0.051c-0.207,0.073-0.405,0.15-0.599,0.237
				c-0.191,0.087-0.327,0.196-0.392,0.322c-0.052,0.081-0.057,0.193-0.023,0.338c0.036,0.143,0.087,0.291,0.148,0.451
				c0.005,0.016,0.008,0.031,0.013,0.046c0.005,0.018,0.016,0.039,0.023,0.059c0.007,0.021,0.015,0.035,0.021,0.051
				c0.769,2.075,1.157,3.118,1.927,5.193c1.428-0.53,2.144-0.788,3.576-1.3c0.103-0.036,0.202-0.069,0.304-0.107
				c0.1-0.036,0.201-0.071,0.303-0.109c0.199-0.069,0.38-0.151,0.554-0.235c0.166-0.084,0.333-0.207,0.434-0.357
				c0.022-0.039,0.045-0.079,0.071-0.112c0.027-0.036,0.038-0.079,0.048-0.104c0.033-0.08,0.107-0.168,0.13-0.243
				c0.021-0.074,0.043-0.166,0.062-0.27c0.078-0.459,0.119-0.681,0.196-1.139c0.716,2.067,1.076,3.095,1.794,5.16
				c-0.163-0.171-0.242-0.252-0.402-0.426c-0.033-0.036-0.069-0.079-0.115-0.127c-0.046-0.049-0.084-0.112-0.122-0.155
				c-0.021-0.025-0.053-0.046-0.066-0.064c-0.013-0.018-0.045-0.041-0.066-0.066c-0.166-0.174-0.332-0.39-0.516-0.566
				c-0.183-0.173-0.395-0.265-0.601-0.295c-0.117-0.018-0.232-0.028-0.344-0.022c-0.112,0.005-0.219,0.015-0.326,0.04
				c-0.107,0.023-0.214,0.051-0.321,0.087c-0.11,0.041-0.232,0.082-0.367,0.13c-0.016,0.005-0.041,0.013-0.066,0.021
				c-0.023,0.007-0.041,0.015-0.056,0.022c-1.479,0.525-2.223,0.795-3.694,1.341c0.791,2.131,1.191,3.197,1.981,5.326
				c0.025,0.072,0.063,0.15,0.104,0.229c0.041,0.084,0.082,0.159,0.125,0.225c0.092,0.148,0.191,0.272,0.296,0.375
				c0.102,0.102,0.201,0.158,0.316,0.163c0.15,0.01,0.286,0,0.397-0.023c0.112-0.023,0.222-0.059,0.334-0.102
				c0.053-0.019,0.094-0.033,0.137-0.049c0.041-0.015,0.087-0.051,0.13-0.072c0.025-0.013,0.074-0.025,0.123-0.043
				c0.054-0.018,0.097-0.038,0.146-0.056c1.604-0.594,2.406-0.885,4.015-1.453c0.056,0,0.112-0.014,0.163-0.031
				c0.048-0.021,0.104-0.048,0.145-0.053c0.031-0.003,0.084-0.003,0.133-0.019c0.051-0.015,0.102-0.033,0.153-0.053
				c0.082-0.028,0.164-0.064,0.243-0.109c0.076-0.041,0.15-0.089,0.219-0.148c0.109-0.094,0.183-0.257,0.214-0.464
				s0.043-0.433,0.053-0.678c0-0.051,0.008-0.104,0.005-0.163c0-0.054-0.002-0.11-0.002-0.159c0.005-0.1,0.013-0.196,0.022-0.298
				c0.011-0.102,0.031-0.199,0.038-0.283c0.033-0.324,0.046-0.484,0.077-0.808c0.431,1.438,0.645,2.159,1.079,3.597
				c-5.206,1.759-7.794,2.705-12.928,4.716c0.199-0.148,0.303-0.222,0.502-0.37c0.123-0.063,0.258-0.155,0.408-0.265
				c0.153-0.109,0.327-0.219,0.477-0.333c0.137-0.107,0.28-0.232,0.426-0.344c0.143-0.112,0.262-0.232,0.369-0.331
				c0.066-0.059,0.136-0.123,0.184-0.192c0.048-0.065,0.079-0.125,0.1-0.163c0.051-0.109,0.071-0.237,0.061-0.356
				c-0.01-0.12-0.021-0.252-0.054-0.362c-0.013-0.041-0.033-0.089-0.048-0.13c-0.018-0.043-0.036-0.089-0.054-0.133
				c-0.028-0.071-0.056-0.135-0.077-0.194c-0.021-0.056-0.041-0.117-0.063-0.178c-1.785-4.696-2.674-7.043-4.461-11.739
				c-0.023-0.059-0.046-0.127-0.074-0.207c-0.028-0.082-0.064-0.148-0.086-0.207c-0.054-0.146-0.107-0.276-0.181-0.387
				c-0.069-0.113-0.199-0.212-0.362-0.271c-0.044-0.016-0.107-0.036-0.192-0.054c-0.084-0.016-0.181-0.021-0.275-0.021
				c-0.156,0-0.329,0.003-0.521,0.018c-0.191,0.016-0.393,0.016-0.576,0.031c-0.199,0.02-0.4,0.058-0.6,0.083
				c-0.196,0.026-0.367,0.054-0.515,0.077c-0.262,0.022-0.395,0.035-0.661,0.059C389.679,42.701,392.272,41.753,397.48,39.979z"/>
			<path fill="#FFFFFF" d="M411.759,45.056c-0.191,0.097-0.289,0.143-0.484,0.24c1.458,0.754,2.182,1.134,3.622,1.904
				c0.393,0.224,0.757,0.431,1.091,0.617c0.333,0.186,0.688,0.362,0.994,0.548c0.087,0.053,0.166,0.107,0.262,0.153
				c0.095,0.046,0.197,0.1,0.281,0.151c0.248,0.14,0.515,0.27,0.798,0.405c0.277,0.13,0.586,0.283,0.895,0.426
				c0.176,0.079,0.336,0.148,0.472,0.217c0.138,0.065,0.275,0.135,0.413,0.183c0.076,0.03,0.158,0.056,0.229,0.084
				c0.071,0.028,0.161,0.049,0.25,0.074c0.17,0.043,0.367,0.102,0.586,0.148c0.216,0.048,0.489,0.092,0.826,0.145
				c0.298,0.038,0.456,0.056,0.752,0.092c-0.309,0.161-0.472,0.237-0.78,0.398c-0.031,0.022-0.072,0.041-0.123,0.053
				c-0.048,0.016-0.104,0.03-0.168,0.049c-0.267,0.068-0.601,0.117-1.014,0.143c-0.414,0.023-0.86,0.051-1.292,0.031
				c-0.492-0.018-1.178-0.258-2.007-0.666c-0.826-0.408-1.688-0.857-2.587-1.333c-0.021-0.01-0.046-0.013-0.066-0.018
				c-0.018-0.002-0.03-0.018-0.036-0.025c-0.082-0.094-0.367-0.178-0.541-0.273c-0.17-0.094-0.347-0.191-0.52-0.283
				c-1.879-0.956-2.83-1.425-4.739-2.348c-0.273,0.084-0.413,0.125-0.686,0.211c0.655,2.096,0.986,3.146,1.642,5.241
				c0.076,0.25,0.163,0.464,0.245,0.64c0.081,0.179,0.24,0.324,0.451,0.451c0.135,0.082,0.341,0.133,0.622,0.135
				c0.278,0.003,0.586-0.022,0.872-0.033c0.053-0.003,0.102,0,0.147,0c0.048,0,0.097-0.01,0.145-0.018
				c0.125-0.023,0.276-0.013,0.403-0.01c0.125,0.003,0.239,0,0.349,0c0.242,0.005,0.359,0.01,0.599,0.016
				c-3.36,1.001-5.032,1.532-8.366,2.638c0.207-0.135,0.308-0.207,0.515-0.341c0.125-0.056,0.27-0.138,0.428-0.237
				c0.156-0.1,0.327-0.2,0.485-0.303c0.163-0.108,0.316-0.23,0.464-0.335c0.15-0.106,0.275-0.221,0.372-0.303
				c0.077-0.061,0.153-0.12,0.197-0.181c0.043-0.063,0.082-0.122,0.104-0.162c0.053-0.105,0.077-0.227,0.074-0.35
				c-0.003-0.122-0.01-0.255-0.038-0.368c-0.021-0.082-0.054-0.17-0.077-0.251c-0.025-0.082-0.059-0.167-0.089-0.255
				c-0.006-0.013-0.013-0.039-0.023-0.066c-0.01-0.028-0.01-0.051-0.015-0.064c-1.535-4.785-2.3-7.176-3.835-11.958
				c-0.061-0.191-0.132-0.365-0.211-0.518c-0.076-0.156-0.211-0.288-0.395-0.382c-0.153-0.079-0.388-0.132-0.694-0.156
				c-0.305-0.022-0.619-0.038-0.948-0.043c-0.191,0-0.379,0-0.561,0.002c-0.183,0.002-0.354,0.002-0.507,0.005
				c-0.255-0.003-0.383-0.005-0.64-0.008c1.899-0.63,2.848-0.938,4.749-1.538c0.268-0.063,0.518-0.135,0.742-0.216
				c0.224-0.077,0.443-0.155,0.667-0.242c0.036-0.01,0.069-0.023,0.105-0.034c0.035-0.01,0.071-0.021,0.106-0.03
				c0.192-0.059,0.381-0.12,0.572-0.186c0.191-0.066,0.392-0.133,0.602-0.196c0.191-0.056,0.382-0.113,0.589-0.164
				c0.207-0.053,0.428-0.114,0.658-0.163c0.143-0.028,0.293-0.051,0.428-0.076c0.136-0.023,0.273-0.057,0.411-0.077
				c1.061-0.155,2.216,0.064,3.316,0.554c1.104,0.489,1.836,1.404,2.21,2.727c0.283,1.013,0.219,1.885-0.188,2.626
				c-0.41,0.745-0.91,1.364-1.504,1.855c-0.267,0.222-0.543,0.423-0.821,0.604c-0.28,0.178-0.532,0.339-0.77,0.474
				C411.761,45.072,411.761,45.064,411.759,45.056z M408.228,37.62c-0.052,0.033-0.092,0.053-0.135,0.066
				c-0.046,0.013-0.095,0.011-0.125,0.013c-0.046,0.003-0.102,0.031-0.148,0.046c-0.043,0.013-0.089,0.028-0.14,0.044
				c-0.019,0.005-0.044,0.013-0.057,0.018c-0.018,0.005-0.033,0.01-0.051,0.016c-0.332,0.102-0.645,0.216-0.938,0.344
				c-0.293,0.13-0.484,0.24-0.568,0.329c-0.129,0.138-0.183,0.286-0.166,0.443c0.021,0.156,0.056,0.317,0.106,0.479
				c0.008,0.013,0.008,0.023,0.008,0.031c0.005,0.007,0.011,0.018,0.016,0.03c0.745,2.389,1.12,3.587,1.866,5.976
				c0.477-0.158,0.711-0.237,1.19-0.39c1.341-0.413,2.404-1.081,3.189-2.011c0.783-0.928,1.02-1.915,0.698-2.965
				c-0.013-0.043-0.031-0.086-0.043-0.129c-0.013-0.046-0.023-0.095-0.039-0.133c-0.291-0.854-0.935-1.514-1.774-1.889
				c-0.836-0.375-1.734-0.424-2.511-0.355c-0.051,0.006-0.121,0-0.181,0.011c-0.063,0.01-0.123,0.03-0.192,0.054
				C408.235,37.63,408.23,37.628,408.228,37.62z"/>
			<path fill="#FFFFFF" d="M447.434,30.706c0.477,2.86,0.711,4.296,1.185,7.159c0.436,2.636-0.031,4.583-1.361,5.853
				c-1.338,1.275-2.949,2.078-4.871,2.429c-1.838,0.334-3.577,0.143-5.254-0.581c-1.68-0.721-2.784-2.236-3.296-4.579
				c-0.711-3.276-1.071-4.917-1.788-8.196c-0.002-0.015-0.005-0.043-0.013-0.082c-0.008-0.036-0.005-0.087-0.005-0.127
				c0-0.026-0.013-0.069-0.026-0.113c-0.01-0.046-0.018-0.089-0.028-0.135c-0.013-0.062-0.034-0.118-0.053-0.171
				c-0.023-0.048-0.052-0.106-0.074-0.16c-0.041-0.082-0.087-0.166-0.14-0.24c-0.057-0.077-0.125-0.153-0.209-0.204
				c-0.041-0.026-0.106-0.054-0.186-0.082c-0.082-0.028-0.173-0.049-0.265-0.062c-0.153-0.022-0.332-0.043-0.52-0.056
				c-0.188-0.013-0.385-0.046-0.566-0.057c-0.196-0.01-0.402-0.005-0.599-0.007c-0.197-0.003-0.367-0.008-0.515-0.005
				c-0.263-0.015-0.4-0.023-0.665-0.041c3.609-0.826,5.422-1.208,9.049-1.928c-0.219,0.127-0.326,0.194-0.545,0.321
				c-0.092,0.082-0.211,0.15-0.35,0.209c-0.135,0.059-0.298,0.114-0.434,0.186c-0.033,0.015-0.063,0.038-0.1,0.054
				c-0.032,0.015-0.063,0.041-0.097,0.056c-0.247,0.135-0.571,0.252-0.826,0.393c-0.254,0.143-0.453,0.28-0.512,0.4
				c-0.013,0.028-0.025,0.066-0.049,0.098c-0.022,0.028-0.038,0.061-0.051,0.096c-0.064,0.187-0.094,0.365-0.074,0.543
				c0.021,0.176,0.046,0.373,0.087,0.584c0.704,3.329,1.05,5,1.753,8.326c0.38,1.813,1.12,3.013,2.206,3.612
				c1.086,0.597,2.384,0.872,3.839,0.777c0.136-0.007,0.273-0.028,0.39-0.043c0.118-0.019,0.237-0.033,0.357-0.057
				c1.402-0.264,2.546-0.958,3.454-2.08c0.905-1.122,1.242-2.465,0.974-4.033c-0.586-3.419-0.879-5.125-1.466-8.541
				c-0.002-0.015-0.002-0.027-0.005-0.046c-0.018-0.106-0.036-0.216-0.054-0.329c-0.021-0.112-0.074-0.234-0.123-0.349
				c-0.038-0.085-0.073-0.174-0.137-0.258c-0.062-0.081-0.133-0.181-0.217-0.245c-0.033-0.025-0.102-0.048-0.176-0.076
				c-0.076-0.025-0.175-0.054-0.288-0.077c-0.13-0.028-0.293-0.049-0.472-0.071s-0.372-0.059-0.548-0.079
				c-0.209-0.021-0.438-0.028-0.637-0.056c-0.2-0.026-0.373-0.051-0.521-0.069c-0.265-0.054-0.397-0.087-0.663-0.141
				c3.347-0.607,5.017-0.887,8.377-1.402c-0.199,0.133-0.301,0.205-0.5,0.336c-0.133,0.1-0.286,0.184-0.469,0.261
				c-0.181,0.076-0.362,0.168-0.546,0.254c-0.281,0.128-0.578,0.248-0.841,0.375c-0.265,0.128-0.423,0.263-0.492,0.378
				c-0.056,0.089-0.094,0.227-0.107,0.425c-0.015,0.197-0.021,0.408-0.021,0.627c0,0.235,0.013,0.451,0.036,0.64
				c0.023,0.194,0.039,0.327,0.051,0.4C447.436,30.722,447.436,30.714,447.434,30.706z"/>
			<path fill="#FFFFFF" d="M458.245,27.933c0.441,0.615,1.012,1.344,1.708,2.18c0.702,0.841,1.423,1.716,2.17,2.625
				c0.081,0.097,0.165,0.191,0.239,0.283c0.072,0.094,0.156,0.183,0.232,0.268c1.079,1.193,2.063,2.447,2.979,3.523
				c0.912,1.076,1.697,1.983,1.738,1.976c0.202-0.03,1.127-2.165,1.984-3.911c0.855-1.746,1.748-3.673,2.76-5.529
				c0.042-0.079,0.089-0.166,0.134-0.258c0.05-0.089,0.102-0.173,0.146-0.252c0.146-0.265,0.278-0.553,0.428-0.831
				c0.15-0.273,0.296-0.545,0.436-0.818c0.126-0.243,0.235-0.472,0.337-0.683c0.102-0.209,0.222-0.429,0.292-0.623
				c0.016-0.043,0.034-0.097,0.057-0.147c0.021-0.049,0.041-0.102,0.054-0.143c0.071-0.186,0.184-0.397,0.265-0.612
				c0.084-0.214,0.184-0.444,0.294-0.683c0.598-0.057,0.89-0.077,1.486-0.125c0.038,0.275,0.076,0.53,0.112,0.76
				c0.033,0.229,0.076,0.451,0.096,0.645c0.008,0.057,0.013,0.121,0.027,0.171c0.013,0.054,0.01,0.104,0.014,0.15
				c0.025,0.252,0.087,0.533,0.133,0.808c0.048,0.278,0.098,0.571,0.156,0.893c0.098,0.563,0.199,1.173,0.314,1.807
				c0.114,0.635,0.229,1.275,0.339,1.91c0.308,1.797,0.576,3.477,0.827,4.995c0.256,1.517,0.406,2.299,0.413,2.325
				c0.011,0.033,0.008,0.083,0.018,0.123c0.013,0.038,0.016,0.089,0.02,0.129c0.031,0.217,0.116,0.444,0.187,0.65
				c0.074,0.207,0.146,0.388,0.222,0.512c0.083,0.133,0.28,0.253,0.546,0.353c0.267,0.1,0.544,0.184,0.836,0.26
				c0.137,0.038,0.276,0.073,0.407,0.104c0.13,0.033,0.256,0.066,0.377,0.107c0.22,0.063,0.33,0.092,0.549,0.155
				c-3.187,0.168-4.778,0.281-7.964,0.541c0.33-0.151,0.492-0.222,0.822-0.37c0.066-0.005,0.13-0.02,0.188-0.051
				c0.054-0.028,0.125-0.061,0.184-0.074c0.015-0.002,0.022-0.005,0.035-0.016c0.008-0.007,0.031-0.013,0.046-0.015
				c0.239-0.053,0.517-0.201,0.76-0.313c0.242-0.112,0.403-0.24,0.479-0.379c0.114-0.209,0.193-0.403,0.223-0.579
				c0.034-0.171,0.047-0.336,0.036-0.49c-0.007-0.091-0.017-0.181-0.036-0.272c-0.016-0.092-0.035-0.179-0.055-0.252
				c-0.018-0.059-0.037-0.118-0.051-0.171c-0.013-0.051-0.021-0.109-0.025-0.17c-0.723-4.168-1.102-6.251-1.857-10.411
				c-0.28,0.518-0.731,1.346-1.335,2.485c-0.607,1.137-1.248,2.36-1.898,3.653c-0.451,0.9-0.89,1.797-1.315,2.667
				c-0.426,0.87-0.795,1.632-1.113,2.282c-0.057,0.115-0.117,0.227-0.164,0.342c-0.054,0.112-0.114,0.237-0.16,0.362
				c-0.016,0.046-0.031,0.105-0.057,0.164c-0.031,0.056-0.058,0.114-0.086,0.181c-0.209,0.497-0.403,0.966-0.577,1.395
				c-0.17,0.428-0.311,0.79-0.311,0.79c-0.02,0.003-0.242-0.316-0.468-0.604c-0.228-0.289-0.464-0.683-0.707-0.925
				c-0.013-0.015-0.023-0.034-0.027-0.043c-0.041-0.1-0.168-0.222-0.253-0.324c-0.079-0.102-0.163-0.202-0.239-0.301
				c-2.236-2.86-4.103-5.206-5.574-6.848c-1.471-1.637-2.366-2.62-2.667-2.973c0.166,3.549,0.258,5.323,0.438,8.87
				c0.013,0.073,0.018,0.163,0.013,0.257c-0.008,0.094,0,0.209,0.013,0.324c0.013,0.145,0.011,0.326,0.018,0.512
				c0.008,0.184,0.023,0.37,0.049,0.553c0.005,0.031,0.007,0.061,0.013,0.094c0.005,0.031,0.002,0.054,0.005,0.069
				c0.033,0.229,0.082,0.445,0.155,0.652c0.069,0.209,0.168,0.388,0.293,0.523c0.097,0.109,0.265,0.201,0.482,0.267
				c0.216,0.062,0.479,0.161,0.693,0.166c0.03,0,0.069-0.002,0.107,0.006c0.038,0.01,0.071,0.005,0.1,0.007
				c0.061,0.006,0.153,0.041,0.232,0.057c0.079,0.013,0.158,0.028,0.227,0.051c0.298,0.056,0.446,0.086,0.741,0.146
				c-2.661,0.331-3.987,0.512-6.644,0.907c0.166-0.1,0.248-0.153,0.408-0.25c0.054-0.008,0.092-0.023,0.133-0.046
				c0.043-0.021,0.092-0.038,0.135-0.062c0.046-0.03,0.089-0.066,0.143-0.089c0.048-0.023,0.102-0.051,0.15-0.071
				c0.271-0.132,0.528-0.299,0.768-0.449c0.24-0.15,0.408-0.315,0.481-0.477c0.063-0.158,0.089-0.453,0.082-0.867
				c-0.005-0.415-0.007-0.869-0.053-1.315c-0.011-0.105-0.025-0.211-0.031-0.311c-0.005-0.099-0.025-0.217-0.032-0.318
				c-0.036-0.495-0.011-1.083-0.028-1.667c-0.021-0.581-0.062-1.172-0.1-1.753c-0.078-1.224-0.143-2.425-0.234-3.552
				c-0.092-1.129-0.163-1.999-0.191-2.618c-0.018-0.403-0.038-0.78-0.077-1.12c-0.035-0.339-0.076-0.673-0.125-1.01
				c-0.018-0.137-0.038-0.286-0.056-0.438c-0.021-0.152-0.039-0.305-0.059-0.458c-0.015-0.107-0.038-0.211-0.051-0.311
				c-0.013-0.1-0.025-0.207-0.041-0.314c0.623-0.094,0.938-0.135,1.565-0.227c0.074,0.146,0.161,0.316,0.268,0.513
				c0.11,0.194,0.247,0.405,0.372,0.617c0.048,0.084,0.092,0.176,0.14,0.265c0.051,0.089,0.122,0.176,0.176,0.257
				c0.025,0.041,0.048,0.087,0.079,0.128c0.036,0.045,0.061,0.084,0.086,0.13C458.25,27.946,458.245,27.943,458.245,27.933z"/>
			<path fill="#FFFFFF" d="M506.184,28.856c0,0.031,0.003,0.054,0.003,0.066c0,0.015-0.004,0.031-0.004,0.039
				c0,0.007-0.006,0.018-0.006,0.032c-0.038,1.298-0.728,2.404-2.062,3.332c-1.334,0.926-2.864,1.346-4.325,1.507
				c-0.081,0.008-0.165,0.023-0.246,0.023c-0.076,0-0.164-0.003-0.253-0.003c-0.229,0-0.454-0.018-0.674-0.043
				c-0.219-0.026-0.44-0.056-0.667-0.105c-0.38-0.081-0.565-0.127-0.943-0.211c0.003,1.948,0.003,2.919,0.006,4.867
				c0,0.265,0.015,0.489,0.042,0.681c0.025,0.194,0.131,0.385,0.289,0.571c0.104,0.117,0.289,0.222,0.546,0.298
				c0.261,0.079,0.534,0.153,0.817,0.237c0.051,0.015,0.1,0.031,0.151,0.039c0.054,0.007,0.104,0.02,0.155,0.032
				c0.131,0.038,0.268,0.072,0.385,0.11c0.117,0.041,0.229,0.069,0.331,0.103c0.225,0.076,0.339,0.119,0.564,0.196
				c-3.48-0.036-5.219-0.028-8.696,0.038c0.236-0.066,0.354-0.107,0.588-0.173c0.139-0.018,0.293-0.054,0.475-0.099
				c0.181-0.049,0.377-0.098,0.551-0.154c0.166-0.051,0.344-0.12,0.516-0.173c0.168-0.059,0.323-0.127,0.457-0.184
				c0.08-0.033,0.168-0.063,0.232-0.112c0.069-0.049,0.126-0.092,0.154-0.122c0.051-0.064,0.102-0.148,0.143-0.217
				c0.04-0.071,0.068-0.145,0.084-0.224c0.016-0.077,0.031-0.156,0.038-0.232c0.009-0.079,0.009-0.145,0.009-0.209
				c0-0.048,0-0.084,0-0.122c0-0.041,0.004-0.082,0-0.107c-0.009-0.041-0.029-0.092-0.029-0.13c0-0.041,0-0.072,0-0.102
				c-0.041-5.022-0.063-7.536-0.104-12.558c-0.004-0.202-0.01-0.385-0.039-0.558c-0.033-0.168-0.12-0.333-0.269-0.479
				c-0.122-0.123-0.331-0.242-0.608-0.357c-0.281-0.114-0.58-0.219-0.889-0.326c-0.18-0.057-0.358-0.113-0.531-0.164
				c-0.17-0.054-0.334-0.102-0.479-0.145c-0.24-0.079-0.365-0.12-0.604-0.196c1.979-0.041,2.971-0.051,4.949-0.056
				c0.273,0.015,0.53,0.018,0.785,0.007c0.257-0.007,0.498-0.01,0.734-0.01c0.053,0,0.094,0,0.132,0s0.072,0,0.108,0
				c0.19-0.005,0.406-0.021,0.613-0.018c0.206,0.002,0.422,0.002,0.638,0.005c0.179,0,0.378,0.003,0.575,0.003
				c0.199,0,0.4,0.015,0.598,0.025c0.189,0.008,0.402,0.023,0.619,0.056s0.438,0.076,0.653,0.125c1.114,0.252,2.151,0.8,3.087,1.66
				c0.931,0.856,1.397,2.044,1.407,3.559C506.184,28.866,506.184,28.863,506.184,28.856z M499.49,24.743c-0.057,0-0.117,0-0.189,0
				c-0.092,0-0.176-0.002-0.26-0.002s-0.166-0.003-0.258-0.003c-0.295,0.005-0.598,0.038-0.879,0.069
				c-0.277,0.03-0.469,0.076-0.579,0.14c-0.163,0.092-0.262,0.214-0.287,0.367c-0.025,0.158-0.036,0.319-0.036,0.489
				c0,0.016,0,0.028,0,0.036s0,0.018,0,0.033c0.002,2.584,0.002,3.875,0.005,6.462c0.317,0.035,0.472,0.056,0.785,0.097
				c0.21,0.046,0.423,0.074,0.625,0.092c0.2,0.015,0.4,0.026,0.597,0.028c1.354,0.008,2.508-0.313,3.473-0.979
				c0.963-0.663,1.463-1.601,1.488-2.822c0-0.049,0.002-0.089,0.002-0.127c0-0.041,0.002-0.074,0.002-0.104
				c-0.004-1.013-0.354-1.838-0.971-2.396c-0.614-0.559-1.293-0.948-2.008-1.152c-0.232-0.064-0.461-0.112-0.689-0.148
				c-0.227-0.035-0.453-0.071-0.66-0.079C499.602,24.741,499.541,24.743,499.49,24.743z"/>
			<path fill="#FFFFFF" d="M518.174,23.844c0.038,0.018,0.068,0.03,0.117,0.033c0.047,0.002,0.095,0.005,0.148,0.01
				c0.035,0.003,0.079,0.005,0.125,0.008c0.047,0.003,0.086,0.003,0.123,0.005c2.84,0.197,5.243,1.199,7.155,2.975
				c1.913,1.775,2.761,4.036,2.531,6.695c-0.228,2.676-1.527,4.734-3.788,6.159c-2.265,1.426-4.802,2.007-7.642,1.792
				c-2.665-0.201-4.895-1.18-6.702-2.983c-1.81-1.804-2.696-3.928-2.611-6.396c0.08-2.409,1.131-4.426,3.199-6.019
				c2.066-1.593,4.529-2.353,7.344-2.256C518.17,23.862,518.174,23.852,518.174,23.844z M518.057,25.136
				c-2.457-0.089-4.443,0.586-5.939,1.991c-1.494,1.408-2.27,3.1-2.322,5.05c-0.057,1.877,0.645,3.641,2.016,5.27
				c1.377,1.628,3.209,2.638,5.377,2.842c0.049,0.005,0.094,0.007,0.141,0.01c0.042,0.002,0.092-0.003,0.117,0.005
				c0.028,0.008,0.068,0.036,0.111,0.039c0.045,0.002,0.09,0,0.141,0.005c2.093,0.147,3.959-0.38,5.627-1.588
				c1.672-1.208,2.617-2.86,2.824-4.983c0.201-2.076-0.422-3.996-1.912-5.739c-1.492-1.744-3.462-2.705-5.882-2.852
				c-0.017,0-0.042-0.003-0.066-0.005c-0.022-0.002-0.048,0-0.063-0.002c-0.035-0.002-0.064-0.005-0.08-0.005
				c-0.021,0-0.047-0.003-0.08-0.005C518.059,25.152,518.057,25.144,518.057,25.136z"/>
			<path fill="#FFFFFF" d="M550.476,35.729c-0.017,0.186-0.036,0.364-0.056,0.533c-0.021,0.168-0.049,0.333-0.078,0.5
				c-0.338,1.871-1.094,3.288-2.249,4.264c-1.159,0.977-2.366,1.667-3.599,2.096c-0.851,0.295-1.655,0.502-2.408,0.602
				c-0.752,0.102-1.338,0.145-1.749,0.135c-0.241-0.005-0.509-0.016-0.813-0.038c-0.303-0.021-0.609-0.054-0.93-0.1
				c-0.169-0.022-0.342-0.054-0.506-0.084c-0.169-0.033-0.34-0.054-0.506-0.079c-0.23-0.038-0.475-0.094-0.707-0.132
				c-0.238-0.041-0.467-0.084-0.684-0.13c-0.365-0.08-0.718-0.153-1.047-0.209c-0.328-0.059-0.599-0.099-0.82-0.13
				c-2.162-0.272-3.246-0.4-5.412-0.634c0.234-0.051,0.349-0.077,0.58-0.128c0.125-0.018,0.264-0.04,0.424-0.065
				c0.158-0.028,0.324-0.057,0.479-0.087c0.299-0.056,0.598-0.132,0.873-0.216c0.274-0.084,0.471-0.196,0.586-0.293
				c0.035-0.027,0.063-0.054,0.084-0.079c0.021-0.027,0.051-0.051,0.064-0.063c0.121-0.115,0.207-0.286,0.27-0.426
				c0.059-0.14,0.097-0.3,0.119-0.484c0.607-5.024,0.91-7.541,1.515-12.563c0.022-0.199,0.038-0.38,0.034-0.553
				c-0.006-0.17-0.076-0.344-0.205-0.513c-0.104-0.135-0.29-0.272-0.558-0.405c-0.271-0.135-0.574-0.25-0.85-0.37
				c-0.17-0.071-0.337-0.147-0.505-0.207c-0.163-0.056-0.321-0.117-0.461-0.175c-0.229-0.109-0.344-0.163-0.573-0.273
				c1.968,0.214,2.948,0.326,4.915,0.571c0.231,0.049,0.51,0.079,0.836,0.104c0.326,0.028,0.698,0.054,1.088,0.095
				c0.385,0.046,0.816,0.102,1.255,0.148c0.438,0.043,0.902,0.097,1.388,0.163c0.323,0.049,0.646,0.098,0.969,0.148
				c0.32,0.053,0.647,0.11,0.965,0.173c0.229,0.046,0.455,0.104,0.668,0.15c0.213,0.051,0.429,0.102,0.641,0.163
				c0.453,0.133,0.945,0.324,1.494,0.573c0.547,0.252,1.115,0.566,1.674,0.956c1.048,0.732,1.979,1.701,2.781,2.898
				c0.807,1.196,1.135,2.593,1.014,4.186C550.475,35.741,550.475,35.739,550.476,35.729z M536.182,28.2
				c-0.635,4.943-0.945,7.421-1.58,12.364c-0.033,0.247-0.03,0.466,0.016,0.667c0.043,0.199,0.216,0.37,0.377,0.523
				c0.016,0.015,0.033,0.038,0.057,0.048c0.022,0.01,0.063,0.015,0.111,0.026c0.201,0.048,0.572,0.165,1.065,0.278
				c0.495,0.112,1.046,0.211,1.647,0.292c0.136,0.021,0.264,0.041,0.391,0.057c0.133,0.018,0.264,0.025,0.379,0.033
				c0.523,0.033,1.083,0.089,1.613,0.089s1-0.041,1.397-0.138c0.307-0.076,0.655-0.166,1.04-0.254
				c0.389-0.087,0.804-0.2,1.224-0.355c0.816-0.295,1.626-0.82,2.425-1.55c0.793-0.729,1.358-1.871,1.695-3.428
				c0.006-0.031,0.013-0.054,0.018-0.079c0.002-0.025,0.005-0.054,0.014-0.082c0.001-0.015,0.004-0.031,0.01-0.064
				c0.006-0.03,0.01-0.054,0.013-0.066c0.282-1.674-0.048-3.309-1.03-4.895c-0.98-1.585-2.523-2.73-4.525-3.451
				c-0.206-0.074-0.578-0.173-1.129-0.286c-0.548-0.11-1.139-0.204-1.768-0.273c-0.017-0.002-0.037-0.005-0.053-0.008
				c-0.016-0.002-0.039-0.005-0.056-0.007c-0.628-0.087-1.222-0.148-1.772-0.181c-0.553-0.034-0.93-0.011-1.139,0.048
				c-0.148,0.046-0.256,0.13-0.322,0.263c-0.059,0.132-0.102,0.283-0.123,0.453C536.18,28.213,536.18,28.211,536.182,28.2z"/>
			<path fill="#FFFFFF" d="M566.797,31.356c-0.357,1.477-0.527,2.218-0.883,3.697c-0.063-0.396-0.099-0.594-0.165-0.986
				c-0.02-0.069-0.035-0.143-0.044-0.222c-0.013-0.082-0.032-0.164-0.048-0.224c-0.051-0.211-0.092-0.436-0.153-0.614
				c-0.063-0.181-0.178-0.359-0.367-0.523c-0.121-0.106-0.271-0.207-0.441-0.291c-0.162-0.081-0.335-0.16-0.502-0.207
				c-0.1-0.028-0.211-0.051-0.306-0.079c-0.095-0.027-0.196-0.053-0.303-0.076c-1.304-0.296-1.951-0.441-3.255-0.721
				c-0.041,0.008-0.086,0.005-0.121,0c-0.035-0.008-0.076-0.016-0.13-0.028c-0.215-0.043-0.423-0.079-0.632-0.107
				c-0.203-0.025-0.371-0.008-0.498,0.061c-0.08,0.046-0.146,0.143-0.191,0.283c-0.045,0.143-0.088,0.291-0.121,0.457
				c-0.003,0.015-0.013,0.031-0.016,0.046c-0.002,0.015-0.002,0.039-0.008,0.061c-0.005,0.021-0.01,0.036-0.014,0.051
				c-0.442,2.169-0.67,3.258-1.112,5.428c1.478,0.301,2.225,0.454,3.7,0.775c0.105,0.023,0.207,0.051,0.309,0.072
				c0.107,0.022,0.209,0.043,0.312,0.063c0.209,0.048,0.397,0.076,0.589,0.094c0.186,0.018,0.383-0.002,0.548-0.082
				c0.044-0.018,0.085-0.041,0.123-0.056c0.04-0.016,0.081-0.049,0.104-0.062c0.069-0.048,0.177-0.084,0.233-0.137
				c0.055-0.049,0.125-0.112,0.192-0.192c0.31-0.346,0.462-0.52,0.773-0.869c-0.485,2.133-0.724,3.199-1.212,5.33
				c-0.045-0.227-0.07-0.344-0.119-0.574c-0.008-0.048-0.013-0.104-0.025-0.166c-0.013-0.063-0.018-0.143-0.028-0.199
				c-0.005-0.033-0.015-0.061-0.019-0.087c-0.002-0.025-0.016-0.056-0.022-0.089c-0.048-0.235-0.073-0.516-0.137-0.757
				c-0.063-0.245-0.187-0.431-0.345-0.563c-0.093-0.079-0.186-0.151-0.281-0.204c-0.098-0.054-0.199-0.1-0.298-0.138
				c-0.099-0.035-0.198-0.068-0.312-0.092c-0.114-0.025-0.236-0.053-0.377-0.084c-0.018-0.002-0.039-0.007-0.064-0.013
				c-0.025-0.005-0.052-0.008-0.067-0.013c-1.521-0.329-2.284-0.492-3.808-0.801c-0.457,2.226-0.687,3.335-1.146,5.563
				c-0.016,0.073-0.025,0.158-0.035,0.25c-0.01,0.095-0.016,0.179-0.016,0.255c0,0.173,0.021,0.331,0.054,0.474
				c0.036,0.141,0.099,0.243,0.19,0.309c0.127,0.086,0.241,0.15,0.346,0.186c0.104,0.038,0.211,0.071,0.331,0.097
				c0.054,0.01,0.095,0.015,0.138,0.025c0.041,0.013,0.107,0.005,0.152,0.01c0.028,0,0.076,0.013,0.127,0.023
				c0.054,0.01,0.098,0.023,0.154,0.033c1.662,0.336,2.484,0.515,4.143,0.874c0.045,0.028,0.099,0.049,0.152,0.059
				c0.054,0.01,0.115,0.018,0.152,0.036c0.029,0.013,0.063,0.039,0.117,0.048c0.051,0.013,0.105,0.025,0.156,0.038
				c0.085,0.018,0.174,0.03,0.26,0.033c0.09,0.003,0.168,0.003,0.261-0.01c0.143-0.021,0.292-0.123,0.425-0.286
				c0.135-0.159,0.273-0.339,0.41-0.546c0.029-0.041,0.057-0.089,0.086-0.14c0.029-0.048,0.055-0.089,0.08-0.13
				c0.057-0.082,0.115-0.166,0.18-0.245c0.061-0.081,0.119-0.152,0.167-0.216c0.199-0.26,0.302-0.39,0.501-0.647
				c-0.394,1.448-0.594,2.174-0.984,3.625c-5.323-1.239-7.998-1.794-13.363-2.783c0.244-0.021,0.366-0.033,0.611-0.054
				c0.14,0.01,0.295,0.01,0.482-0.003c0.186-0.01,0.39-0.013,0.574-0.033c0.169-0.02,0.359-0.056,0.539-0.073
				c0.179-0.021,0.35-0.059,0.492-0.087c0.081-0.015,0.169-0.036,0.246-0.066c0.077-0.036,0.143-0.064,0.178-0.086
				c0.102-0.069,0.178-0.166,0.236-0.273c0.057-0.107,0.115-0.222,0.145-0.334c0.01-0.041,0.021-0.095,0.031-0.138
				c0.014-0.048,0.018-0.091,0.029-0.138c0.014-0.077,0.029-0.143,0.042-0.201c0.013-0.062,0.021-0.125,0.034-0.187
				c0.971-4.927,1.452-7.393,2.424-12.318c0.013-0.062,0.025-0.133,0.041-0.216c0.016-0.085,0.032-0.156,0.045-0.217
				c0.034-0.152,0.05-0.295,0.05-0.428c0-0.132-0.057-0.275-0.161-0.421c-0.031-0.035-0.064-0.086-0.127-0.145
				c-0.062-0.062-0.146-0.109-0.226-0.16c-0.127-0.082-0.28-0.171-0.448-0.26c-0.166-0.086-0.344-0.194-0.505-0.275
				c-0.174-0.09-0.369-0.163-0.55-0.245c-0.174-0.082-0.337-0.15-0.476-0.209c-0.231-0.118-0.349-0.176-0.581-0.296
				C558.784,29.574,561.467,30.13,566.797,31.356z"/>
			<path fill="#FFFFFF" d="M588.504,36.522c0.298,0.091,0.591,0.176,0.854,0.25c0.268,0.071,0.513,0.153,0.757,0.229
				c0.368,0.115,0.72,0.235,1.054,0.365c0.331,0.13,0.665,0.273,1,0.431c0.315,0.148,0.632,0.314,0.953,0.492
				c0.318,0.173,0.642,0.37,0.981,0.577c0.277,0.16,0.417,0.239,0.698,0.403c-0.578,1.769-0.859,2.659-1.438,4.428
				c-0.063-0.627-0.102-0.94-0.168-1.57c-0.01-0.084-0.025-0.173-0.041-0.27c-0.016-0.094-0.022-0.194-0.029-0.291
				c-0.031-0.326-0.098-0.652-0.167-0.951c-0.061-0.298-0.195-0.574-0.392-0.765c-0.031-0.025-0.057-0.057-0.087-0.082
				c-0.036-0.025-0.064-0.068-0.104-0.106c-0.228-0.207-0.71-0.451-1.276-0.74c-0.569-0.285-1.213-0.535-1.832-0.785
				c-0.114-0.046-0.231-0.1-0.352-0.135c-0.119-0.036-0.252-0.079-0.372-0.115c-0.054-0.016-0.1-0.036-0.153-0.051
				c-0.051-0.016-0.096-0.031-0.127-0.036c-0.048-0.008-0.114-0.01-0.158-0.023c-0.046-0.013-0.095-0.027-0.147-0.045
				c-2.317-0.658-4.595-0.459-6.583,0.458c-1.995,0.915-3.266,2.458-3.847,4.606c-0.553,2.06-0.206,4.046,0.991,5.973
				c1.199,1.925,2.985,3.22,5.393,3.937c0.099,0.03,0.196,0.059,0.299,0.082c0.099,0.023,0.203,0.051,0.302,0.079
				c0.924,0.255,1.909,0.352,2.864,0.349c0.947-0.003,1.669-0.117,2.154-0.367c0.172-0.087,0.355-0.205,0.543-0.345
				c0.181-0.14,0.366-0.288,0.543-0.443c0.159-0.138,0.318-0.283,0.482-0.436c0.162-0.148,0.302-0.278,0.43-0.382
				c0.393-0.339,0.587-0.508,0.981-0.844c-1.068,1.734-1.593,2.605-2.646,4.344c-0.393-0.003-0.588-0.011-0.979-0.013
				c-0.206,0.013-0.41,0.022-0.591,0.02c-0.182-0.002-0.36-0.005-0.536-0.018c-0.731-0.053-1.502-0.186-2.29-0.372
				c-0.784-0.184-1.771-0.477-2.932-0.836c-0.274-0.086-0.547-0.184-0.817-0.299c-0.272-0.114-0.541-0.25-0.806-0.387
				c-1.795-0.94-3.345-2.343-4.586-4.242c-1.239-1.896-1.634-3.918-1.145-6.075c0.007-0.028,0.02-0.056,0.025-0.079
				c0.004-0.025,0.01-0.051,0.018-0.079c0.005-0.015,0.013-0.035,0.021-0.068c0.007-0.028,0.007-0.048,0.013-0.064
				c0.684-2.519,2.304-4.311,4.915-5.32c2.607-1.01,5.396-1.14,8.32-0.37C588.499,36.531,588.501,36.53,588.504,36.522z"/>
			<path fill="#FFFFFF" d="M607.601,43.435c0.03,0.028,0.064,0.051,0.109,0.066c0.044,0.018,0.088,0.039,0.139,0.056
				c0.032,0.013,0.067,0.025,0.111,0.044c0.046,0.02,0.082,0.033,0.115,0.046c2.692,1.032,4.733,2.712,6.069,4.983
				c1.336,2.269,1.496,4.683,0.499,7.161c-1.004,2.49-2.872,4.071-5.482,4.756c-2.611,0.686-5.237,0.487-7.924-0.565
				c-2.526-0.986-4.393-2.583-5.61-4.844c-1.224-2.261-1.47-4.556-0.66-6.894c0.784-2.279,2.396-3.897,4.859-4.805
				c2.465-0.911,5.069-0.911,7.767,0.018C607.596,43.45,607.599,43.446,607.601,43.435z M607.101,44.643
				c-2.351-0.818-4.469-0.764-6.327,0.135c-1.858,0.9-3.101,2.294-3.724,4.143c-0.6,1.779-0.444,3.669,0.41,5.634
				c0.852,1.966,2.302,3.394,4.371,4.319c0.05,0.018,0.095,0.033,0.136,0.048c0.041,0.016,0.083,0.031,0.107,0.046
				c0.025,0.016,0.061,0.049,0.102,0.063c0.041,0.016,0.081,0.036,0.131,0.054c1.979,0.762,3.948,0.811,5.921,0.156
				c1.973-0.658,3.379-1.95,4.196-3.918c0.803-1.925,0.752-3.949-0.183-6.065c-0.937-2.114-2.563-3.621-4.858-4.484
				c-0.017-0.005-0.035-0.01-0.058-0.021s-0.045-0.023-0.061-0.031c-0.035-0.013-0.06-0.023-0.076-0.028
				c-0.019-0.005-0.054-0.015-0.085-0.028C607.101,44.654,607.099,44.651,607.101,44.643z"/>
			<path fill="#FFFFFF" d="M634.152,56.48c-0.353,0.143-0.688,0.286-1.014,0.408c-0.343,0.123-0.707,0.255-1.054,0.4
				c-0.347,0.148-0.728,0.314-1.14,0.49c-1.412,0.596-2.717,1.145-3.872,1.665c-1.157,0.518-2.338,1.182-3.357,1.577
				c-0.079,0.031-0.173,0.057-0.249,0.095c-0.078,0.043-0.167,0.094-0.246,0.137c-0.991,0.533-2.148,1.048-3.26,1.622
				c-1.106,0.571-2.321,1.186-3.65,1.861c3.174,1.405,4.752,2.126,7.89,3.63c0.122,0.077,0.224,0.135,0.321,0.173
				c0.099,0.041,0.217,0.087,0.328,0.118c0.098,0.023,0.22,0.046,0.332,0.074c0.115,0.03,0.235,0.048,0.366,0.061
				c0.317,0.033,0.607,0.016,0.876-0.054c0.27-0.063,0.512-0.145,0.733-0.239c0.224-0.097,0.423-0.196,0.598-0.301
				c0.166-0.107,0.322-0.184,0.468-0.235c0.413-0.166,0.622-0.25,1.038-0.413c-1.42,1.267-2.129,1.905-3.534,3.19
				c-0.194-0.24-0.293-0.36-0.489-0.602c-5.012-2.45-7.544-3.612-12.642-5.81c7.232-3.836,10.967-5.649,18.638-9.027
				c-3.452-1.672-5.183-2.48-8.675-4.039c-0.107-0.03-0.255-0.078-0.438-0.143c-0.181-0.066-0.38-0.125-0.571-0.178
				c-0.244-0.071-0.474-0.143-0.691-0.197c-0.214-0.051-0.376-0.063-0.458-0.056c-0.136,0.011-0.309,0.087-0.498,0.25
				c-0.191,0.161-0.382,0.339-0.563,0.53c-0.112,0.121-0.223,0.248-0.33,0.378c-0.105,0.13-0.188,0.232-0.268,0.319
				c-0.311,0.329-0.471,0.499-0.778,0.831c0.737-1.792,1.108-2.692,1.848-4.481c0.359,0.254,0.538,0.382,0.896,0.64
				c5.899,2.574,8.821,3.943,14.607,6.837C634.891,56.171,634.498,56.335,634.152,56.48z"/>
			<path fill="#FFFFFF" d="M634.896,72.538c-0.122,0.235-0.22,0.436-0.284,0.617c-0.066,0.184-0.054,0.408,0.001,0.647
				c0.041,0.153,0.155,0.337,0.355,0.541c0.2,0.204,0.448,0.408,0.657,0.604c0.041,0.036,0.066,0.071,0.099,0.11
				c0.034,0.033,0.079,0.059,0.123,0.086c0.104,0.074,0.201,0.189,0.293,0.281c0.089,0.092,0.179,0.173,0.258,0.25
				c0.165,0.176,0.247,0.268,0.413,0.441c-3.133-1.71-4.708-2.542-7.885-4.153c0.245,0.054,0.362,0.076,0.606,0.127
				c0.133,0.054,0.293,0.1,0.479,0.143c0.186,0.044,0.376,0.097,0.563,0.135c0.171,0.033,0.374,0.054,0.553,0.089
				c0.178,0.031,0.354,0.047,0.5,0.06c0.087,0.007,0.17,0.015,0.255,0.007c0.084-0.01,0.163-0.018,0.198-0.03
				c0.079-0.028,0.161-0.087,0.231-0.125c0.072-0.043,0.133-0.091,0.185-0.156c0.051-0.058,0.1-0.122,0.143-0.183
				c0.044-0.066,0.076-0.122,0.104-0.179c0.021-0.041,0.048-0.079,0.066-0.112c0.016-0.033,0.035-0.071,0.044-0.097
				c0.013-0.039,0.02-0.092,0.038-0.125c0.02-0.033,0.032-0.066,0.048-0.094c2.31-4.431,3.46-6.644,5.769-11.074
				c0.009-0.013,0.028-0.038,0.047-0.071c0.02-0.036,0.056-0.069,0.081-0.1c0.016-0.021,0.033-0.061,0.057-0.102
				c0.022-0.044,0.032-0.084,0.054-0.125c0.028-0.056,0.058-0.11,0.076-0.164c0.019-0.051,0.025-0.112,0.041-0.17
				c0.02-0.089,0.045-0.184,0.054-0.275c0.007-0.092,0.001-0.197-0.037-0.293c-0.014-0.041-0.051-0.104-0.09-0.176
				c-0.044-0.073-0.108-0.15-0.169-0.219c-0.104-0.114-0.225-0.25-0.362-0.382c-0.143-0.132-0.281-0.285-0.415-0.413
				c-0.148-0.135-0.32-0.262-0.476-0.392c-0.149-0.13-0.284-0.242-0.404-0.337c-0.193-0.184-0.288-0.275-0.485-0.456
				c3.363,1.703,5.033,2.58,8.35,4.395c-0.255-0.043-0.38-0.063-0.635-0.106c-0.125,0-0.268-0.023-0.41-0.066
				c-0.148-0.043-0.304-0.113-0.457-0.143c-0.035-0.008-0.076-0.008-0.114-0.018c-0.035-0.01-0.084-0.016-0.12-0.022
				c-0.28-0.059-0.606-0.176-0.902-0.235c-0.296-0.062-0.532-0.082-0.658-0.028c-0.029,0.013-0.063,0.03-0.099,0.038
				c-0.038,0.008-0.072,0.019-0.102,0.036c-0.171,0.097-0.312,0.216-0.409,0.362c-0.096,0.145-0.195,0.311-0.295,0.497
				C638.455,65.841,637.267,68.074,634.896,72.538z"/>
			<path fill="#FFFFFF" d="M653.957,83.293c-0.13-0.509-0.228-0.897-0.291-1.129c-0.035-0.132-0.086-0.293-0.145-0.469
				c-0.057-0.181-0.151-0.497-0.278-0.94c-0.14-0.489-0.275-0.975-0.419-1.461c-0.146-0.492-0.323-1.007-0.448-1.496
				c-0.025-0.1-0.054-0.212-0.095-0.319c-0.042-0.107-0.061-0.22-0.086-0.319c-0.563-2.192-1.398-4.399-2.101-6.394
				c-0.698-1.993-1.226-3.413-1.55-4.257c-1.985,3.48-2.976,5.219-4.958,8.698c-0.034,0.053-0.066,0.117-0.11,0.191
				c-0.042,0.071-0.083,0.164-0.135,0.232c-0.049,0.066-0.12,0.156-0.177,0.257c-0.058,0.103-0.111,0.207-0.172,0.314
				c-0.047,0.082-0.098,0.163-0.143,0.24c-0.05,0.079-0.095,0.163-0.136,0.242c-0.115,0.209-0.207,0.456-0.29,0.691
				c-0.082,0.235-0.128,0.443-0.126,0.623c0,0.176,0.082,0.372,0.25,0.594c0.171,0.221,0.353,0.446,0.55,0.666
				c0.06,0.071,0.12,0.132,0.169,0.188c0.047,0.053,0.102,0.11,0.158,0.158c0.215,0.219,0.316,0.329,0.53,0.551
				c-2.383-1.389-3.587-2.067-5.996-3.398c0.193,0.021,0.296,0.031,0.489,0.056c0.085,0.028,0.168,0.046,0.256,0.057
				c0.083,0.01,0.168,0.025,0.262,0.043c0.313,0.051,0.622,0.089,0.924,0.118c0.298,0.025,0.533-0.011,0.705-0.11
				c0.148-0.079,0.317-0.26,0.511-0.548c0.193-0.291,0.407-0.61,0.606-0.948c0.092-0.159,0.184-0.324,0.274-0.487
				c0.092-0.161,0.171-0.303,0.251-0.441c2.572-4.563,3.859-6.842,6.429-11.403c0.565,0.316,0.839,0.477,1.402,0.798
				c0.071,0.291,0.16,0.632,0.249,1.032c0.092,0.403,0.245,0.896,0.447,1.474c0.336,0.964,0.705,2.032,1.102,3.195
				c0.392,1.165,0.779,2.353,1.159,3.556c0.782,2.465,1.474,4.78,2.104,6.927c0.622,2.141,0.994,3.438,1.149,3.888
				c2.134-3.322,3.199-4.981,5.33-8.306c0.06-0.092,0.126-0.192,0.197-0.304c0.071-0.109,0.146-0.224,0.219-0.341
				c0.073-0.117,0.152-0.227,0.225-0.339c0.071-0.112,0.128-0.216,0.197-0.324c0.162-0.26,0.32-0.505,0.442-0.729
				c0.123-0.224,0.174-0.4,0.174-0.53c-0.003-0.176-0.085-0.39-0.255-0.627c-0.168-0.24-0.373-0.484-0.556-0.718
				c-0.023-0.031-0.05-0.052-0.057-0.072c-0.013-0.015-0.031-0.03-0.044-0.04c-0.058-0.054-0.124-0.154-0.184-0.227
				c-0.061-0.077-0.129-0.153-0.188-0.227c-0.117-0.173-0.168-0.265-0.285-0.436c2.483,1.564,3.712,2.368,6.164,3.999
				c-0.326-0.084-0.481-0.127-0.809-0.208c-0.061-0.003-0.121-0.01-0.165-0.025c-0.046-0.013-0.106-0.031-0.163-0.046
				c-0.293-0.084-0.587-0.135-0.836-0.181c-0.253-0.044-0.5-0.051-0.739-0.023c-0.123,0.011-0.276,0.125-0.474,0.337
				c-0.192,0.214-0.391,0.461-0.587,0.716c-0.109,0.143-0.225,0.289-0.321,0.438c-0.098,0.147-0.174,0.283-0.253,0.403
				c-0.084,0.13-0.173,0.262-0.268,0.405c-2.862,4.408-4.295,6.611-7.156,11.021c-0.428-0.281-0.639-0.419-1.07-0.699
				C654.388,85.001,654.088,83.806,653.957,83.293z"/>
			<path fill="#FFFFFF" d="M684.844,88.295c-0.043,0.022-0.089,0.038-0.125,0.038c-0.041,0-0.073,0.013-0.107,0.023
				c-0.175,0.056-0.32,0.132-0.417,0.242c-0.098,0.11-0.202,0.24-0.313,0.388c-0.021,0.025-0.035,0.043-0.051,0.059
				c-0.019,0.016-0.033,0.043-0.052,0.066c-3.064,4.005-4.596,6.003-7.66,10.008c-0.028,0.035-0.057,0.061-0.071,0.082
				c-0.016,0.018-0.025,0.041-0.043,0.064c-0.123,0.161-0.227,0.311-0.317,0.456c-0.089,0.148-0.119,0.339-0.102,0.571
				c0.013,0.164,0.104,0.365,0.27,0.604c0.167,0.237,0.384,0.479,0.567,0.711c0.032,0.041,0.053,0.086,0.078,0.127
				c0.028,0.038,0.069,0.076,0.104,0.109c0.077,0.082,0.165,0.211,0.248,0.327c0.08,0.112,0.156,0.214,0.22,0.306
				c0.133,0.196,0.19,0.298,0.326,0.497c-2.865-2.264-4.308-3.365-7.227-5.527c0.236,0.094,0.362,0.143,0.599,0.237
				c0.123,0.072,0.27,0.146,0.451,0.222c0.174,0.074,0.365,0.164,0.546,0.235c0.165,0.063,0.359,0.117,0.536,0.183
				c0.172,0.063,0.344,0.109,0.486,0.153c0.089,0.025,0.184,0.045,0.27,0.051c0.082,0.005,0.159,0.013,0.198,0.005
				c0.053-0.008,0.113-0.033,0.161-0.054c0.049-0.021,0.115-0.034,0.161-0.056c0.079-0.033,0.166-0.112,0.232-0.184
				c0.061-0.072,0.119-0.145,0.173-0.217c0.041-0.051,0.082-0.107,0.125-0.166c0.046-0.056,0.09-0.112,0.141-0.173
				c1.407-1.866,2.109-2.796,3.517-4.66c-3.762-2.858-5.666-4.242-9.516-6.929c-1.335,1.917-2.004,2.875-3.338,4.792
				c-0.152,0.216-0.268,0.408-0.354,0.581c-0.089,0.176-0.107,0.395-0.073,0.645c0.02,0.164,0.111,0.362,0.29,0.591
				c0.177,0.229,0.397,0.456,0.591,0.681c0.034,0.039,0.063,0.086,0.089,0.125c0.028,0.041,0.066,0.069,0.104,0.103
				c0.101,0.086,0.192,0.216,0.271,0.321c0.082,0.104,0.155,0.202,0.225,0.291c0.15,0.196,0.217,0.293,0.368,0.489
				c-2.953-2.113-4.442-3.146-7.447-5.155c0.24,0.084,0.37,0.123,0.606,0.207c0.126,0.063,0.275,0.133,0.46,0.202
				c0.182,0.066,0.372,0.146,0.553,0.201c0.171,0.056,0.356,0.102,0.534,0.161c0.18,0.054,0.35,0.089,0.498,0.123
				c0.083,0.021,0.179,0.038,0.265,0.041c0.088,0.005,0.164,0.008,0.199-0.005c0.079-0.018,0.168-0.064,0.248-0.095
				c0.076-0.035,0.14-0.076,0.197-0.132c0.057-0.054,0.116-0.11,0.164-0.167c0.051-0.059,0.087-0.112,0.125-0.166
				c0.025-0.038,0.061-0.068,0.082-0.102c0.02-0.03,0.045-0.063,0.055-0.087c0.016-0.038,0.028-0.089,0.053-0.125
				c0.025-0.031,0.042-0.057,0.058-0.082c2.821-4.123,4.231-6.185,7.054-10.307c0.008-0.013,0.021-0.033,0.044-0.069
				c0.021-0.03,0.071-0.059,0.1-0.089c0.017-0.019,0.038-0.057,0.063-0.095c0.025-0.041,0.051-0.074,0.073-0.112
				c0.038-0.054,0.073-0.104,0.098-0.159c0.022-0.048,0.035-0.106,0.056-0.163c0.03-0.084,0.063-0.178,0.079-0.27
				c0.019-0.092,0.025-0.194,0-0.293c-0.01-0.043-0.036-0.112-0.071-0.191c-0.038-0.082-0.092-0.164-0.151-0.242
				c-0.089-0.13-0.19-0.278-0.318-0.432c-0.127-0.15-0.25-0.311-0.371-0.459c-0.131-0.152-0.289-0.305-0.429-0.453
				c-0.138-0.15-0.265-0.278-0.372-0.385c-0.174-0.207-0.255-0.313-0.426-0.52c3.179,2.126,4.752,3.223,7.883,5.463
				c-0.25-0.077-0.375-0.118-0.625-0.194c-0.13-0.016-0.271-0.054-0.41-0.117c-0.143-0.059-0.299-0.151-0.444-0.202
				c-0.038-0.01-0.069-0.022-0.107-0.038s-0.086-0.023-0.121-0.033c-0.276-0.094-0.582-0.252-0.87-0.352
				c-0.285-0.1-0.53-0.148-0.665-0.11c-0.03,0.008-0.063,0.021-0.103,0.026c-0.035,0.002-0.074,0.015-0.109,0.027
				c-0.184,0.079-0.339,0.179-0.457,0.314c-0.117,0.135-0.234,0.288-0.358,0.467c-1.224,1.756-1.84,2.636-3.064,4.393
				c3.864,2.7,5.782,4.096,9.563,6.964c1.29-1.706,1.935-2.562,3.225-4.271c0.041-0.051,0.095-0.109,0.148-0.175
				c0.051-0.069,0.089-0.133,0.127-0.181c0.095-0.125,0.176-0.25,0.234-0.375c0.059-0.125,0.077-0.286,0.041-0.459
				c-0.01-0.046-0.033-0.115-0.063-0.197c-0.031-0.079-0.076-0.163-0.13-0.245c-0.085-0.13-0.189-0.288-0.307-0.446
				c-0.119-0.158-0.233-0.332-0.351-0.481c-0.128-0.163-0.282-0.321-0.412-0.477c-0.131-0.158-0.254-0.291-0.354-0.405
				c-0.165-0.216-0.247-0.324-0.41-0.538c3.089,2.287,4.622,3.455,7.655,5.851c-0.24-0.082-0.362-0.12-0.6-0.201
				c-0.127-0.023-0.262-0.069-0.4-0.143c-0.137-0.066-0.298-0.166-0.442-0.227c-0.037-0.016-0.066-0.028-0.102-0.046
				c-0.037-0.018-0.079-0.028-0.113-0.041c-0.274-0.109-0.589-0.283-0.871-0.393c-0.286-0.112-0.502-0.16-0.661-0.145
				C684.834,88.305,684.842,88.303,684.844,88.295z"/>
			<path fill="#FFFFFF" d="M698.527,98.638c-0.035,0.099-0.062,0.214-0.1,0.295c-0.044,0.089-0.102,0.186-0.133,0.28
				c-0.035,0.097-0.076,0.209-0.124,0.327c-0.248,0.649-0.536,1.626-0.921,2.842c-0.38,1.216-0.77,2.48-1.175,3.793
				c-0.023,0.082-0.054,0.161-0.071,0.248c-0.025,0.081-0.047,0.173-0.066,0.252c-0.47,1.576-0.964,3.067-1.374,4.431
				c-0.41,1.364-0.658,2.266-0.769,2.657c-0.035,0.127-0.077,0.252-0.102,0.356c-0.02,0.104-0.038,0.217-0.068,0.334
				c-0.028,0.081-0.056,0.168-0.074,0.267c-0.018,0.1-0.027,0.207-0.053,0.314c-0.037,0.175,0.015,0.405,0.143,0.686
				c0.128,0.283,0.262,0.604,0.438,0.879c0.038,0.059,0.084,0.128,0.117,0.199c0.03,0.074,0.068,0.143,0.112,0.201
				c0.029,0.049,0.055,0.1,0.076,0.148c0.019,0.046,0.038,0.092,0.066,0.143c0.119,0.212,0.173,0.319,0.293,0.53
				c-2.383-2.208-3.576-3.294-6.006-5.417c0.272,0.118,0.405,0.181,0.683,0.299c0.092,0.059,0.196,0.112,0.321,0.16
				c0.126,0.051,0.266,0.105,0.403,0.166c0.24,0.107,0.479,0.194,0.705,0.255c0.23,0.061,0.453,0.053,0.559-0.033
				c0.01-0.008,0.044-0.005,0.057-0.01c0.007-0.003,0.013-0.023,0.019-0.028c0.004-0.005,0.014-0.01,0.025-0.023
				c0.053-0.056,0.099-0.148,0.157-0.266c0.057-0.117,0.088-0.25,0.126-0.352c0.02-0.054,0.055-0.112,0.073-0.158
				c0.02-0.046,0.032-0.095,0.051-0.138c0.022-0.056,0.051-0.12,0.063-0.181c0.016-0.059,0.033-0.109,0.051-0.156
				c0.602-1.797,0.899-2.692,1.483-4.497c-2.074-1.817-3.112-2.717-5.218-4.479c-1.709,0.831-2.557,1.253-4.25,2.103
				c-0.045,0.026-0.083,0.041-0.105,0.054c-0.024,0.01-0.047,0.043-0.063,0.053c-0.046,0.033-0.13,0.057-0.201,0.1
				c-0.069,0.043-0.14,0.092-0.202,0.138c-0.14,0.099-0.284,0.188-0.413,0.286c-0.124,0.097-0.216,0.178-0.265,0.237
				c-0.01,0.013-0.013,0.021-0.018,0.027c-0.005,0.008-0.023,0.016-0.027,0.026c-0.054,0.107,0.004,0.329,0.111,0.53
				c0.103,0.199,0.229,0.458,0.38,0.63c0.021,0.022,0.049,0.049,0.074,0.076c0.022,0.031,0.036,0.059,0.043,0.077
				c0.028,0.074,0.098,0.16,0.155,0.237c0.054,0.077,0.107,0.15,0.146,0.219c0.166,0.26,0.245,0.388,0.41,0.647
				c-2.271-1.904-3.425-2.84-5.73-4.68c0.232,0.092,0.355,0.138,0.587,0.227c0.116,0.056,0.252,0.109,0.4,0.173
				c0.15,0.056,0.287,0.114,0.43,0.168c0.296,0.118,0.6,0.217,0.886,0.293c0.285,0.074,0.509,0.082,0.665,0.033
				c0.086-0.025,0.171-0.053,0.25-0.091c0.073-0.038,0.158-0.076,0.222-0.097c0.051-0.019,0.109-0.031,0.153-0.054
				c0.043-0.023,0.092-0.061,0.143-0.089c0.058-0.028,0.133-0.057,0.19-0.087c0.059-0.033,0.131-0.069,0.204-0.102
				c0.436-0.193,0.918-0.39,1.395-0.609c0.475-0.219,0.969-0.451,1.464-0.672c0.251-0.11,0.512-0.222,0.774-0.334
				c0.264-0.115,0.53-0.229,0.798-0.352c2.007-0.915,3.871-1.79,5.596-2.61c1.726-0.816,2.836-1.339,3.281-1.581
				c0.146-0.079,0.272-0.15,0.391-0.214c0.117-0.063,0.254-0.13,0.338-0.204c0.031-0.025,0.062-0.054,0.103-0.074
				c0.039-0.016,0.078-0.054,0.106-0.074c0.054-0.04,0.158-0.081,0.24-0.13c0.081-0.053,0.166-0.109,0.239-0.167
				c0.597,0.494,0.883,0.742,1.474,1.239C698.609,98.426,698.561,98.538,698.527,98.638z M695.623,99.642
				c-2.461,1.088-3.685,1.639-6.117,2.769c1.734,1.458,2.604,2.198,4.316,3.697C694.565,103.53,694.921,102.235,695.623,99.642z"/>
			<path fill="#FFFFFF" d="M708.372,119.855c-0.185-0.132-0.279-0.196-0.467-0.332c0.089,1.698,0.124,2.542,0.19,4.232
				c0.009,0.47,0.019,0.91,0.028,1.305c0.01,0.398,0.025,0.798,0.022,1.17c0,0.104,0.003,0.214,0.012,0.321
				c0.007,0.11,0.01,0.225,0.01,0.327c0.003,0.291,0.038,0.611,0.066,0.933c0.027,0.321,0.051,0.67,0.084,1.022
				c0.021,0.204,0.044,0.39,0.054,0.545c0.01,0.156,0.02,0.317,0.051,0.47c0.016,0.084,0.038,0.173,0.048,0.252
				c0.01,0.076,0.034,0.168,0.063,0.267c0.051,0.181,0.105,0.391,0.178,0.615c0.074,0.225,0.176,0.502,0.303,0.838
				c0.128,0.295,0.199,0.449,0.324,0.743c-0.306-0.217-0.458-0.327-0.766-0.543c-0.035-0.015-0.073-0.043-0.114-0.087
				c-0.038-0.038-0.083-0.084-0.134-0.138c-0.204-0.216-0.429-0.515-0.669-0.885c-0.242-0.375-0.491-0.772-0.706-1.188
				c-0.245-0.469-0.391-1.213-0.461-2.171c-0.072-0.959-0.126-1.963-0.174-3.021c-0.003-0.022-0.005-0.043-0.013-0.061
				s0.008-0.041,0.01-0.049c0.047-0.118-0.043-0.426-0.051-0.627c-0.005-0.204-0.013-0.413-0.018-0.614
				c-0.136-2.182-0.209-3.275-0.383-5.465c-0.22-0.214-0.325-0.319-0.545-0.533c-1.53,1.576-2.295,2.363-3.823,3.938
				c-0.185,0.189-0.333,0.362-0.447,0.521c-0.114,0.158-0.166,0.377-0.168,0.632c-0.003,0.161,0.063,0.377,0.209,0.64
				c0.148,0.26,0.329,0.525,0.489,0.785c0.028,0.046,0.054,0.097,0.076,0.141c0.025,0.043,0.057,0.084,0.089,0.123
				c0.085,0.104,0.159,0.247,0.223,0.369c0.063,0.117,0.127,0.225,0.181,0.326c0.12,0.225,0.184,0.339,0.304,0.564
				c-2.66-2.647-4.003-3.941-6.723-6.483c0.229,0.125,0.347,0.188,0.575,0.316c0.118,0.091,0.261,0.183,0.429,0.28
				c0.174,0.1,0.355,0.209,0.53,0.303c0.177,0.097,0.362,0.186,0.533,0.275c0.171,0.087,0.343,0.146,0.461,0.196
				c0.095,0.038,0.194,0.084,0.273,0.095c0.082,0.01,0.143,0.018,0.189,0.02c0.127,0.002,0.252-0.031,0.359-0.091
				c0.105-0.062,0.213-0.128,0.3-0.207c0.062-0.056,0.125-0.127,0.181-0.191c0.06-0.061,0.123-0.122,0.187-0.186
				c0.01-0.013,0.025-0.033,0.045-0.056c0.024-0.023,0.044-0.041,0.057-0.051c3.468-3.636,5.202-5.45,8.668-9.083
				c0.138-0.146,0.261-0.288,0.356-0.434c0.098-0.143,0.142-0.329,0.13-0.545c-0.007-0.181-0.083-0.419-0.221-0.707
				c-0.139-0.291-0.294-0.594-0.456-0.892c-0.098-0.176-0.2-0.347-0.296-0.513c-0.098-0.166-0.184-0.321-0.266-0.464
				c-0.132-0.234-0.194-0.354-0.324-0.588c1.549,1.442,2.313,2.174,3.84,3.653c0.199,0.216,0.396,0.405,0.584,0.578
				c0.187,0.168,0.378,0.337,0.568,0.505c0.028,0.026,0.054,0.054,0.079,0.08c0.028,0.028,0.058,0.056,0.086,0.081
				c0.156,0.148,0.306,0.298,0.464,0.441c0.162,0.143,0.317,0.3,0.488,0.464c0.15,0.15,0.309,0.303,0.464,0.469
				c0.155,0.164,0.328,0.339,0.491,0.53c0.098,0.115,0.189,0.24,0.284,0.357c0.09,0.113,0.193,0.23,0.284,0.352
				c0.694,0.908,1.11,2.083,1.25,3.335c0.143,1.249-0.281,2.353-1.268,3.312c-0.755,0.734-1.578,1.073-2.452,1.034
				c-0.88-0.038-1.692-0.214-2.447-0.538c-0.341-0.145-0.658-0.31-0.964-0.486c-0.307-0.173-0.591-0.339-0.834-0.495
				C708.36,119.871,708.365,119.866,708.372,119.855z M713.155,113.154c-0.051-0.028-0.095-0.067-0.127-0.1
				c-0.034-0.032-0.054-0.079-0.075-0.106c-0.025-0.039-0.076-0.077-0.111-0.11c-0.032-0.033-0.069-0.074-0.114-0.114
				c-0.013-0.013-0.028-0.026-0.041-0.044c-0.013-0.015-0.028-0.025-0.041-0.038c-0.265-0.258-0.538-0.495-0.811-0.706
				c-0.271-0.212-0.464-0.334-0.589-0.373c-0.189-0.053-0.357-0.033-0.484,0.057c-0.128,0.086-0.251,0.201-0.368,0.323
				c-0.01,0.01-0.014,0.018-0.02,0.023c-0.006,0.005-0.016,0.01-0.028,0.022c-1.741,1.797-2.615,2.698-4.357,4.492
				c0.391,0.367,0.593,0.548,0.978,0.918c1.067,1.045,2.218,1.718,3.459,2.014c1.244,0.295,2.243,0.059,3.011-0.724
				c0.032-0.033,0.071-0.059,0.104-0.092c0.033-0.03,0.074-0.066,0.103-0.097c0.601-0.663,0.844-1.578,0.742-2.524
				c-0.104-0.948-0.517-1.792-0.993-2.485c-0.029-0.049-0.067-0.102-0.114-0.161c-0.043-0.051-0.097-0.107-0.15-0.161
				C713.142,113.163,713.147,113.161,713.155,113.154z"/>
		</g>
	</g>
</g>
</svg>
