<?xml version="1.0" encoding="utf-8"?>
<!-- Generator: Adobe Illustrator 16.0.0, SVG Export Plug-In . SVG Version: 6.00 Build 0)  -->
<!DOCTYPE svg PUBLIC "-//W3C//DTD SVG 1.1//EN" "http://www.w3.org/Graphics/SVG/1.1/DTD/svg11.dtd">
<svg version="1.1" id="Layer_1" xmlns="http://www.w3.org/2000/svg" xmlns:xlink="http://www.w3.org/1999/xlink" x="0px" y="0px"
	 width="960px" height="560px" viewBox="0 0 960 560" enable-background="new 0 0 960 560" xml:space="preserve">
<g id="logo">
	<path id="Janela" fill="none" stroke="#000000" stroke-width="3" stroke-miterlimit="10" d="M497.27,144.856
		c60.314,0,109.207,48.796,109.207,108.987c0,60.194-48.893,108.987-109.207,108.987c-60.311,0-109.202-48.793-109.202-108.987
		C388.068,193.652,436.959,144.856,497.27,144.856z"/>
	<path id="chapéu" d="M551.149,214.077L551.149,214.077c0,0-4.711-8.324-3.405-11.362c0,0-0.98-22.78-45.687-14.459
		c0,0,3.971-16.099,8.322-26.104c0,0,45.028-4.405,59.553,32.958C569.93,195.108,560.862,209.331,551.149,214.077z"/>
	<g>
		<path stroke="#FFFFFF" stroke-width="0.3" stroke-miterlimit="10" d="M565.689,268.201c17.457-4.568,55.146-30.184,36.546-43.889
			c-9.295-6.849-30.347,3.916-44.051,0.591c0,0-11.748-15.228-10.443-22.189c0,0-1.632-22.453-45.684-14.459
			c0,0-11.586,7.997-15.01,12.239c0,0-25.452-4.242-36.221,5.873c0,0-19.579,0.979-24.965,7.505
			c-2.338,2.837-11.26,21.7,21.21,23.005c0,0,5.698,20.095,40.462,26.923c0,0,28.654,26.592-33.561,36.381
			c-2.708,0.426-9.204-0.388-5.271-7.502c1.876-3.392,3.197-9.054-0.166-15.499c-2.191-4.209-4.666-6.2,5.79-14.645
			c7.47-6.035-11.826-13.621-15.905,15.622c0,0-14.848,4.079-8.32-14.031c0,0,30.836-19.201,0.489-12.564
			c-5.03,1.098-12.777,10.354-12.5,16.71c0,0-14.663-5.126-6.505-14.426c2.438-2.779,4.142-14.075-1.999-12.236
			c-0.771,0.229-12.936,10.174-5.754,24.962l2.775,8.484c-2.687-0.543-8.26-10.616-10.934-7.281
			c-1.957,2.45-0.821,10.544,16.315,19.843c17.563,9.525,15.828,38.832,87.539,42.746c1.359,0.074,17.398,7.832,16.585,26.27
			c0.001-0.004,49.085-6.036,74.536-55.477C590.651,301.158,558.53,270.075,565.689,268.201z M543.823,275.024
			c-0.678-1.048-1.496-2.323-2.438-3.783c-0.869-1.504-2.187-2.973-3.44-4.691c-0.641-0.846-1.317-1.729-2.01-2.641
			c-0.673-0.93-1.411-1.851-2.276-2.715c-1.682-1.759-3.365-3.691-5.221-5.57c-1.979-1.761-3.949-3.652-6.068-5.436
			c-2.242-1.623-4.354-3.514-6.768-4.968c-2.373-1.511-4.695-3.111-7.201-4.307c-1.239-0.62-2.423-1.328-3.653-1.896
			c-1.247-0.546-2.477-1.086-3.687-1.619c-2.417-1.073-4.857-1.852-7.135-2.698c-2.336-0.666-4.523-1.404-6.609-1.812
			c-1.574-0.382-3.059-0.694-4.433-0.953c0.418,0.092,0.844,0.191,1.278,0.303c1.622,0.362,3.344,0.874,5.163,1.438
			c1.823,0.548,3.704,1.274,5.632,2.052c1.868,0.916,3.904,1.66,5.775,2.81c0.954,0.535,1.915,1.078,2.884,1.624
			c0.945,0.582,1.855,1.227,2.785,1.836c1.883,1.201,3.583,2.642,5.278,4.032c1.764,1.313,3.167,2.983,4.67,4.421
			c1.55,1.404,2.665,3.118,3.888,4.576c1.238,1.456,2.193,2.985,3.08,4.388c0.883,1.407,1.762,2.649,2.322,3.877
			c0.578,1.213,1.079,2.274,1.493,3.146c0.818,1.742,1.251,2.746,1.251,2.746s-0.615-0.91-1.693-2.501
			c-0.521-0.798-1.15-1.768-1.877-2.878c-0.714-1.114-1.746-2.224-2.691-3.538c-0.977-1.298-2.021-2.708-3.346-4.019
			c-1.304-1.32-2.516-2.857-4.053-4.173c-1.504-1.343-2.949-2.845-4.653-4.104c-1.651-1.321-3.311-2.68-5.14-3.816
			c-0.89-0.6-1.756-1.236-2.661-1.805c-0.925-0.54-1.845-1.075-2.764-1.608c-1.795-1.122-3.709-1.965-5.491-2.919
			c-1.851-0.798-3.603-1.688-5.332-2.36c-1.447-0.578-2.83-1.114-4.156-1.56c0.66,0.25,1.33,0.517,2.015,0.831
			c2.032,0.785,4.106,1.901,6.35,3.016c2.149,1.251,4.498,2.5,6.69,4.129c1.102,0.812,2.222,1.632,3.355,2.466
			c1.134,0.833,2.146,1.843,3.229,2.786c2.221,1.839,4.138,4.047,6.118,6.19c1.027,1.047,1.873,2.238,2.73,3.416
			c0.854,1.172,1.713,2.337,2.563,3.495c1.595,2.386,2.873,4.92,4.261,7.268c1.219,2.439,2.143,4.92,3.131,7.207
			c0.523,1.138,0.873,2.296,1.192,3.43c0.334,1.122,0.657,2.208,0.966,3.244c0.614,2.087,1.239,3.974,1.438,5.734
			c0.287,1.732,0.54,3.244,0.746,4.49c0.382,2.485,0.598,3.906,0.598,3.906s-0.396-1.38-1.096-3.804
			c-0.328-1.207-0.729-2.67-1.19-4.354c-0.376-1.697-1.188-3.502-1.894-5.517c-0.367-1.004-0.75-2.045-1.146-3.126
			c-0.38-1.083-0.79-2.197-1.374-3.272c-1.105-2.175-2.175-4.516-3.403-6.855c-1.407-2.246-2.776-4.625-4.313-6.929
			c-0.832-1.108-1.677-2.228-2.519-3.352c-0.835-1.126-1.665-2.271-2.665-3.27c-1.892-2.087-3.717-4.244-5.842-6.039
			c-1.041-0.915-1.995-1.922-3.064-2.766c-1.07-0.839-2.128-1.67-3.173-2.488c-1.013-0.859-2.128-1.529-3.177-2.261
			c-1.063-0.708-2.067-1.466-3.115-2.085c-1.831-1.055-3.551-2.104-5.242-2.946c0.584,0.369,1.176,0.748,1.79,1.131
			c1.563,1.157,3.31,2.296,4.85,3.778c0.79,0.727,1.585,1.469,2.395,2.218c0.788,0.772,1.494,1.636,2.24,2.48
			c1.559,1.636,2.781,3.576,4.125,5.432c1.285,1.892,2.229,3.987,3.346,5.942c0.918,2.053,1.648,4.143,2.445,6.126
			c0.598,2.047,1.055,4.061,1.524,5.949c0.463,1.895,0.556,3.75,0.821,5.417c0.235,1.681,0.438,3.216,0.366,4.597
			c0,1.371-0.001,2.567-0.001,3.55c-0.037,1.961-0.055,3.08-0.055,3.08s-0.166-1.109-0.453-3.051
			c-0.129-0.968-0.278-2.138-0.457-3.485c-0.114-1.349-0.519-2.83-0.852-4.454c-0.393-1.611-0.62-3.401-1.221-5.201
			c-0.588-1.792-1.203-3.683-1.844-5.639c-0.824-1.878-1.679-3.813-2.546-5.787c-1.09-1.849-2.018-3.837-3.266-5.621
			c-1.254-1.782-2.391-3.653-3.859-5.226c-0.704-0.809-1.354-1.66-2.066-2.434c-0.742-0.747-1.478-1.479-2.202-2.208
			c-1.441-1.458-2.996-2.696-4.418-3.938c-1.514-1.122-2.912-2.25-4.332-3.103c-2.763-1.82-5.202-3.155-6.964-3.986
			c-0.552-0.268-1.025-0.484-1.427-0.664c-1.243-0.401-1.95-0.583-1.95-0.583s0.297,0.026,0.844,0.108
			c-0.173-0.069-0.273-0.108-0.273-0.108s1-0.339,2.763-0.875c1.768-0.507,4.304-1.285,7.439-1.843
			c1.567-0.269,3.271-0.554,5.091-0.72c1.817-0.257,3.76-0.274,5.765-0.334c2.004,0.139,4.094,0.062,6.183,0.459
			c1.045,0.17,2.115,0.263,3.158,0.511l3.145,0.776c1.058,0.222,2.046,0.688,3.06,1.051c0.994,0.413,2.036,0.708,2.977,1.213
			c1.863,1.029,3.8,1.882,5.384,3.161c0.815,0.601,1.616,1.187,2.403,1.765c0.787,0.57,1.396,1.32,2.074,1.944
			c1.314,1.295,2.59,2.48,3.506,3.813c0.982,1.264,1.881,2.424,2.584,3.503c0.625,1.131,1.17,2.121,1.619,2.934
			c0.883,1.626,1.35,2.561,1.35,2.561s-0.646-0.831-1.777-2.287c-0.548-0.729-1.211-1.619-1.975-2.633
			c-0.862-0.923-1.838-1.966-2.899-3.101c-0.984-1.206-2.313-2.237-3.666-3.364c-1.295-1.207-2.89-2.165-4.486-3.213
			c-1.523-1.167-3.421-1.819-5.164-2.792c-0.889-0.464-1.877-0.718-2.813-1.096c-0.959-0.326-1.888-0.757-2.891-0.948l-2.954-0.777
			c-0.983-0.25-2.002-0.345-2.99-0.525c-1.977-0.393-3.973-0.458-5.887-0.657c-1.928,0.011-3.799-0.171-5.574-0.066
			c-1.784,0.01-3.466,0.145-5.022,0.279c-3.1,0.312-5.71,0.584-7.526,0.888c-1.304,0.186-2.201,0.297-2.612,0.345
			c0.515-0.054,1.79-0.163,3.687-0.161c1.257,0.007,2.786,0.053,4.538,0.173c1.75,0.141,3.734,0.295,5.86,0.708
			c2.148,0.286,4.418,0.896,6.854,1.431c2.37,0.716,4.946,1.333,7.451,2.386c1.265,0.505,2.546,1.021,3.847,1.542
			c1.293,0.541,2.535,1.23,3.814,1.869c2.596,1.21,5.016,2.83,7.479,4.367c2.478,1.526,4.639,3.498,6.934,5.2
			c2.187,1.839,4.114,3.902,6.096,5.76c1.868,1.968,3.456,4.073,5.054,5.973c0.819,0.931,1.517,1.917,2.144,2.909
			c0.646,0.969,1.271,1.907,1.871,2.81c1.19,1.805,2.351,3.413,3.071,5.026c0.791,1.561,1.48,2.924,2.053,4.046
			c1.104,2.248,1.732,3.533,1.732,3.533S545.205,277.116,543.823,275.024z"/>
		<path fill="#603A26" stroke="#FFFFFF" stroke-width="0.3" stroke-miterlimit="10" d="M473.844,230.886
			c0.182,0.04,0.396,0.089,0.657,0.154c0.129,0.023,0.261,0.048,0.402,0.075C474.457,231.015,474.115,230.942,473.844,230.886z"/>
	</g>
	<g id="fio_1_">
		<path fill="#FFFFFF" d="M470.078,203.376c0,0-15.825-21.646-25.941-22.46"/>
		<path d="M467.978,204.927c0,0-1.109-1.792-2.974-4.456c-1.857-2.648-4.427-6.139-7.271-9.382c-1.428-1.61-2.897-3.198-4.382-4.564
			c-1.478-1.374-2.93-2.595-4.299-3.444c-0.665-0.466-1.299-0.847-1.901-1.098c-0.597-0.276-1.102-0.584-1.57-0.666
			c-0.923-0.255-1.447-0.397-1.447-0.397s0.546,0.063,1.502,0.185c0.494,0.015,1.038,0.239,1.689,0.431
			c0.663,0.173,1.372,0.464,2.122,0.834c1.542,0.665,3.209,1.693,4.936,2.873c1.733,1.173,3.473,2.563,5.18,3.993
			c3.404,2.878,6.544,6.032,8.849,8.451c2.29,2.407,3.768,4.145,3.768,4.143L467.978,204.927z"/>
	</g>
	<g id="fio">
		<path fill="#FFFFFF" d="M464.308,203.376c0,0-15.005-17.403-20.173-17.403"/>
		<path d="M462.334,205.086c0,0-3.85-5.46-8.198-10.557c-2.171-2.545-4.466-4.989-6.396-6.575c-0.497-0.375-0.956-0.716-1.358-1.02
			c-0.441-0.245-0.826-0.458-1.146-0.638c-0.675-0.221-1.101-0.325-1.101-0.325s0.413,0.018,1.17,0.114
			c0.358,0.117,0.797,0.261,1.297,0.424c0.474,0.227,1.007,0.486,1.588,0.765c2.276,1.23,5.07,3.243,7.754,5.374
			c5.367,4.262,10.335,9.017,10.335,9.017L462.334,205.086z"/>
	</g>
	<path stroke="#FFFFFF" stroke-width="0.5" stroke-miterlimit="10" d="M601.689,106.135c0,0-12.216-8.148-27.513-4.65
		c0,0-16.976-22.604-30.188-22.544c0,0-34.429-5.221-34.429,81.417c0,0,47.424-6.424,62.325,34.262l1.089-1.04
		C572.974,193.581,655.421,138.822,601.689,106.135z M532.573,114.267c-0.998,2.31-1.797,4.714-2.604,6.958
		c-0.736,2.273-1.422,4.396-2.01,6.217c-1.153,3.697-1.919,6.16-1.919,6.16s-0.024-0.653,0.031-1.79
		c0.083-1.129,0.149-2.761,0.434-4.688c0.253-1.936,0.688-4.171,1.27-6.544c0.344-1.172,0.62-2.409,1.048-3.623
		c0.437-1.21,0.816-2.463,1.341-3.671c1.014-2.419,2.176-4.803,3.585-6.858c0.613-1.076,1.447-1.979,2.161-2.868
		c0.666-0.927,1.578-1.588,2.286-2.279c0.685-0.73,1.573-1.123,2.23-1.573c0.658-0.464,1.313-0.736,1.867-0.92
		c1.082-0.406,1.692-0.592,1.692-0.592s-0.537,0.408-1.449,1.035c-0.477,0.288-1.017,0.673-1.533,1.257
		c-0.516,0.581-1.21,1.071-1.753,1.851c-0.55,0.768-1.265,1.467-1.802,2.404c-0.565,0.915-1.213,1.82-1.739,2.875
		c-0.582,1.015-1.121,2.093-1.637,3.217C533.515,111.932,533.037,113.097,532.573,114.267z M550.476,111.594
		c-0.392,0.204-0.738,0.667-1.189,1.078c-0.46,0.4-0.892,0.948-1.355,1.553c-0.951,1.163-1.896,2.677-2.855,4.315
		c-0.524,0.79-0.907,1.721-1.426,2.577c-0.492,0.874-0.92,1.813-1.39,2.72c-1.833,3.674-3.535,7.452-4.898,10.271
		c-1.339,2.83-2.347,4.714-2.347,4.714s0.168-2.133,0.94-5.211c0.369-1.545,0.896-3.319,1.559-5.188
		c0.646-1.876,1.502-3.817,2.414-5.742c0.986-1.887,2.015-3.761,3.218-5.39c0.591-0.822,1.17-1.603,1.826-2.278
		c0.609-0.707,1.229-1.333,1.887-1.837c0.609-0.547,1.213-0.992,1.822-1.299c0.588-0.326,1.058-0.645,1.55-0.739
		c0.925-0.266,1.427-0.376,1.427-0.376S551.229,111.063,550.476,111.594z M570.606,166.082c0,0,1.195-1.535,3.021-3.709
		c0.904-1.086,1.957-2.351,3.087-3.709c1.094-1.372,2.313-2.784,3.396-4.285c1.166-1.444,2.187-2.979,3.136-4.413
		c0.932-1.449,1.695-2.85,2.301-4.094c0.318-0.619,0.488-1.221,0.723-1.744c0.235-0.526,0.354-1.005,0.452-1.401
		c0.231-0.816,0.365-1.277,0.365-1.277s0.071,0.467,0.154,1.325c0.041,0.431,0.103,0.967,0.01,1.556
		c-0.078,0.591-0.078,1.3-0.276,2.015c-0.19,0.708-0.347,1.521-0.666,2.308c-0.328,0.775-0.595,1.652-1.058,2.449
		c-0.445,0.8-0.834,1.688-1.398,2.466c-0.523,0.81-1.063,1.626-1.663,2.394c-2.373,3.101-5.21,5.757-7.525,7.495
		C572.362,165.219,570.606,166.082,570.606,166.082z M606.884,136.025c-0.079,0.716-0.104,1.615-0.389,2.581
		c-0.254,0.971-0.461,2.113-0.887,3.286c-0.464,1.149-0.923,2.43-1.54,3.722c-0.68,1.249-1.333,2.621-2.172,3.928
		c-0.884,1.272-1.672,2.697-2.713,3.952c-1.009,1.274-1.998,2.61-3.109,3.826c-2.175,2.488-4.538,4.788-6.845,6.83
		c-2.306,2.042-4.573,3.811-6.577,5.239c-1.996,1.435-3.749,2.5-4.966,3.255c-1.226,0.745-1.963,1.108-1.963,1.108
		s2.446-2.177,5.984-5.517c1.767-1.67,3.816-3.618,5.948-5.759c2.112-2.16,4.394-4.432,6.457-6.881
		c1.104-1.167,2.08-2.431,3.078-3.648c1.013-1.211,1.877-2.479,2.789-3.671c0.857-1.227,1.604-2.455,2.378-3.592
		c0.664-1.195,1.291-2.33,1.87-3.372c0.531-1.071,0.913-2.099,1.333-2.991c0.451-0.884,0.622-1.721,0.825-2.396
		c0.394-1.356,0.661-2.149,0.661-2.149S607.014,134.588,606.884,136.025z"/>
	<line fill="none" stroke="#000000" stroke-miterlimit="10" x1="202.719" y1="483.783" x2="797.907" y2="483.783"/>
	<polygon points="302.975,513.132 308.993,525.32 322.442,527.273 312.711,536.761 315.008,550.162 302.975,543.834 
		290.945,550.162 293.245,536.761 283.509,527.273 296.961,525.32 	"/>
	<polygon points="700.202,512.888 706.223,525.08 719.67,527.031 709.941,536.519 712.238,549.916 700.202,543.593 688.174,549.916 
		690.474,536.519 680.737,527.031 694.191,525.08 	"/>
	<polygon points="591,513.132 597.019,525.32 610.466,527.273 600.736,536.761 603.031,550.162 591,543.834 578.969,550.162 
		581.269,536.761 571.532,527.273 584.987,525.32 	"/>
	<polygon points="396.305,512.89 402.323,525.082 415.772,527.035 406.039,536.523 408.338,549.921 396.305,543.594 
		384.275,549.921 386.573,536.523 376.839,527.035 390.29,525.082 	"/>
	<polygon points="493.538,513.132 499.559,525.32 513.006,527.273 503.277,536.761 505.573,550.162 493.538,543.834 481.51,550.162 
		483.81,536.761 474.073,527.273 487.527,525.32 	"/>
</g>
<g id="texto">
	<g>
		<path d="M370.848,453.519c0,0.533,0.048,1.041,0.147,1.521c0.093,0.482,0.309,0.894,0.65,1.23c0.288,0.291,0.675,0.486,1.154,0.58
			c0.483,0.098,0.967,0.168,1.45,0.217c0.146,0,0.266,0,0.362,0s0.191,0,0.291,0l8.896-0.07c0.337,0.048,0.69,0.062,1.05,0.035
			c0.362-0.022,0.733-0.082,1.122-0.178c0.483-0.049,0.963-0.148,1.45-0.289c0.479-0.146,0.89-0.336,1.229-0.578
			c0.675-0.436,1.184-0.988,1.521-1.668c0.336-0.676,0.652-1.422,0.938-2.24c0.051-0.192,0.11-0.377,0.181-0.543
			c0.074-0.168,0.134-0.325,0.182-0.475l0.938-2.674v12.158h-36.832l1.665-0.509c0.382-0.047,0.832-0.145,1.338-0.287
			c0.511-0.143,1.027-0.288,1.559-0.438c0.481-0.188,0.964-0.373,1.448-0.541c0.48-0.168,0.918-0.35,1.303-0.543
			c0.242-0.094,0.459-0.219,0.651-0.361c0.191-0.145,0.338-0.266,0.435-0.36c0.097-0.148,0.181-0.291,0.252-0.437
			c0.074-0.146,0.161-0.289,0.257-0.434c0.094-0.289,0.156-0.582,0.178-0.869c0.023-0.289,0.038-0.582,0.038-0.867
			c0-0.192,0-0.397,0-0.617c0-0.217,0-0.442,0-0.686v-39.3c0-0.047,0-0.131,0-0.254c0-0.121,0.023-0.252,0.069-0.395
			c0-0.098,0-0.219,0-0.365c0-0.145,0-0.289,0-0.434c0-0.193-0.013-0.375-0.036-0.541c-0.025-0.168-0.061-0.351-0.109-0.543
			c-0.051-0.289-0.119-0.568-0.216-0.832c-0.097-0.267-0.243-0.519-0.434-0.76c-0.097-0.097-0.243-0.22-0.435-0.365
			c-0.192-0.144-0.409-0.265-0.651-0.359c-0.385-0.192-0.821-0.377-1.304-0.543c-0.483-0.168-0.966-0.35-1.447-0.543
			c-0.53-0.145-1.048-0.291-1.559-0.436c-0.505-0.144-0.95-0.265-1.338-0.361l-1.665-0.582h24.529l-1.588,0.652
			c-0.291,0.192-0.627,0.336-1.019,0.434c-0.382,0.096-0.795,0.193-1.229,0.291c-0.097,0.047-0.194,0.084-0.291,0.107
			c-0.097,0.024-0.194,0.057-0.286,0.106c-0.821,0.195-1.606,0.426-2.353,0.689c-0.747,0.268-1.269,0.565-1.556,0.903
			c-0.051,0.097-0.108,0.177-0.181,0.252c-0.074,0.07-0.132,0.152-0.181,0.248c-0.288,0.521-0.459,1.056-0.506,1.599
			c-0.048,0.547-0.071,1.146-0.071,1.809v39.439h0.002V453.519z"/>
		<path d="M428.526,408.037c0.094,0.314,0.191,0.613,0.288,0.906c0.051,0.336,0.12,0.649,0.217,0.938
			c0.098,0.287,0.194,0.63,0.291,1.015c0.675,2.074,1.665,4.932,2.967,8.576c1.303,3.639,2.678,7.418,4.125,11.326
			c0.098,0.239,0.191,0.483,0.291,0.723c0.096,0.242,0.189,0.482,0.286,0.723c1.736,4.775,3.392,9.181,4.958,13.209
			c1.566,4.029,2.616,6.621,3.146,7.777c0.146,0.387,0.291,0.725,0.437,1.014s0.286,0.603,0.435,0.938
			c0.097,0.244,0.216,0.498,0.361,0.762c0.148,0.271,0.291,0.543,0.435,0.832c0.242,0.482,0.735,0.918,1.482,1.303
			c0.747,0.386,1.559,0.746,2.425,1.086c0.193,0.05,0.388,0.121,0.578,0.218c0.194,0.098,0.389,0.166,0.582,0.217
			c0.146,0.049,0.275,0.108,0.397,0.18c0.123,0.07,0.255,0.133,0.398,0.18l1.519,0.58h-21.421l1.881-0.723
			c0.291-0.051,0.604-0.148,0.94-0.287c0.337-0.146,0.698-0.289,1.086-0.436c0.676-0.242,1.29-0.531,1.846-0.867
			c0.553-0.34,0.904-0.75,1.05-1.232c0-0.051,0.023-0.096,0.069-0.146c0-0.047,0-0.082,0-0.105c0-0.026,0-0.063,0-0.108
			c0-0.242-0.048-0.558-0.146-0.941c-0.097-0.385-0.217-0.746-0.361-1.086c-0.052-0.191-0.098-0.361-0.146-0.504
			c-0.051-0.146-0.099-0.287-0.145-0.437c-0.051-0.188-0.109-0.372-0.182-0.545c-0.073-0.164-0.135-0.321-0.179-0.469l-4.849-13.604
			H415.71l-5.066,13.53c-0.048,0.148-0.084,0.259-0.109,0.328c-0.021,0.072-0.036,0.158-0.036,0.254
			c-0.097,0.191-0.181,0.408-0.255,0.654c-0.071,0.24-0.132,0.479-0.178,0.721c-0.148,0.529-0.268,1.037-0.365,1.519
			c-0.094,0.485-0.145,0.846-0.145,1.088c0,0.051,0,0.082,0,0.106c0,0.025,0,0.062,0,0.107c0.192,0.436,0.564,0.785,1.121,1.051
			c0.559,0.265,1.17,0.519,1.846,0.76c0.096,0,0.194,0.015,0.29,0.035c0.095,0.025,0.168,0.063,0.217,0.107
			c0.24,0.1,0.484,0.182,0.725,0.258c0.239,0.07,0.456,0.156,0.649,0.254l1.955,0.721h-19.757l1.59-0.579
			c0.339-0.097,0.709-0.218,1.123-0.361c0.413-0.148,0.808-0.291,1.195-0.435c0.817-0.288,1.59-0.627,2.313-1.014
			c0.725-0.387,1.206-0.799,1.45-1.231c0.146-0.24,0.265-0.482,0.362-0.722c0.097-0.242,0.19-0.461,0.289-0.651
			c0.094-0.148,0.168-0.287,0.219-0.435c0.046-0.147,0.092-0.313,0.143-0.508c0.098-0.191,0.182-0.385,0.254-0.578
			c0.072-0.19,0.159-0.408,0.256-0.649c0.625-1.354,1.241-2.767,1.843-4.234c0.602-1.471,1.221-2.98,1.846-4.523
			c0.339-0.771,0.678-1.557,1.014-2.35c0.337-0.795,0.677-1.604,1.016-2.428c2.509-6.224,4.774-12.047,6.802-17.474
			c2.024-5.428,3.281-8.889,3.76-10.389c0.146-0.482,0.278-0.914,0.397-1.301c0.12-0.384,0.229-0.771,0.327-1.158
			c0-0.146,0.021-0.275,0.07-0.396c0.049-0.117,0.071-0.256,0.071-0.396c0.097-0.242,0.182-0.504,0.252-0.797
			c0.074-0.289,0.135-0.578,0.182-0.867l4.849-0.074C428.334,407.377,428.431,407.724,428.526,408.037z M424.619,416.324
			l-7.382,18.961h14.691L424.619,416.324z"/>
		<path d="M522.531,423.416c0,0.097,0,0.173,0,0.218c0,0.053,0,0.086,0,0.108c0,0.027,0,0.062,0,0.109
			c0,4.053-1.801,7.574-5.393,10.563c-3.594,2.992-7.538,4.634-11.833,4.923c-0.24,0.051-0.471,0.071-0.688,0.071s-0.445,0-0.688,0
			c-0.629,0-1.245-0.037-1.846-0.108c-0.604-0.07-1.221-0.179-1.847-0.324l-2.605-0.652v15.195c0,0.822,0.038,1.533,0.109,2.137
			c0.07,0.603,0.351,1.193,0.831,1.771c0.287,0.387,0.798,0.701,1.522,0.94c0.718,0.242,1.489,0.484,2.313,0.724
			c0.146,0.051,0.29,0.086,0.434,0.106c0.146,0.029,0.292,0.063,0.436,0.107c0.384,0.1,0.747,0.207,1.083,0.328
			c0.34,0.121,0.654,0.229,0.939,0.323l1.592,0.582h-24.529l1.666-0.508c0.383-0.047,0.828-0.143,1.338-0.287
			c0.506-0.146,1.027-0.289,1.558-0.436c0.481-0.189,0.963-0.373,1.448-0.541c0.482-0.168,0.914-0.353,1.304-0.543
			c0.24-0.098,0.456-0.219,0.649-0.361c0.193-0.146,0.336-0.266,0.437-0.363c0.143-0.243,0.271-0.475,0.396-0.69
			c0.122-0.215,0.204-0.445,0.255-0.688c0.049-0.239,0.083-0.483,0.109-0.723c0.023-0.24,0.036-0.457,0.036-0.65
			c0-0.146,0-0.276,0-0.396s0-0.229,0-0.326c-0.048-0.147-0.072-0.276-0.072-0.396c0-0.121,0-0.23,0-0.326V414.08
			c0-0.621-0.038-1.205-0.107-1.735c-0.07-0.527-0.303-1.035-0.689-1.519c-0.336-0.385-0.879-0.762-1.626-1.123
			c-0.749-0.363-1.532-0.709-2.351-1.051c-0.484-0.189-0.953-0.371-1.412-0.543c-0.461-0.164-0.881-0.32-1.266-0.469l-1.593-0.652
			h13.172c0.723,0.051,1.424,0.061,2.102,0.039c0.676-0.025,1.325-0.039,1.952-0.039c0.146,0,0.266,0,0.362,0s0.193,0,0.289,0
			c0.531-0.047,1.074-0.068,1.627-0.068c0.557,0,1.123,0,1.701,0c0.483,0,0.985,0,1.52,0c0.529,0,1.061,0.025,1.591,0.068
			c0.53,0,1.086,0.051,1.664,0.146c0.579,0.097,1.157,0.218,1.736,0.363c2.993,0.726,5.767,2.39,8.323,4.994
			c2.555,2.605,3.908,6.268,4.054,11v-0.076L522.531,423.416L522.531,423.416z M504.289,410.969c-0.146,0-0.313,0-0.507,0
			c-0.241,0-0.469,0-0.687,0c-0.216,0-0.448,0-0.688,0c-0.82,0.051-1.604,0.12-2.353,0.219c-0.747,0.096-1.262,0.242-1.558,0.432
			c-0.432,0.289-0.688,0.678-0.759,1.156c-0.07,0.486-0.107,0.992-0.107,1.52c0,0.054,0,0.086,0,0.107c0,0.029,0,0.063,0,0.111
			v20.19l2.17,0.287c0.58,0.146,1.143,0.242,1.699,0.287c0.555,0.051,1.096,0.072,1.629,0.072c3.717,0,6.877-1.062,9.482-3.185
			c2.604-2.122,3.907-5.09,3.907-8.901c0-0.146,0-0.275,0-0.398c0-0.119,0-0.227,0-0.324c-0.146-3.229-1.063-5.705-2.754-7.418
			c-1.688-1.713-3.5-2.883-5.429-3.51c-0.622-0.191-1.241-0.338-1.845-0.434c-0.601-0.099-1.194-0.168-1.772-0.218
			C504.582,410.969,504.436,410.969,504.289,410.969z"/>
		<path d="M562.836,406.988l-0.069,11.869l-1.017-2.894c-0.097-0.192-0.181-0.407-0.255-0.649c-0.072-0.242-0.157-0.459-0.252-0.652
			c-0.241-0.674-0.497-1.266-0.759-1.774c-0.271-0.505-0.691-0.949-1.267-1.339c-0.388-0.241-0.819-0.436-1.306-0.579
			c-0.482-0.144-0.966-0.24-1.446-0.289c-0.288,0-0.568-0.011-0.831-0.035c-0.268-0.023-0.543-0.037-0.831-0.037l-8.9-0.074
			c-0.099,0.049-0.192,0.074-0.289,0.074c-0.098,0-0.217,0-0.362,0c-0.58,0-1.146,0.022-1.7,0.07
			c-0.557,0.051-0.977,0.215-1.269,0.506c-0.189,0.194-0.31,0.518-0.359,0.977c-0.051,0.459-0.069,0.953-0.069,1.48
			c0,0.053,0,0.098,0,0.147c0,0.049,0,0.107,0,0.179s0,0.137,0,0.182v17.295h10.275c0.288,0,0.579,0,0.866,0c0.291,0,0.581,0,0.87,0
			c0.578,0,1.121-0.035,1.629-0.104c0.507-0.076,0.977-0.277,1.41-0.619c0.097-0.092,0.193-0.178,0.289-0.252
			c0.099-0.072,0.166-0.154,0.217-0.252c0.243-0.195,0.425-0.39,0.543-0.58c0.12-0.193,0.255-0.437,0.396-0.724l1.519-3.184v17.078
			l-0.65-1.66c-0.051-0.146-0.111-0.313-0.183-0.506c-0.071-0.191-0.136-0.385-0.18-0.58c-0.051-0.096-0.084-0.18-0.109-0.252
			c-0.021-0.072-0.061-0.156-0.106-0.254c-0.244-0.771-0.521-1.508-0.832-2.211c-0.314-0.697-0.737-1.193-1.268-1.48
			c-0.285-0.192-0.578-0.336-0.864-0.432c-0.291-0.098-0.581-0.172-0.87-0.219c-0.288-0.052-0.594-0.072-0.907-0.072
			c-0.313,0-0.662,0-1.046,0c-0.051,0-0.108,0-0.18,0c-0.074,0-0.136,0-0.183,0h-10.635v17.742c0,0.242,0.01,0.508,0.035,0.799
			c0.021,0.283,0.059,0.553,0.108,0.791c0.095,0.531,0.228,0.998,0.396,1.408c0.169,0.405,0.396,0.686,0.688,0.825
			c0.386,0.191,0.737,0.313,1.048,0.361c0.313,0.049,0.641,0.072,0.977,0.072c0.147,0,0.277,0,0.398,0
			c0.118,0,0.254-0.025,0.399-0.072c0.094,0,0.216,0,0.358,0c0.146,0,0.292,0,0.436,0l11.868-0.07c0.146,0.048,0.29,0.07,0.436,0.07
			c0.146,0,0.289,0,0.434,0c0.098,0.049,0.218,0.072,0.365,0.072c0.146,0,0.285,0,0.435,0c0.241,0,0.48-0.025,0.721-0.072
			c0.242-0.049,0.484-0.119,0.726-0.217c0.381-0.189,0.708-0.58,0.975-1.156c0.268-0.576,0.516-1.231,0.76-1.953
			c0.051-0.146,0.099-0.301,0.146-0.473c0.051-0.168,0.098-0.324,0.145-0.471c0.097-0.289,0.204-0.582,0.327-0.869
			c0.122-0.289,0.229-0.553,0.325-0.795l0.939-2.318l-0.362,11.725h-38.354l1.664-0.508c0.386-0.047,0.832-0.143,1.342-0.287
			c0.511-0.143,1.024-0.289,1.556-0.436c0.485-0.189,0.966-0.373,1.448-0.541s0.921-0.352,1.303-0.543
			c0.245-0.098,0.461-0.219,0.653-0.361c0.19-0.146,0.338-0.266,0.433-0.362c0.241-0.291,0.41-0.615,0.508-0.978
			c0.093-0.363,0.168-0.736,0.216-1.125c0-0.143,0-0.287,0-0.436c0-0.146,0-0.285,0-0.433c0-0.244,0-0.461,0-0.653
			c0-0.188,0-0.382,0-0.578v-39.224c0-0.188,0-0.418,0-0.686c0-0.267,0-0.492,0-0.689c0-0.483-0.034-0.928-0.108-1.338
			c-0.071-0.412-0.275-0.811-0.614-1.195c-0.095-0.094-0.241-0.217-0.433-0.364c-0.192-0.144-0.408-0.263-0.653-0.359
			c-0.382-0.193-0.819-0.377-1.303-0.543c-0.482-0.168-0.963-0.35-1.448-0.543c-0.53-0.146-1.045-0.291-1.556-0.437
			c-0.508-0.143-0.953-0.266-1.342-0.362l-1.664-0.58h36.253v0.008H562.836z"/>
		<path d="M572.532,406.988h34.157l3.763-1.371l-0.143,16.211l-1.159-3.84c-0.05-0.045-0.085-0.107-0.106-0.178
			c-0.026-0.072-0.036-0.138-0.036-0.183c-0.101-0.289-0.182-0.578-0.258-0.866c-0.068-0.291-0.155-0.578-0.253-0.869
			c-0.34-0.963-0.699-1.869-1.087-2.715c-0.385-0.841-0.917-1.384-1.588-1.628c-0.244-0.096-0.485-0.166-0.724-0.217
			c-0.242-0.047-0.487-0.071-0.726-0.071c-0.24-0.048-0.482-0.07-0.721-0.07c-0.245,0-0.507,0-0.798,0c-0.097,0-0.179,0-0.255,0
			c-0.072,0-0.158,0-0.253,0h-9.552v42.334c0,0.82,0.034,1.531,0.106,2.137c0.071,0.603,0.351,1.193,0.83,1.771
			c0.289,0.387,0.812,0.715,1.56,0.979c0.746,0.267,1.531,0.492,2.351,0.687c0.147,0.051,0.274,0.098,0.397,0.147
			c0.119,0.05,0.252,0.068,0.396,0.068c0.382,0.1,0.746,0.207,1.086,0.326c0.337,0.123,0.65,0.229,0.938,0.326l1.591,0.582h-24.532
			l1.668-0.509c0.383-0.049,0.828-0.143,1.339-0.289c0.509-0.141,1.023-0.286,1.555-0.436c0.484-0.188,0.968-0.371,1.45-0.539
			s0.918-0.354,1.304-0.543c0.241-0.098,0.46-0.221,0.652-0.363c0.188-0.145,0.337-0.264,0.434-0.36
			c0.146-0.244,0.275-0.472,0.396-0.689c0.118-0.219,0.203-0.445,0.254-0.688c0.049-0.24,0.082-0.48,0.109-0.722
			c0.023-0.241,0.037-0.459,0.037-0.649c0-0.146,0-0.275,0-0.396s0-0.229,0-0.326c-0.052-0.146-0.072-0.274-0.072-0.396
			c0-0.119,0-0.229,0-0.324v-42.125h-11.217c-0.243,0.047-0.472,0.068-0.688,0.068c-0.216,0-0.423,0.026-0.614,0.073
			c-0.097,0.052-0.206,0.097-0.325,0.144c-0.12,0.051-0.23,0.098-0.326,0.146c-0.579,0.388-1.035,1.064-1.372,2.025
			c-0.341,0.967-0.627,2.006-0.87,3.113c-0.051,0.143-0.083,0.299-0.104,0.467c-0.028,0.172-0.063,0.328-0.11,0.477
			c-0.051,0.24-0.107,0.48-0.182,0.722c-0.07,0.241-0.134,0.483-0.182,0.721l-0.795,2.463l-0.361-15.777L572.532,406.988z"/>
		<path d="M629.847,453.519c0,0.822,0.038,1.533,0.104,2.137c0.074,0.603,0.354,1.193,0.835,1.771
			c0.287,0.387,0.809,0.711,1.555,0.979c0.747,0.265,1.532,0.492,2.354,0.687c0.146,0.051,0.273,0.096,0.397,0.146
			c0.12,0.049,0.253,0.07,0.396,0.07c0.385,0.098,0.747,0.205,1.087,0.326c0.336,0.121,0.648,0.229,0.94,0.326l1.588,0.579h-24.529
			l1.664-0.506c0.385-0.049,0.832-0.143,1.341-0.289c0.509-0.143,1.025-0.289,1.557-0.436c0.481-0.189,0.966-0.373,1.447-0.541
			c0.483-0.168,0.92-0.352,1.304-0.543c0.241-0.096,0.458-0.219,0.65-0.361c0.192-0.145,0.337-0.266,0.436-0.36
			c0.146-0.244,0.276-0.476,0.396-0.691s0.203-0.445,0.252-0.689c0.053-0.237,0.085-0.483,0.11-0.725
			c0.021-0.238,0.035-0.455,0.035-0.647c0-0.146,0-0.275,0-0.396c0-0.119,0-0.229,0-0.324c-0.048-0.147-0.068-0.278-0.068-0.397
			s0-0.23,0-0.326v-39.007c0-0.047,0-0.131,0-0.254c0-0.121,0.022-0.252,0.068-0.396c0-0.096,0-0.217,0-0.363
			c0-0.145,0-0.291,0-0.434c0-0.193-0.014-0.375-0.035-0.541c-0.025-0.168-0.059-0.351-0.11-0.543
			c-0.049-0.293-0.118-0.568-0.217-0.836c-0.096-0.263-0.242-0.515-0.433-0.761c-0.099-0.092-0.242-0.215-0.436-0.36
			c-0.192-0.144-0.409-0.265-0.65-0.359c-0.384-0.192-0.819-0.377-1.303-0.543c-0.482-0.168-0.967-0.35-1.448-0.543
			c-0.53-0.147-1.048-0.291-1.56-0.436c-0.505-0.144-0.949-0.267-1.338-0.365l-1.664-0.578h24.529l-1.588,0.652
			c-0.292,0.192-0.628,0.336-1.019,0.434c-0.383,0.096-0.796,0.193-1.229,0.291c-0.099,0.047-0.193,0.084-0.291,0.107
			c-0.094,0.024-0.191,0.057-0.286,0.106c-0.82,0.195-1.604,0.426-2.354,0.689c-0.746,0.268-1.265,0.565-1.555,0.901
			c-0.051,0.099-0.109,0.179-0.181,0.254c-0.072,0.066-0.134,0.152-0.179,0.248c-0.291,0.521-0.463,1.056-0.509,1.599
			c-0.045,0.547-0.069,1.146-0.069,1.809v39.439H629.847z"/>
	</g>
	<g>
		<g>
			<path d="M294.203,123.582c0.179,0.043,0.271,0.064,0.454,0.11c0.095,0.018,0.236,0.008,0.437-0.025
				c0.199-0.03,0.434-0.082,0.683-0.164c0.207-0.065,0.427-0.147,0.643-0.238c0.217-0.093,0.431-0.192,0.643-0.286
				c0.459-0.207,0.882-0.406,1.262-0.598c0.382-0.193,0.736-0.409,1.079-0.616c0.456-0.275,0.931-0.571,1.381-0.898
				c0.451-0.326,0.961-0.696,1.453-1.119c0.057-0.043,0.115-0.089,0.173-0.135c0.06-0.044,0.112-0.09,0.15-0.123
				c0.028-0.023,0.046-0.043,0.057-0.054s0.035-0.033,0.06-0.057c0.065-0.059,0.147-0.128,0.231-0.193
				c0.082-0.066,0.173-0.139,0.278-0.212c0.321-0.242,0.477-0.364,0.798-0.604c-0.161,0.309-0.231,0.461-0.388,0.771
				c-0.03,0.048-0.06,0.089-0.081,0.13c-0.023,0.043-0.063,0.086-0.095,0.12c-0.104,0.123-0.223,0.306-0.361,0.445
				c-0.141,0.144-0.296,0.288-0.467,0.446c-0.028,0.025-0.063,0.051-0.087,0.074c-0.026,0.021-0.052,0.051-0.074,0.073
				c-0.028,0.024-0.057,0.048-0.084,0.071c-0.028,0.028-0.054,0.051-0.077,0.074c-0.091,0.086-0.183,0.173-0.27,0.25
				c-0.086,0.081-0.174,0.163-0.269,0.25c-1.308,1.216-2.662,2.246-4.063,3.095c-1.405,0.851-2.677,1.423-3.745,1.76
				c-0.133,0.044-0.265,0.087-0.39,0.114c-0.125,0.03-0.254,0.062-0.375,0.089c-0.165,0.043-0.333,0.074-0.492,0.101
				c-0.158,0.024-0.31,0.051-0.469,0.073c-0.155,0.025-0.309,0.041-0.47,0.049c-0.163,0.008-0.341,0.021-0.532,0.041
				c-0.182,0.13-0.275,0.195-0.456,0.329c-0.201,0.138-0.411,0.272-0.624,0.414c-0.215,0.14-0.449,0.271-0.694,0.395
				c-1.529,0.755-3.266,1.183-5.21,1.247c-1.945,0.062-3.717-0.632-5.293-2.116c-1.777-1.67-2.544-3.861-2.238-6.59
				c0.305-2.728,1.488-5.265,3.546-7.543c0.041-0.04,0.089-0.089,0.132-0.143c0.047-0.057,0.082-0.1,0.123-0.138
				c0.043-0.041,0.089-0.09,0.142-0.138c0.048-0.046,0.094-0.092,0.135-0.133c0.053-0.053,0.115-0.112,0.178-0.173
				c0.06-0.062,0.12-0.125,0.173-0.176c1.948-1.84,4.397-2.963,7.09-3.364c2.694-0.4,4.89,0.375,6.585,2.259
				c0.01,0.01,0.024,0.025,0.046,0.048c0.021,0.023,0.04,0.041,0.051,0.054c0.021,0.023,0.038,0.044,0.054,0.06
				c0.016,0.018,0.038,0.041,0.057,0.061c1.528,1.749,2.189,3.81,2.038,5.933c-0.152,2.129-0.974,4.229-2.457,6.343
				C294.425,123.246,294.353,123.355,294.203,123.582z M281.125,113.474c-1.82,1.915-2.758,3.959-2.796,6.081
				c-0.045,2.117,0.663,3.849,2.08,5.199c0.013,0.014,0.024,0.026,0.035,0.036c0.011,0.011,0.022,0.021,0.033,0.03
				c0.01,0.011,0.025,0.023,0.036,0.034c0.013,0.01,0.025,0.021,0.036,0.03c1.544,1.455,3.437,2.079,5.565,1.901
				c2.128-0.173,4.188-1.023,5.855-2.56c0.041-0.038,0.087-0.077,0.13-0.11c0.049-0.035,0.084-0.068,0.123-0.105
				c0.028-0.028,0.06-0.06,0.097-0.098c0.043-0.041,0.082-0.082,0.12-0.117c1.501-1.49,2.406-3.326,2.74-5.504
				c0.334-2.177-0.224-4.056-1.662-5.615c-1.428-1.549-3.325-2.341-5.724-2.292c-2.396,0.051-4.551,1.012-6.419,2.881
				c-0.014,0.013-0.033,0.029-0.055,0.051c-0.021,0.02-0.041,0.043-0.054,0.056c-0.03,0.028-0.051,0.046-0.061,0.06
				c-0.011,0.013-0.033,0.034-0.063,0.061C281.133,113.482,281.133,113.479,281.125,113.474z"/>
			<path d="M307.752,92.586c1.803,2.274,2.708,3.408,4.513,5.683c1.66,2.095,2.154,4.045,1.547,5.86
				c-0.609,1.815-1.688,3.365-3.276,4.679c-1.519,1.254-3.21,2.001-5.088,2.244c-1.879,0.244-3.615-0.511-5.201-2.309
				c-2.221-2.514-3.326-3.768-5.55-6.282c-0.01-0.013-0.029-0.034-0.054-0.063c-0.021-0.028-0.046-0.077-0.063-0.112
				c-0.014-0.021-0.041-0.057-0.071-0.092c-0.03-0.036-0.059-0.067-0.089-0.103c-0.043-0.046-0.087-0.087-0.13-0.119
				c-0.046-0.033-0.095-0.066-0.148-0.103c-0.074-0.051-0.16-0.104-0.245-0.143c-0.084-0.041-0.188-0.066-0.291-0.066
				c-0.046,0-0.116,0.01-0.205,0.028c-0.086,0.021-0.178,0.048-0.27,0.084c-0.153,0.062-0.321,0.13-0.499,0.217
				c-0.176,0.089-0.377,0.168-0.549,0.257c-0.187,0.092-0.369,0.213-0.55,0.312c-0.182,0.099-0.345,0.193-0.479,0.271
				c-0.25,0.123-0.37,0.185-0.615,0.307c2.909-2.642,4.383-3.932,7.354-6.466c-0.141,0.228-0.216,0.345-0.356,0.576
				c-0.049,0.12-0.115,0.242-0.212,0.367c-0.094,0.125-0.224,0.254-0.308,0.39c-0.023,0.031-0.048,0.066-0.069,0.099
				c-0.021,0.031-0.041,0.076-0.062,0.105c-0.163,0.255-0.391,0.521-0.562,0.78c-0.166,0.26-0.277,0.487-0.274,0.622
				c0,0.033,0.005,0.066-0.003,0.104c-0.006,0.038,0,0.079,0.005,0.112c0.027,0.202,0.079,0.377,0.181,0.522
				s0.229,0.303,0.373,0.467c2.228,2.566,3.347,3.847,5.578,6.411c1.216,1.399,2.47,2.072,3.75,2.029
				c1.276-0.043,2.585-0.481,3.869-1.325c0.12-0.078,0.232-0.165,0.334-0.24c0.104-0.076,0.206-0.15,0.304-0.232
				c1.155-0.963,1.872-2.171,2.162-3.632c0.291-1.458-0.055-2.813-1.046-4.054c-2.167-2.705-3.25-4.056-5.417-6.761
				c-0.011-0.011-0.027-0.025-0.038-0.038c-0.063-0.082-0.133-0.168-0.204-0.26c-0.069-0.092-0.176-0.176-0.273-0.248
				c-0.071-0.057-0.153-0.109-0.245-0.155c-0.094-0.043-0.209-0.089-0.315-0.101c-0.046-0.005-0.123,0.012-0.205,0.031
				c-0.082,0.018-0.184,0.038-0.298,0.076c-0.13,0.046-0.286,0.11-0.461,0.183c-0.174,0.074-0.381,0.139-0.552,0.217
				c-0.2,0.093-0.393,0.201-0.588,0.28c-0.191,0.077-0.373,0.148-0.518,0.207c-0.271,0.09-0.403,0.135-0.673,0.223
				c2.769-2.274,4.166-3.395,6.979-5.578c-0.12,0.219-0.181,0.331-0.298,0.553c-0.072,0.159-0.176,0.309-0.304,0.472
				c-0.13,0.158-0.254,0.337-0.382,0.505c-0.191,0.261-0.394,0.519-0.574,0.768c-0.176,0.25-0.273,0.451-0.283,0.592
				c-0.01,0.106,0.03,0.247,0.112,0.428c0.079,0.182,0.17,0.37,0.274,0.563c0.112,0.207,0.228,0.382,0.339,0.543
				c0.112,0.158,0.196,0.267,0.247,0.329C307.765,92.595,307.758,92.594,307.752,92.586z"/>
			<path d="M318.352,81.034c0.087,0.06,0.191,0.112,0.263,0.168c0.077,0.063,0.15,0.146,0.234,0.199
				c0.084,0.054,0.181,0.125,0.283,0.196c0.559,0.393,1.442,0.913,2.525,1.572c1.086,0.66,2.221,1.383,3.381,2.055
				c0.073,0.041,0.152,0.082,0.228,0.125c0.074,0.043,0.149,0.089,0.219,0.13c1.402,0.817,2.729,1.677,3.944,2.406
				c1.216,0.727,2.031,1.183,2.383,1.385c0.113,0.065,0.214,0.138,0.312,0.181c0.095,0.046,0.206,0.1,0.309,0.158
				c0.071,0.044,0.158,0.084,0.25,0.128c0.095,0.038,0.186,0.081,0.283,0.129c0.162,0.077,0.386,0.09,0.686,0.036
				c0.301-0.051,0.63-0.112,0.935-0.214c0.061-0.021,0.135-0.046,0.211-0.06c0.073-0.015,0.159-0.04,0.227-0.063
				c0.051-0.019,0.097-0.025,0.147-0.033c0.051-0.005,0.1-0.018,0.155-0.038c0.228-0.061,0.345-0.094,0.57-0.156
				c-2.625,1.751-3.928,2.646-6.516,4.478c0.171-0.237,0.26-0.354,0.433-0.591c0.08-0.074,0.164-0.167,0.24-0.273
				c0.077-0.11,0.161-0.227,0.248-0.347c0.161-0.207,0.288-0.415,0.396-0.622c0.106-0.207,0.155-0.418,0.098-0.543
				c-0.006-0.011,0-0.039-0.004-0.051c-0.002-0.009-0.013-0.023-0.018-0.033c-0.005-0.008-0.016-0.017-0.023-0.028
				c-0.045-0.061-0.116-0.132-0.213-0.213c-0.103-0.082-0.214-0.148-0.306-0.212c-0.051-0.034-0.1-0.08-0.143-0.107
				c-0.041-0.024-0.079-0.049-0.119-0.075c-0.049-0.039-0.104-0.077-0.156-0.105c-0.057-0.03-0.102-0.059-0.143-0.087
				c-1.587-1.021-2.393-1.521-3.993-2.523c-2.21,1.562-3.31,2.355-5.491,3.973c0.411,1.851,0.62,2.775,1.051,4.622
				c0.013,0.046,0.027,0.084,0.035,0.108c0.008,0.023,0.033,0.053,0.041,0.069c0.021,0.051,0.018,0.147,0.043,0.224
				c0.025,0.08,0.059,0.156,0.087,0.223c0.063,0.163,0.122,0.325,0.187,0.472c0.061,0.142,0.116,0.252,0.162,0.316
				c0.011,0.013,0.021,0.018,0.025,0.025c0.005,0.007,0.01,0.022,0.023,0.03c0.089,0.076,0.318,0.071,0.532,0.016
				c0.22-0.054,0.497-0.109,0.696-0.217c0.025-0.013,0.056-0.038,0.092-0.054c0.032-0.016,0.063-0.021,0.081-0.022
				c0.077-0.008,0.182-0.059,0.271-0.094c0.084-0.036,0.163-0.066,0.239-0.084c0.288-0.1,0.437-0.146,0.725-0.243
				c-2.358,1.744-3.533,2.631-5.854,4.443c0.144-0.204,0.215-0.307,0.357-0.51c0.079-0.103,0.168-0.22,0.262-0.35
				c0.092-0.132,0.18-0.258,0.269-0.383c0.183-0.259,0.344-0.522,0.485-0.782s0.2-0.481,0.189-0.646
				c-0.005-0.092-0.019-0.182-0.035-0.265c-0.018-0.085-0.036-0.167-0.039-0.234c-0.002-0.055-0.005-0.112-0.021-0.161
				c-0.014-0.049-0.043-0.107-0.055-0.163c-0.015-0.06-0.021-0.138-0.035-0.204c-0.016-0.066-0.044-0.146-0.057-0.222
				c-0.086-0.473-0.158-0.989-0.259-1.502c-0.104-0.513-0.226-1.047-0.322-1.578c-0.051-0.269-0.094-0.555-0.147-0.832
				c-0.052-0.28-0.103-0.568-0.161-0.854c-0.418-2.159-0.833-4.188-1.231-6.055c-0.397-1.866-0.646-3.054-0.783-3.546
				c-0.043-0.155-0.079-0.295-0.114-0.425c-0.036-0.13-0.069-0.28-0.122-0.38c-0.02-0.033-0.044-0.077-0.052-0.12
				c-0.008-0.041-0.038-0.087-0.054-0.12c-0.025-0.062-0.036-0.173-0.063-0.266c-0.033-0.092-0.069-0.181-0.107-0.268
				c0.609-0.453,0.921-0.677,1.532-1.129C318.163,80.907,318.263,80.974,318.352,81.034z M318.657,84.084
				c0.492,2.642,0.744,3.959,1.277,6.582c1.802-1.331,2.708-1.987,4.53-3.28C322.158,86.047,321.001,85.386,318.657,84.084z"/>
			<path d="M340.489,83.668c0.091,0.144,0.196,0.271,0.309,0.382c0.111,0.113,0.25,0.182,0.413,0.207
				c0.14,0.021,0.285,0,0.453-0.067c0.165-0.071,0.342-0.146,0.489-0.229c0.046-0.024,0.089-0.052,0.119-0.068
				c0.033-0.019,0.057-0.036,0.087-0.057c1.106-0.704,1.664-1.05,2.776-1.744c0.115-0.051,0.222-0.113,0.329-0.19
				c0.109-0.074,0.222-0.173,0.327-0.26c0.127-0.107,0.271-0.228,0.401-0.36c0.127-0.13,0.232-0.267,0.299-0.392
				c0.136-0.245,0.209-0.49,0.204-0.739c-0.005-0.248-0.02-0.538-0.077-0.8c-0.013-0.06-0.024-0.118-0.029-0.182
				c-0.005-0.059-0.014-0.114-0.021-0.163c-0.056-0.366-0.082-0.548-0.138-0.918c0.795,1.342,1.201,2.01,1.996,3.346
				c-4.629,2.758-6.921,4.195-11.444,7.186c0.166-0.186,0.248-0.283,0.416-0.474c0.11-0.092,0.237-0.209,0.367-0.35
				c0.13-0.143,0.276-0.286,0.4-0.432c0.116-0.137,0.229-0.292,0.349-0.433c0.12-0.146,0.222-0.289,0.308-0.408
				c0.055-0.074,0.107-0.147,0.144-0.228c0.033-0.08,0.063-0.143,0.07-0.186c0.012-0.051,0.006-0.113,0.004-0.164
				c-0.004-0.054,0.002-0.12,0-0.171c-0.006-0.086-0.052-0.184-0.09-0.265c-0.046-0.082-0.087-0.169-0.138-0.248
				c-0.036-0.052-0.076-0.107-0.115-0.163c-0.041-0.06-0.068-0.125-0.111-0.191c-2.726-4.235-4.089-6.348-6.813-10.58
				c-0.008-0.013-0.018-0.036-0.041-0.067c-0.021-0.031-0.035-0.086-0.051-0.123c-0.01-0.022-0.035-0.059-0.063-0.1
				c-0.024-0.038-0.045-0.076-0.068-0.114c-0.033-0.051-0.068-0.097-0.106-0.138c-0.041-0.038-0.084-0.081-0.128-0.122
				c-0.065-0.062-0.142-0.125-0.216-0.178c-0.077-0.052-0.178-0.1-0.278-0.115c-0.046-0.008-0.108-0.008-0.195-0.008
				c-0.089,0.003-0.188,0.021-0.28,0.041c-0.155,0.036-0.329,0.076-0.515,0.135c-0.188,0.057-0.386,0.103-0.563,0.158
				c-0.194,0.061-0.396,0.147-0.586,0.216c-0.188,0.069-0.357,0.13-0.495,0.189c-0.26,0.081-0.388,0.119-0.645,0.201
				c3.188-2.11,4.795-3.137,8.036-5.138c-0.166,0.201-0.25,0.304-0.413,0.505c-0.063,0.109-0.148,0.22-0.261,0.327
				c-0.111,0.106-0.254,0.216-0.358,0.331c-0.026,0.028-0.055,0.063-0.08,0.087c-0.028,0.026-0.049,0.062-0.068,0.089
				c-0.191,0.22-0.459,0.443-0.658,0.67c-0.2,0.228-0.347,0.435-0.363,0.566c0,0.03,0,0.07-0.014,0.106
				c-0.011,0.032-0.013,0.071-0.013,0.104c-0.003,0.196,0.03,0.377,0.104,0.535c0.075,0.156,0.17,0.326,0.282,0.505
				C336.44,77.261,337.788,79.395,340.489,83.668z"/>
			<path d="M360.575,74.96c0.159,0.095,0.232,0.141,0.389,0.235c0.081,0.043,0.217,0.081,0.411,0.109
				c0.193,0.027,0.426,0.048,0.677,0.045c0.209-0.002,0.437-0.019,0.661-0.041c0.225-0.021,0.443-0.052,0.668-0.079
				c0.479-0.057,0.922-0.125,1.328-0.196c0.399-0.069,0.795-0.163,1.162-0.258c0.492-0.125,1.013-0.265,1.516-0.441
				c0.502-0.176,1.078-0.375,1.644-0.63c0.063-0.024,0.122-0.056,0.185-0.081c0.063-0.022,0.13-0.049,0.175-0.068
				c0.031-0.016,0.049-0.031,0.062-0.038c0.014-0.008,0.043-0.019,0.072-0.033c0.079-0.039,0.17-0.077,0.268-0.112
				c0.097-0.039,0.201-0.08,0.316-0.118c0.361-0.135,0.54-0.204,0.904-0.339c-0.227,0.245-0.353,0.364-0.578,0.609
				c-0.041,0.039-0.067,0.075-0.1,0.107c-0.032,0.035-0.076,0.057-0.114,0.081c-0.127,0.086-0.286,0.228-0.454,0.319
				c-0.166,0.091-0.35,0.186-0.55,0.285c-0.031,0.016-0.063,0.028-0.096,0.043c-0.029,0.015-0.061,0.033-0.094,0.051
				c-0.031,0.015-0.059,0.028-0.092,0.043c-0.03,0.017-0.056,0.03-0.086,0.046c-0.11,0.057-0.214,0.107-0.314,0.159
				c-0.102,0.051-0.211,0.103-0.318,0.155c-1.527,0.768-3.043,1.346-4.563,1.73c-1.521,0.389-2.851,0.555-3.929,0.557
				c-0.135,0-0.271,0-0.394-0.011c-0.121-0.011-0.257-0.016-0.375-0.022c-0.166-0.01-0.323-0.032-0.477-0.053
				c-0.153-0.026-0.304-0.05-0.459-0.069c-0.153-0.021-0.301-0.056-0.451-0.094c-0.153-0.038-0.318-0.079-0.5-0.118
				c-0.199,0.069-0.303,0.102-0.505,0.171c-0.221,0.069-0.453,0.137-0.688,0.204c-0.235,0.069-0.481,0.125-0.737,0.166
				c-1.611,0.255-3.34,0.141-5.167-0.385c-1.825-0.521-3.294-1.698-4.391-3.564c-1.238-2.104-1.398-4.402-0.434-6.881
				c0.966-2.475,2.733-4.629,5.19-6.054c0.046-0.028,0.103-0.06,0.155-0.098c0.055-0.038,0.107-0.068,0.156-0.097
				c0.051-0.028,0.101-0.063,0.158-0.092c0.056-0.03,0.112-0.051,0.161-0.079c0.065-0.035,0.14-0.073,0.211-0.114
				c0.074-0.039,0.146-0.077,0.207-0.109c2.271-1.158,4.849-1.503,7.462-1.087s4.458,1.795,5.564,4.074
				c0.009,0.014,0.019,0.033,0.03,0.06c0.017,0.03,0.021,0.051,0.028,0.063c0.016,0.025,0.03,0.054,0.041,0.074
				c0.01,0.021,0.02,0.046,0.033,0.071c0.983,2.11,1.084,4.253,0.405,6.221c-0.678,1.968-1.976,3.719-3.888,5.274
				C360.865,74.704,360.773,74.789,360.575,74.96z M350.94,61.532c-2.179,1.271-3.563,2.919-4.132,4.902
				c-0.571,1.985-0.342,3.826,0.637,5.524c0.008,0.014,0.013,0.03,0.021,0.043c0.008,0.016,0.018,0.025,0.027,0.038
				c0.008,0.014,0.014,0.028,0.021,0.041c0.007,0.014,0.013,0.025,0.021,0.041c1.08,1.833,2.682,2.982,4.703,3.449
				c2.024,0.472,4.156,0.283,6.09-0.67c0.05-0.022,0.093-0.048,0.144-0.063c0.054-0.021,0.1-0.041,0.146-0.063
				c0.033-0.019,0.077-0.036,0.123-0.063c0.05-0.024,0.089-0.049,0.136-0.07c1.771-0.964,3.083-2.434,3.938-4.394
				c0.859-1.961,0.819-3.899-0.129-5.8c-0.938-1.887-2.509-3.197-4.755-3.857c-2.244-0.661-4.499-0.387-6.705,0.823
				c-0.016,0.008-0.041,0.02-0.066,0.031c-0.022,0.016-0.041,0.028-0.053,0.035c-0.036,0.019-0.062,0.031-0.077,0.041
				c-0.015,0.01-0.038,0.021-0.07,0.038C350.943,61.545,350.945,61.537,350.94,61.532z"/>
			<path d="M381.091,49.52c1.104,2.682,1.662,4.024,2.766,6.705c1.019,2.473,0.994,4.479-0.041,6.026
				c-1.033,1.547-2.45,2.709-4.27,3.495c-1.742,0.752-3.503,0.969-5.318,0.652c-1.812-0.316-3.248-1.539-4.272-3.707
				c-1.435-3.033-2.146-4.55-3.582-7.582c-0.007-0.013-0.02-0.04-0.037-0.079c-0.016-0.033-0.022-0.084-0.033-0.125
				c-0.005-0.021-0.03-0.062-0.051-0.104c-0.021-0.041-0.041-0.082-0.06-0.125c-0.024-0.055-0.056-0.107-0.086-0.151
				c-0.036-0.046-0.065-0.092-0.104-0.138c-0.057-0.071-0.133-0.146-0.199-0.204c-0.069-0.063-0.163-0.12-0.257-0.153
				c-0.043-0.013-0.109-0.021-0.193-0.03c-0.087-0.008-0.184-0.005-0.278,0c-0.154,0.014-0.329,0.028-0.52,0.06
				c-0.187,0.029-0.388,0.049-0.574,0.079c-0.196,0.034-0.4,0.089-0.594,0.135c-0.194,0.041-0.372,0.08-0.516,0.118
				c-0.265,0.043-0.392,0.065-0.654,0.111c3.383-1.648,5.088-2.446,8.51-3.984c-0.189,0.176-0.291,0.268-0.479,0.443
				c-0.077,0.103-0.169,0.194-0.291,0.283c-0.122,0.086-0.273,0.178-0.388,0.278c-0.027,0.022-0.062,0.056-0.095,0.079
				c-0.03,0.022-0.043,0.053-0.066,0.079c-0.214,0.188-0.51,0.377-0.731,0.572c-0.225,0.197-0.384,0.382-0.418,0.514
				c-0.007,0.03-0.019,0.065-0.033,0.102c-0.015,0.031-0.021,0.066-0.025,0.104c-0.024,0.195-0.013,0.382,0.046,0.553
				c0.06,0.168,0.133,0.352,0.225,0.548c1.433,3.084,2.146,4.625,3.577,7.714c0.779,1.681,1.782,2.683,2.987,3.015
				c1.206,0.332,2.539,0.298,3.957-0.131c0.133-0.037,0.259-0.089,0.372-0.13c0.115-0.041,0.232-0.086,0.345-0.135
				c1.325-0.583,2.302-1.52,2.946-2.825c0.646-1.305,0.675-2.691,0.06-4.163c-1.336-3.199-2.004-4.795-3.338-7.991
				c-0.009-0.014-0.022-0.031-0.027-0.047c-0.041-0.1-0.074-0.2-0.123-0.308c-0.046-0.107-0.115-0.212-0.188-0.311
				c-0.055-0.074-0.118-0.153-0.194-0.22c-0.079-0.068-0.173-0.147-0.273-0.188c-0.038-0.017-0.109-0.021-0.19-0.028
				c-0.079-0.008-0.188-0.018-0.304-0.013c-0.136,0.003-0.299,0.018-0.481,0.036c-0.184,0.018-0.38,0.024-0.562,0.048
				c-0.211,0.031-0.436,0.077-0.637,0.095c-0.202,0.021-0.38,0.04-0.53,0.056c-0.271,0.006-0.413,0.009-0.686,0.014
				c3.167-1.364,4.759-2.024,7.957-3.293c-0.168,0.173-0.25,0.262-0.418,0.438c-0.107,0.125-0.243,0.248-0.403,0.364
				c-0.161,0.115-0.319,0.248-0.483,0.375c-0.25,0.188-0.511,0.375-0.742,0.561c-0.232,0.185-0.37,0.353-0.416,0.479
				c-0.036,0.1-0.036,0.246-0.005,0.441c0.033,0.198,0.063,0.399,0.112,0.613c0.057,0.228,0.117,0.438,0.182,0.617
				c0.065,0.184,0.118,0.309,0.145,0.38C381.098,49.53,381.093,49.53,381.091,49.52z"/>
			<path d="M397.48,39.979c0.484,1.438,0.719,2.162,1.201,3.602c-0.262-0.304-0.396-0.454-0.66-0.754
				c-0.054-0.046-0.105-0.1-0.156-0.164c-0.053-0.063-0.109-0.12-0.161-0.168c-0.157-0.151-0.311-0.324-0.459-0.442
				c-0.146-0.12-0.354-0.209-0.599-0.248c-0.161-0.025-0.337-0.03-0.521-0.014c-0.186,0.019-0.375,0.043-0.54,0.095
				c-0.099,0.03-0.214,0.063-0.312,0.089c-0.097,0.027-0.193,0.059-0.298,0.097c-1.274,0.439-1.904,0.658-3.176,1.114
				c-0.027,0.024-0.063,0.048-0.098,0.059c-0.036,0.013-0.077,0.028-0.127,0.051c-0.207,0.073-0.404,0.15-0.599,0.237
				c-0.191,0.087-0.327,0.196-0.393,0.322c-0.052,0.081-0.057,0.192-0.022,0.338c0.036,0.143,0.087,0.291,0.147,0.451
				c0.006,0.016,0.009,0.03,0.014,0.046c0.005,0.018,0.016,0.039,0.022,0.059c0.008,0.021,0.016,0.035,0.021,0.051
				c0.769,2.075,1.157,3.118,1.927,5.193c1.428-0.53,2.145-0.788,3.576-1.3c0.103-0.036,0.202-0.069,0.304-0.107
				c0.101-0.036,0.201-0.07,0.303-0.108c0.199-0.069,0.381-0.151,0.555-0.235c0.166-0.084,0.333-0.207,0.434-0.357
				c0.022-0.038,0.045-0.078,0.071-0.111c0.027-0.036,0.038-0.079,0.048-0.104c0.033-0.08,0.107-0.168,0.13-0.243
				c0.021-0.073,0.043-0.166,0.063-0.27c0.078-0.459,0.118-0.681,0.195-1.139c0.717,2.066,1.076,3.095,1.794,5.16
				c-0.162-0.172-0.241-0.253-0.401-0.427c-0.033-0.036-0.069-0.079-0.115-0.127c-0.046-0.049-0.084-0.111-0.122-0.154
				c-0.021-0.025-0.053-0.047-0.066-0.064c-0.013-0.018-0.045-0.041-0.065-0.066c-0.166-0.174-0.332-0.39-0.516-0.565
				c-0.184-0.173-0.396-0.266-0.602-0.295c-0.117-0.019-0.231-0.028-0.344-0.022c-0.112,0.005-0.219,0.016-0.326,0.04
				c-0.107,0.023-0.214,0.051-0.321,0.087c-0.109,0.041-0.231,0.082-0.367,0.13c-0.016,0.005-0.04,0.014-0.065,0.021
				c-0.023,0.007-0.041,0.015-0.056,0.021c-1.479,0.525-2.224,0.795-3.694,1.342c0.791,2.131,1.19,3.196,1.98,5.325
				c0.025,0.072,0.063,0.15,0.104,0.229c0.041,0.084,0.082,0.159,0.125,0.225c0.092,0.148,0.191,0.272,0.296,0.375
				c0.102,0.103,0.201,0.158,0.316,0.163c0.149,0.01,0.286,0,0.396-0.022c0.112-0.023,0.222-0.06,0.334-0.103
				c0.053-0.019,0.094-0.033,0.137-0.049c0.041-0.015,0.088-0.051,0.131-0.072c0.024-0.013,0.073-0.024,0.123-0.043
				c0.054-0.018,0.097-0.038,0.146-0.056c1.604-0.594,2.406-0.885,4.015-1.453c0.057,0,0.112-0.014,0.163-0.031
				c0.048-0.021,0.104-0.048,0.146-0.053c0.031-0.003,0.084-0.003,0.133-0.019c0.051-0.016,0.102-0.033,0.153-0.054
				c0.082-0.027,0.164-0.063,0.242-0.108c0.076-0.041,0.15-0.089,0.22-0.148c0.108-0.094,0.183-0.257,0.214-0.464
				s0.043-0.433,0.053-0.678c0-0.051,0.008-0.104,0.005-0.163c0-0.054-0.002-0.11-0.002-0.159c0.005-0.1,0.014-0.196,0.022-0.298
				c0.011-0.103,0.031-0.199,0.038-0.283c0.032-0.324,0.046-0.484,0.077-0.808c0.431,1.438,0.645,2.158,1.078,3.597
				c-5.206,1.759-7.794,2.705-12.928,4.716c0.199-0.147,0.303-0.222,0.502-0.37c0.123-0.063,0.258-0.154,0.408-0.265
				c0.153-0.109,0.327-0.219,0.477-0.333c0.138-0.107,0.28-0.232,0.427-0.344c0.143-0.112,0.262-0.232,0.368-0.331
				c0.066-0.06,0.137-0.123,0.185-0.192c0.048-0.064,0.079-0.125,0.1-0.163c0.052-0.108,0.071-0.236,0.062-0.355
				c-0.01-0.12-0.021-0.252-0.055-0.362c-0.013-0.041-0.032-0.089-0.048-0.13c-0.018-0.043-0.036-0.089-0.054-0.133
				c-0.028-0.071-0.056-0.136-0.077-0.194c-0.021-0.056-0.041-0.117-0.063-0.178c-1.785-4.696-2.675-7.043-4.461-11.739
				c-0.023-0.059-0.046-0.127-0.074-0.207c-0.028-0.082-0.064-0.147-0.086-0.207c-0.054-0.146-0.107-0.276-0.182-0.387
				c-0.068-0.113-0.198-0.212-0.361-0.271c-0.044-0.016-0.107-0.036-0.192-0.054c-0.084-0.016-0.181-0.021-0.274-0.021
				c-0.156,0-0.329,0.003-0.521,0.018c-0.191,0.016-0.393,0.016-0.576,0.031c-0.199,0.02-0.399,0.058-0.6,0.083
				c-0.196,0.025-0.367,0.054-0.516,0.077c-0.262,0.021-0.395,0.034-0.66,0.059C389.679,42.701,392.272,41.753,397.48,39.979z"/>
			<path d="M411.759,45.056c-0.191,0.097-0.289,0.143-0.484,0.239c1.458,0.754,2.182,1.135,3.622,1.904
				c0.393,0.224,0.757,0.431,1.091,0.617c0.333,0.186,0.688,0.362,0.994,0.548c0.087,0.053,0.166,0.107,0.262,0.153
				s0.197,0.1,0.281,0.15c0.248,0.141,0.515,0.271,0.798,0.405c0.277,0.13,0.586,0.283,0.896,0.426
				c0.176,0.079,0.336,0.148,0.472,0.217c0.138,0.065,0.275,0.136,0.413,0.184c0.076,0.03,0.158,0.056,0.229,0.084
				c0.071,0.028,0.161,0.049,0.25,0.074c0.171,0.043,0.367,0.102,0.587,0.147c0.216,0.048,0.488,0.092,0.825,0.146
				c0.298,0.038,0.456,0.056,0.752,0.092c-0.309,0.161-0.472,0.237-0.779,0.397c-0.031,0.022-0.072,0.041-0.123,0.054
				c-0.048,0.016-0.104,0.029-0.168,0.049c-0.268,0.068-0.602,0.117-1.015,0.143c-0.414,0.023-0.859,0.052-1.292,0.031
				c-0.491-0.018-1.178-0.258-2.007-0.666c-0.826-0.408-1.688-0.856-2.587-1.333c-0.021-0.01-0.046-0.013-0.065-0.018
				c-0.019-0.002-0.03-0.019-0.036-0.025c-0.082-0.094-0.367-0.178-0.541-0.272c-0.17-0.095-0.348-0.191-0.521-0.283
				c-1.879-0.956-2.83-1.425-4.739-2.349c-0.272,0.084-0.412,0.125-0.686,0.211c0.655,2.097,0.986,3.146,1.642,5.241
				c0.076,0.25,0.163,0.464,0.245,0.641c0.081,0.179,0.24,0.323,0.451,0.45c0.135,0.082,0.341,0.134,0.622,0.136
				c0.278,0.003,0.586-0.022,0.872-0.033c0.053-0.003,0.102,0,0.146,0c0.049,0,0.098-0.01,0.146-0.019
				c0.125-0.022,0.276-0.013,0.403-0.01c0.125,0.003,0.238,0,0.349,0c0.242,0.005,0.359,0.01,0.599,0.017
				c-3.359,1.001-5.031,1.531-8.365,2.638c0.207-0.135,0.308-0.207,0.515-0.341c0.125-0.057,0.27-0.139,0.428-0.237
				c0.156-0.1,0.327-0.2,0.485-0.303c0.163-0.108,0.315-0.23,0.464-0.335c0.15-0.106,0.275-0.222,0.372-0.304
				c0.077-0.061,0.153-0.119,0.197-0.181c0.043-0.063,0.082-0.122,0.104-0.162c0.053-0.104,0.077-0.227,0.074-0.35
				c-0.003-0.122-0.01-0.255-0.038-0.368c-0.021-0.082-0.054-0.17-0.077-0.251c-0.024-0.082-0.059-0.167-0.089-0.255
				c-0.006-0.013-0.013-0.039-0.023-0.066c-0.01-0.027-0.01-0.051-0.015-0.063c-1.535-4.785-2.3-7.177-3.835-11.958
				c-0.061-0.191-0.132-0.365-0.211-0.519c-0.076-0.155-0.211-0.288-0.395-0.382c-0.153-0.079-0.389-0.132-0.694-0.156
				c-0.305-0.021-0.619-0.038-0.948-0.043c-0.19,0-0.379,0-0.561,0.002c-0.184,0.002-0.354,0.002-0.507,0.005
				c-0.256-0.003-0.384-0.005-0.641-0.008c1.899-0.63,2.849-0.938,4.749-1.538c0.269-0.063,0.519-0.135,0.742-0.216
				c0.224-0.077,0.443-0.155,0.667-0.242c0.036-0.01,0.069-0.022,0.104-0.033s0.071-0.021,0.106-0.03
				c0.192-0.06,0.381-0.12,0.572-0.187c0.19-0.065,0.392-0.133,0.602-0.195c0.191-0.057,0.382-0.113,0.589-0.164
				c0.207-0.054,0.429-0.114,0.658-0.163c0.143-0.028,0.293-0.051,0.428-0.076c0.137-0.023,0.273-0.057,0.411-0.077
				c1.062-0.155,2.216,0.064,3.316,0.554c1.104,0.489,1.836,1.404,2.21,2.728c0.283,1.013,0.219,1.885-0.188,2.626
				c-0.409,0.745-0.909,1.364-1.504,1.854c-0.267,0.223-0.543,0.424-0.82,0.604c-0.28,0.178-0.532,0.339-0.771,0.474
				C411.761,45.072,411.761,45.064,411.759,45.056z M408.228,37.62c-0.052,0.033-0.092,0.053-0.135,0.066
				c-0.046,0.013-0.096,0.011-0.125,0.013c-0.046,0.003-0.103,0.031-0.148,0.046c-0.043,0.013-0.089,0.028-0.14,0.044
				c-0.02,0.005-0.044,0.014-0.058,0.019c-0.018,0.005-0.032,0.01-0.051,0.016c-0.332,0.102-0.645,0.216-0.938,0.344
				c-0.293,0.13-0.484,0.24-0.568,0.329c-0.129,0.139-0.183,0.286-0.166,0.443c0.021,0.156,0.056,0.316,0.106,0.479
				c0.008,0.014,0.008,0.023,0.008,0.031c0.005,0.007,0.011,0.018,0.016,0.03c0.745,2.389,1.12,3.587,1.866,5.976
				c0.477-0.158,0.711-0.236,1.19-0.39c1.341-0.413,2.403-1.081,3.188-2.011c0.783-0.929,1.021-1.915,0.698-2.966
				c-0.014-0.043-0.031-0.086-0.043-0.129c-0.014-0.046-0.023-0.095-0.039-0.133c-0.291-0.854-0.936-1.514-1.774-1.889
				c-0.836-0.375-1.733-0.424-2.511-0.355c-0.051,0.006-0.121,0-0.181,0.012c-0.063,0.01-0.123,0.029-0.192,0.054
				C408.235,37.63,408.23,37.628,408.228,37.62z"/>
			<path d="M447.434,30.706c0.477,2.86,0.711,4.296,1.185,7.159c0.437,2.636-0.03,4.583-1.36,5.854
				c-1.338,1.274-2.949,2.077-4.871,2.429c-1.838,0.334-3.577,0.143-5.254-0.581c-1.681-0.721-2.784-2.236-3.296-4.579
				c-0.711-3.276-1.071-4.917-1.788-8.196c-0.002-0.015-0.005-0.043-0.014-0.082c-0.008-0.036-0.005-0.087-0.005-0.127
				c0-0.025-0.013-0.068-0.025-0.112c-0.011-0.047-0.019-0.09-0.028-0.136c-0.013-0.062-0.034-0.118-0.053-0.171
				c-0.023-0.048-0.053-0.105-0.074-0.16c-0.041-0.082-0.087-0.166-0.141-0.239c-0.057-0.077-0.125-0.153-0.209-0.204
				c-0.041-0.026-0.105-0.055-0.186-0.082c-0.082-0.028-0.173-0.049-0.265-0.063c-0.153-0.021-0.332-0.043-0.521-0.056
				c-0.188-0.013-0.385-0.046-0.565-0.057c-0.196-0.011-0.402-0.006-0.6-0.008c-0.197-0.003-0.367-0.008-0.515-0.005
				c-0.264-0.015-0.4-0.022-0.665-0.041c3.608-0.826,5.422-1.208,9.049-1.928c-0.219,0.127-0.326,0.194-0.545,0.321
				c-0.092,0.082-0.211,0.149-0.35,0.209c-0.136,0.059-0.299,0.113-0.435,0.186c-0.033,0.016-0.063,0.038-0.1,0.054
				c-0.032,0.016-0.063,0.041-0.098,0.057c-0.247,0.135-0.57,0.252-0.825,0.393c-0.255,0.144-0.453,0.28-0.513,0.4
				c-0.013,0.028-0.024,0.065-0.049,0.098c-0.021,0.028-0.038,0.062-0.051,0.097c-0.064,0.187-0.094,0.364-0.074,0.543
				c0.021,0.176,0.046,0.372,0.087,0.584c0.704,3.328,1.05,5,1.753,8.325c0.38,1.813,1.12,3.014,2.206,3.612
				c1.086,0.597,2.384,0.872,3.839,0.777c0.137-0.007,0.273-0.028,0.391-0.043c0.118-0.02,0.236-0.033,0.356-0.058
				c1.402-0.264,2.546-0.958,3.454-2.08c0.905-1.122,1.242-2.465,0.975-4.032c-0.586-3.419-0.88-5.125-1.467-8.541
				c-0.002-0.016-0.002-0.027-0.005-0.046c-0.018-0.106-0.036-0.217-0.054-0.329c-0.021-0.112-0.074-0.234-0.123-0.35
				c-0.038-0.085-0.073-0.174-0.137-0.258c-0.063-0.081-0.133-0.181-0.217-0.245c-0.033-0.024-0.103-0.048-0.177-0.076
				c-0.075-0.024-0.175-0.054-0.288-0.077c-0.13-0.027-0.293-0.049-0.472-0.07c-0.179-0.022-0.372-0.06-0.548-0.079
				c-0.209-0.021-0.438-0.028-0.637-0.056c-0.2-0.026-0.373-0.052-0.521-0.069c-0.265-0.054-0.396-0.087-0.663-0.141
				c3.348-0.607,5.018-0.888,8.377-1.402c-0.198,0.133-0.301,0.205-0.5,0.336c-0.133,0.1-0.286,0.184-0.469,0.261
				c-0.181,0.076-0.362,0.168-0.546,0.254c-0.281,0.128-0.578,0.248-0.841,0.375c-0.266,0.128-0.423,0.264-0.492,0.378
				c-0.056,0.089-0.094,0.228-0.107,0.426c-0.015,0.196-0.021,0.407-0.021,0.627c0,0.234,0.013,0.45,0.036,0.64
				c0.022,0.194,0.039,0.327,0.051,0.4C447.436,30.722,447.436,30.714,447.434,30.706z"/>
			<path d="M458.244,27.933c0.441,0.614,1.013,1.344,1.708,2.18c0.702,0.841,1.424,1.716,2.17,2.625
				c0.081,0.097,0.165,0.191,0.239,0.283c0.072,0.094,0.156,0.183,0.232,0.268c1.079,1.193,2.063,2.447,2.979,3.523
				c0.912,1.076,1.697,1.982,1.738,1.976c0.202-0.03,1.127-2.165,1.984-3.911c0.854-1.746,1.748-3.673,2.76-5.528
				c0.042-0.079,0.089-0.166,0.134-0.259c0.05-0.089,0.103-0.173,0.146-0.252c0.146-0.265,0.277-0.553,0.428-0.831
				c0.149-0.272,0.296-0.545,0.436-0.817c0.126-0.243,0.235-0.473,0.337-0.684c0.103-0.209,0.223-0.429,0.292-0.623
				c0.017-0.043,0.034-0.097,0.058-0.146c0.021-0.049,0.041-0.102,0.054-0.143c0.071-0.187,0.185-0.397,0.265-0.612
				c0.084-0.214,0.185-0.444,0.295-0.684c0.598-0.057,0.89-0.076,1.485-0.125c0.038,0.275,0.076,0.53,0.112,0.761
				c0.033,0.229,0.076,0.451,0.096,0.645c0.008,0.058,0.014,0.121,0.027,0.171c0.013,0.055,0.01,0.104,0.014,0.15
				c0.025,0.252,0.087,0.533,0.133,0.808c0.049,0.278,0.099,0.571,0.156,0.894c0.098,0.563,0.199,1.173,0.314,1.807
				c0.113,0.635,0.229,1.275,0.339,1.91c0.308,1.797,0.576,3.477,0.827,4.995c0.256,1.517,0.405,2.299,0.413,2.325
				c0.011,0.032,0.008,0.083,0.018,0.123c0.013,0.037,0.016,0.089,0.02,0.129c0.031,0.217,0.116,0.443,0.188,0.649
				c0.074,0.207,0.146,0.389,0.222,0.513c0.083,0.133,0.28,0.253,0.546,0.353c0.268,0.1,0.544,0.184,0.836,0.26
				c0.138,0.038,0.276,0.073,0.407,0.104c0.13,0.033,0.256,0.065,0.377,0.106c0.221,0.063,0.33,0.092,0.549,0.155
				c-3.187,0.168-4.777,0.281-7.964,0.541c0.33-0.151,0.492-0.222,0.822-0.37c0.066-0.005,0.13-0.02,0.188-0.051
				c0.054-0.028,0.125-0.062,0.184-0.074c0.015-0.002,0.021-0.005,0.035-0.016c0.008-0.007,0.031-0.014,0.046-0.016
				c0.239-0.053,0.517-0.2,0.76-0.313c0.242-0.112,0.403-0.24,0.479-0.379c0.113-0.209,0.192-0.403,0.223-0.579
				c0.034-0.171,0.047-0.336,0.036-0.49c-0.007-0.091-0.018-0.181-0.036-0.271c-0.016-0.093-0.035-0.18-0.055-0.252
				c-0.019-0.06-0.037-0.118-0.052-0.172c-0.013-0.051-0.021-0.108-0.024-0.17c-0.723-4.168-1.103-6.251-1.857-10.411
				c-0.279,0.519-0.73,1.347-1.335,2.485c-0.606,1.137-1.248,2.36-1.897,3.653c-0.451,0.899-0.891,1.797-1.315,2.667
				c-0.426,0.87-0.795,1.632-1.113,2.282c-0.057,0.114-0.116,0.227-0.164,0.342c-0.054,0.111-0.113,0.236-0.159,0.361
				c-0.017,0.047-0.031,0.105-0.058,0.164c-0.03,0.057-0.058,0.114-0.086,0.182c-0.209,0.497-0.403,0.966-0.577,1.395
				c-0.17,0.429-0.311,0.79-0.311,0.79c-0.021,0.003-0.242-0.315-0.468-0.604c-0.229-0.289-0.464-0.684-0.707-0.926
				c-0.014-0.015-0.023-0.033-0.027-0.043c-0.041-0.1-0.168-0.222-0.253-0.323c-0.079-0.103-0.163-0.202-0.239-0.302
				c-2.235-2.859-4.103-5.205-5.574-6.848c-1.471-1.637-2.365-2.62-2.667-2.973c0.166,3.549,0.259,5.323,0.438,8.87
				c0.013,0.072,0.018,0.163,0.013,0.257c-0.008,0.094,0,0.209,0.014,0.324c0.013,0.145,0.011,0.325,0.018,0.512
				c0.008,0.184,0.023,0.37,0.049,0.553c0.005,0.031,0.007,0.062,0.014,0.094c0.005,0.031,0.002,0.055,0.005,0.069
				c0.032,0.229,0.082,0.445,0.154,0.652c0.069,0.209,0.168,0.388,0.293,0.522c0.098,0.109,0.266,0.201,0.482,0.268
				c0.216,0.062,0.479,0.161,0.693,0.166c0.029,0,0.068-0.002,0.106,0.006c0.038,0.01,0.071,0.005,0.101,0.007
				c0.061,0.006,0.152,0.041,0.231,0.057c0.079,0.014,0.158,0.028,0.228,0.052c0.298,0.056,0.445,0.086,0.74,0.146
				c-2.661,0.331-3.986,0.512-6.644,0.907c0.166-0.101,0.248-0.153,0.408-0.25c0.054-0.008,0.092-0.023,0.133-0.046
				c0.043-0.021,0.092-0.038,0.135-0.063c0.046-0.029,0.089-0.065,0.143-0.089c0.049-0.022,0.103-0.051,0.15-0.071
				c0.271-0.132,0.528-0.299,0.769-0.448c0.239-0.15,0.407-0.315,0.48-0.478c0.063-0.158,0.089-0.453,0.082-0.867
				c-0.005-0.415-0.007-0.868-0.053-1.314c-0.011-0.105-0.025-0.211-0.031-0.312c-0.005-0.099-0.025-0.217-0.032-0.317
				c-0.036-0.495-0.011-1.083-0.027-1.667c-0.021-0.581-0.063-1.172-0.101-1.753c-0.078-1.225-0.143-2.426-0.233-3.553
				c-0.093-1.129-0.163-1.999-0.191-2.617c-0.019-0.403-0.038-0.78-0.077-1.12c-0.035-0.339-0.076-0.673-0.125-1.011
				c-0.018-0.137-0.038-0.285-0.056-0.438c-0.021-0.152-0.039-0.305-0.06-0.458c-0.015-0.107-0.038-0.211-0.051-0.312
				c-0.013-0.1-0.024-0.207-0.041-0.313c0.623-0.094,0.938-0.135,1.565-0.228c0.073,0.146,0.161,0.316,0.268,0.514
				c0.11,0.193,0.247,0.405,0.372,0.617c0.048,0.084,0.092,0.176,0.14,0.265c0.052,0.089,0.122,0.176,0.177,0.257
				c0.024,0.041,0.048,0.087,0.079,0.128c0.035,0.045,0.061,0.084,0.086,0.13C458.25,27.946,458.244,27.943,458.244,27.933z"/>
			<path d="M506.184,28.856c0,0.031,0.003,0.054,0.003,0.065c0,0.016-0.004,0.031-0.004,0.039s-0.006,0.019-0.006,0.032
				c-0.038,1.298-0.729,2.404-2.063,3.332c-1.334,0.926-2.864,1.346-4.325,1.507c-0.081,0.008-0.165,0.023-0.246,0.023
				c-0.075,0-0.163-0.003-0.253-0.003c-0.229,0-0.453-0.019-0.674-0.043c-0.219-0.026-0.439-0.057-0.667-0.105
				c-0.38-0.081-0.564-0.127-0.942-0.211c0.003,1.948,0.003,2.919,0.006,4.867c0,0.265,0.015,0.489,0.042,0.681
				c0.024,0.194,0.131,0.386,0.289,0.571c0.104,0.117,0.289,0.222,0.546,0.298c0.261,0.079,0.534,0.153,0.816,0.237
				c0.052,0.015,0.101,0.031,0.151,0.039c0.054,0.007,0.104,0.02,0.155,0.032c0.131,0.037,0.268,0.071,0.385,0.109
				c0.117,0.041,0.229,0.069,0.331,0.104c0.225,0.075,0.339,0.118,0.563,0.195c-3.479-0.036-5.219-0.027-8.695,0.038
				c0.235-0.065,0.354-0.106,0.588-0.173c0.139-0.018,0.293-0.054,0.475-0.099c0.182-0.049,0.377-0.099,0.552-0.154
				c0.165-0.051,0.344-0.12,0.516-0.173c0.168-0.06,0.323-0.127,0.457-0.185c0.08-0.032,0.168-0.063,0.231-0.111
				c0.069-0.049,0.126-0.092,0.154-0.122c0.051-0.064,0.103-0.148,0.144-0.217c0.039-0.071,0.067-0.146,0.084-0.225
				c0.016-0.077,0.03-0.155,0.037-0.231c0.01-0.079,0.01-0.146,0.01-0.209c0-0.048,0-0.084,0-0.122c0-0.041,0.004-0.082,0-0.107
				c-0.01-0.041-0.029-0.092-0.029-0.13c0-0.041,0-0.072,0-0.102c-0.041-5.022-0.063-7.536-0.104-12.559
				c-0.005-0.202-0.011-0.385-0.039-0.558c-0.033-0.168-0.12-0.333-0.27-0.479c-0.122-0.123-0.331-0.241-0.607-0.356
				c-0.281-0.114-0.58-0.219-0.89-0.326c-0.18-0.057-0.357-0.113-0.531-0.164c-0.17-0.054-0.334-0.102-0.479-0.145
				c-0.24-0.079-0.365-0.12-0.604-0.196c1.979-0.041,2.972-0.051,4.949-0.057c0.273,0.016,0.53,0.019,0.785,0.008
				c0.257-0.008,0.498-0.011,0.734-0.011c0.053,0,0.094,0,0.132,0s0.072,0,0.107,0c0.19-0.005,0.406-0.021,0.613-0.018
				c0.206,0.002,0.422,0.002,0.638,0.005c0.18,0,0.379,0.003,0.575,0.003c0.199,0,0.4,0.016,0.599,0.025
				c0.188,0.008,0.401,0.022,0.618,0.056c0.218,0.033,0.438,0.076,0.653,0.125c1.114,0.252,2.151,0.8,3.087,1.66
				c0.932,0.855,1.397,2.044,1.407,3.559C506.184,28.866,506.184,28.863,506.184,28.856z M499.49,24.743c-0.057,0-0.117,0-0.188,0
				c-0.092,0-0.176-0.002-0.261-0.002c-0.084,0-0.165-0.003-0.258-0.003c-0.295,0.005-0.598,0.038-0.879,0.069
				c-0.276,0.029-0.469,0.075-0.579,0.14c-0.163,0.092-0.262,0.214-0.287,0.367c-0.024,0.158-0.035,0.318-0.035,0.489
				c0,0.016,0,0.027,0,0.035c0,0.009,0,0.019,0,0.033c0.002,2.584,0.002,3.875,0.005,6.462c0.316,0.035,0.472,0.057,0.784,0.098
				c0.211,0.046,0.424,0.073,0.625,0.092c0.2,0.015,0.4,0.025,0.598,0.028c1.354,0.008,2.508-0.313,3.473-0.979
				c0.963-0.663,1.463-1.601,1.488-2.822c0-0.049,0.002-0.089,0.002-0.127c0-0.041,0.002-0.074,0.002-0.104
				c-0.004-1.014-0.354-1.838-0.971-2.396c-0.614-0.559-1.293-0.948-2.008-1.151c-0.232-0.064-0.462-0.112-0.689-0.148
				c-0.227-0.035-0.453-0.071-0.66-0.079C499.602,24.741,499.54,24.743,499.49,24.743z"/>
			<path d="M518.174,23.844c0.038,0.018,0.067,0.029,0.117,0.032c0.047,0.002,0.095,0.005,0.147,0.011
				c0.035,0.003,0.079,0.005,0.125,0.008c0.047,0.003,0.086,0.003,0.123,0.005c2.84,0.197,5.243,1.199,7.155,2.975
				c1.913,1.775,2.761,4.036,2.531,6.695c-0.229,2.676-1.527,4.734-3.788,6.159c-2.266,1.426-4.803,2.007-7.643,1.792
				c-2.665-0.201-4.895-1.181-6.702-2.983c-1.81-1.804-2.695-3.928-2.61-6.396c0.079-2.409,1.131-4.427,3.198-6.02
				c2.066-1.593,4.529-2.353,7.345-2.256C518.17,23.862,518.174,23.852,518.174,23.844z M518.057,25.136
				c-2.457-0.09-4.443,0.586-5.939,1.99c-1.494,1.408-2.27,3.101-2.321,5.051c-0.058,1.877,0.645,3.641,2.016,5.27
				c1.377,1.628,3.209,2.638,5.377,2.842c0.049,0.005,0.094,0.007,0.141,0.01c0.042,0.003,0.093-0.003,0.117,0.006
				c0.028,0.008,0.068,0.035,0.111,0.039c0.045,0.002,0.09,0,0.141,0.005c2.093,0.146,3.959-0.38,5.627-1.588
				c1.672-1.208,2.617-2.86,2.824-4.983c0.201-2.076-0.422-3.996-1.912-5.739c-1.492-1.744-3.462-2.705-5.882-2.852
				c-0.017,0-0.042-0.003-0.066-0.005c-0.021-0.002-0.048,0-0.063-0.002c-0.035-0.002-0.064-0.006-0.08-0.006
				c-0.021,0-0.047-0.003-0.08-0.005C518.059,25.152,518.057,25.144,518.057,25.136z"/>
			<path d="M550.476,35.729c-0.017,0.186-0.036,0.364-0.056,0.533c-0.021,0.168-0.05,0.333-0.078,0.5
				c-0.338,1.87-1.095,3.287-2.249,4.264c-1.159,0.977-2.366,1.667-3.6,2.096c-0.851,0.295-1.654,0.502-2.407,0.603
				c-0.753,0.102-1.339,0.145-1.75,0.135c-0.24-0.005-0.509-0.016-0.813-0.038c-0.303-0.021-0.609-0.054-0.93-0.1
				c-0.169-0.022-0.342-0.055-0.506-0.084c-0.17-0.033-0.341-0.055-0.507-0.079c-0.229-0.038-0.475-0.095-0.706-0.132
				c-0.238-0.041-0.468-0.085-0.685-0.131c-0.365-0.08-0.718-0.152-1.047-0.209c-0.328-0.059-0.599-0.099-0.82-0.13
				c-2.162-0.271-3.246-0.399-5.412-0.634c0.234-0.051,0.35-0.077,0.58-0.128c0.125-0.018,0.265-0.04,0.425-0.065
				c0.157-0.027,0.323-0.057,0.479-0.087c0.299-0.056,0.598-0.132,0.873-0.216c0.273-0.084,0.471-0.196,0.586-0.293
				c0.035-0.027,0.063-0.054,0.084-0.079c0.021-0.026,0.051-0.051,0.064-0.063c0.12-0.115,0.207-0.286,0.27-0.427
				c0.059-0.14,0.097-0.3,0.119-0.483c0.607-5.024,0.91-7.541,1.515-12.563c0.022-0.198,0.038-0.38,0.034-0.553
				c-0.006-0.17-0.076-0.344-0.205-0.513c-0.104-0.135-0.29-0.272-0.558-0.405c-0.271-0.135-0.574-0.25-0.851-0.37
				c-0.17-0.071-0.337-0.146-0.505-0.207c-0.163-0.056-0.32-0.117-0.461-0.175c-0.229-0.109-0.344-0.163-0.573-0.273
				c1.969,0.215,2.948,0.326,4.915,0.571c0.231,0.049,0.511,0.079,0.837,0.104c0.325,0.027,0.697,0.054,1.088,0.095
				c0.385,0.046,0.815,0.102,1.255,0.147c0.438,0.044,0.901,0.098,1.388,0.163c0.323,0.05,0.646,0.099,0.969,0.148
				c0.32,0.053,0.647,0.11,0.965,0.173c0.229,0.046,0.455,0.104,0.669,0.15c0.213,0.051,0.429,0.102,0.641,0.163
				c0.453,0.133,0.945,0.323,1.494,0.572c0.547,0.252,1.115,0.566,1.674,0.956c1.048,0.732,1.979,1.701,2.781,2.898
				c0.807,1.196,1.135,2.593,1.014,4.186C550.475,35.741,550.475,35.739,550.476,35.729z M536.182,28.2
				c-0.635,4.943-0.945,7.421-1.58,12.364c-0.033,0.247-0.03,0.466,0.016,0.667c0.043,0.199,0.217,0.37,0.377,0.522
				c0.017,0.016,0.033,0.038,0.058,0.049c0.021,0.01,0.063,0.015,0.11,0.025c0.201,0.048,0.572,0.165,1.065,0.278
				c0.495,0.112,1.046,0.211,1.647,0.292c0.136,0.021,0.264,0.041,0.391,0.057c0.133,0.019,0.264,0.025,0.379,0.033
				c0.523,0.033,1.083,0.089,1.613,0.089c0.529,0,1-0.041,1.396-0.138c0.308-0.076,0.655-0.166,1.04-0.254
				c0.389-0.087,0.804-0.2,1.224-0.355c0.816-0.295,1.627-0.819,2.426-1.55c0.793-0.729,1.357-1.871,1.694-3.428
				c0.007-0.031,0.014-0.055,0.019-0.079c0.002-0.025,0.005-0.054,0.014-0.082c0.001-0.015,0.004-0.031,0.01-0.064
				c0.006-0.029,0.011-0.054,0.014-0.065c0.281-1.674-0.048-3.31-1.03-4.896c-0.98-1.585-2.523-2.729-4.525-3.451
				c-0.206-0.073-0.578-0.173-1.129-0.285c-0.548-0.11-1.139-0.204-1.768-0.273c-0.018-0.002-0.037-0.005-0.054-0.008
				c-0.016-0.002-0.038-0.005-0.056-0.007c-0.628-0.087-1.222-0.148-1.771-0.182c-0.554-0.033-0.931-0.011-1.14,0.048
				c-0.147,0.047-0.256,0.131-0.321,0.264c-0.06,0.132-0.103,0.283-0.123,0.453C536.18,28.213,536.18,28.211,536.182,28.2z"/>
			<path d="M566.797,31.356c-0.357,1.477-0.527,2.218-0.884,3.697c-0.063-0.396-0.099-0.595-0.165-0.986
				c-0.02-0.069-0.034-0.144-0.044-0.222c-0.013-0.082-0.031-0.164-0.048-0.225c-0.051-0.211-0.092-0.436-0.152-0.614
				c-0.063-0.181-0.179-0.358-0.367-0.522c-0.121-0.106-0.271-0.207-0.441-0.291c-0.162-0.081-0.335-0.16-0.502-0.207
				c-0.1-0.028-0.211-0.051-0.306-0.079c-0.095-0.027-0.196-0.053-0.303-0.076c-1.305-0.296-1.951-0.44-3.256-0.721
				c-0.041,0.008-0.086,0.005-0.12,0c-0.035-0.008-0.076-0.016-0.131-0.028c-0.215-0.043-0.423-0.079-0.632-0.106
				c-0.203-0.025-0.371-0.009-0.498,0.061c-0.08,0.046-0.146,0.144-0.19,0.283c-0.045,0.143-0.088,0.291-0.121,0.457
				c-0.003,0.015-0.013,0.031-0.016,0.046s-0.003,0.039-0.009,0.061c-0.005,0.021-0.01,0.036-0.014,0.052
				c-0.442,2.169-0.67,3.258-1.112,5.428c1.479,0.301,2.226,0.454,3.7,0.775c0.105,0.022,0.207,0.051,0.31,0.071
				c0.106,0.022,0.209,0.043,0.312,0.063c0.209,0.048,0.397,0.076,0.589,0.094c0.187,0.019,0.383-0.002,0.548-0.082
				c0.044-0.018,0.085-0.041,0.123-0.056c0.04-0.017,0.081-0.049,0.104-0.063c0.068-0.048,0.177-0.084,0.232-0.137
				c0.056-0.049,0.125-0.112,0.192-0.192c0.31-0.346,0.462-0.52,0.772-0.868c-0.484,2.133-0.724,3.198-1.212,5.329
				c-0.045-0.227-0.069-0.344-0.118-0.573c-0.009-0.048-0.014-0.104-0.025-0.166c-0.013-0.063-0.018-0.144-0.028-0.199
				c-0.005-0.033-0.015-0.062-0.019-0.087c-0.002-0.025-0.017-0.057-0.022-0.089c-0.048-0.235-0.072-0.517-0.137-0.757
				c-0.063-0.245-0.187-0.432-0.345-0.563c-0.094-0.079-0.187-0.151-0.281-0.204c-0.098-0.054-0.199-0.1-0.298-0.138
				c-0.099-0.035-0.198-0.068-0.313-0.092c-0.113-0.025-0.235-0.054-0.377-0.084c-0.018-0.002-0.039-0.008-0.063-0.014
				c-0.025-0.005-0.053-0.008-0.067-0.013c-1.521-0.329-2.284-0.492-3.808-0.801c-0.457,2.226-0.688,3.335-1.146,5.563
				c-0.016,0.073-0.024,0.158-0.035,0.25c-0.01,0.096-0.016,0.18-0.016,0.255c0,0.174,0.021,0.331,0.054,0.475
				c0.036,0.141,0.1,0.243,0.19,0.309c0.127,0.086,0.241,0.15,0.346,0.187c0.104,0.038,0.211,0.07,0.331,0.097
				c0.054,0.01,0.095,0.015,0.138,0.025c0.041,0.013,0.107,0.005,0.152,0.01c0.028,0,0.076,0.013,0.127,0.022
				c0.055,0.011,0.099,0.023,0.154,0.033c1.662,0.336,2.484,0.515,4.143,0.874c0.045,0.028,0.1,0.049,0.152,0.06
				c0.054,0.01,0.115,0.018,0.152,0.035c0.028,0.014,0.063,0.039,0.116,0.049c0.052,0.013,0.105,0.024,0.156,0.037
				c0.085,0.019,0.174,0.03,0.26,0.033c0.091,0.003,0.168,0.003,0.262-0.01c0.143-0.021,0.292-0.123,0.425-0.286
				c0.135-0.159,0.272-0.339,0.41-0.546c0.028-0.041,0.057-0.089,0.086-0.14c0.028-0.048,0.055-0.089,0.08-0.13
				c0.057-0.082,0.114-0.166,0.18-0.245c0.061-0.081,0.119-0.152,0.167-0.217c0.199-0.26,0.302-0.39,0.501-0.646
				c-0.395,1.448-0.594,2.174-0.984,3.625c-5.322-1.239-7.998-1.794-13.362-2.783c0.243-0.021,0.365-0.033,0.61-0.054
				c0.141,0.01,0.295,0.01,0.482-0.003c0.186-0.01,0.39-0.014,0.574-0.033c0.169-0.02,0.358-0.056,0.539-0.073
				c0.179-0.021,0.35-0.059,0.491-0.087c0.081-0.015,0.169-0.036,0.246-0.065c0.077-0.036,0.144-0.064,0.179-0.086
				c0.102-0.069,0.178-0.166,0.235-0.273s0.115-0.222,0.146-0.334c0.01-0.041,0.021-0.095,0.03-0.138
				c0.015-0.049,0.019-0.092,0.029-0.139c0.014-0.077,0.029-0.143,0.042-0.201c0.013-0.062,0.021-0.125,0.034-0.187
				c0.971-4.927,1.452-7.393,2.424-12.318c0.013-0.062,0.025-0.133,0.041-0.216c0.017-0.085,0.032-0.156,0.045-0.217
				c0.034-0.152,0.05-0.295,0.05-0.428c0-0.132-0.057-0.275-0.16-0.421c-0.031-0.035-0.064-0.086-0.128-0.146
				c-0.062-0.062-0.146-0.108-0.226-0.16c-0.127-0.082-0.28-0.171-0.448-0.26c-0.166-0.086-0.344-0.194-0.505-0.275
				c-0.174-0.09-0.369-0.162-0.55-0.244c-0.174-0.082-0.337-0.15-0.476-0.209c-0.231-0.118-0.35-0.177-0.581-0.297
				C558.783,29.574,561.467,30.13,566.797,31.356z"/>
			<path d="M588.504,36.522c0.298,0.091,0.591,0.176,0.854,0.25c0.269,0.071,0.513,0.152,0.757,0.229
				c0.368,0.115,0.721,0.235,1.055,0.365c0.331,0.13,0.665,0.273,1,0.431c0.314,0.148,0.632,0.314,0.952,0.492
				c0.318,0.173,0.643,0.37,0.981,0.577c0.277,0.16,0.417,0.239,0.698,0.403c-0.578,1.769-0.859,2.659-1.438,4.428
				c-0.063-0.627-0.102-0.94-0.168-1.57c-0.01-0.084-0.024-0.173-0.041-0.27c-0.016-0.094-0.021-0.194-0.028-0.291
				c-0.031-0.326-0.099-0.652-0.167-0.951c-0.062-0.298-0.195-0.574-0.393-0.765c-0.031-0.025-0.057-0.058-0.087-0.082
				c-0.036-0.025-0.064-0.068-0.104-0.106c-0.229-0.207-0.711-0.451-1.276-0.74c-0.569-0.284-1.213-0.534-1.832-0.784
				c-0.114-0.047-0.231-0.101-0.352-0.136c-0.119-0.036-0.253-0.079-0.372-0.114c-0.055-0.017-0.101-0.036-0.153-0.052
				c-0.051-0.016-0.096-0.03-0.127-0.036c-0.048-0.008-0.114-0.01-0.158-0.022c-0.046-0.013-0.095-0.027-0.146-0.045
				c-2.317-0.658-4.596-0.459-6.583,0.458c-1.995,0.915-3.267,2.458-3.848,4.605c-0.553,2.061-0.206,4.046,0.991,5.974
				c1.199,1.925,2.985,3.22,5.394,3.937c0.099,0.03,0.195,0.06,0.299,0.082c0.099,0.023,0.203,0.051,0.302,0.079
				c0.924,0.255,1.909,0.353,2.864,0.349c0.946-0.003,1.669-0.116,2.153-0.366c0.173-0.087,0.355-0.205,0.543-0.346
				c0.182-0.14,0.366-0.288,0.544-0.442c0.158-0.139,0.317-0.283,0.481-0.437c0.162-0.147,0.302-0.277,0.43-0.382
				c0.394-0.339,0.587-0.508,0.981-0.844c-1.068,1.733-1.593,2.604-2.646,4.344c-0.393-0.003-0.588-0.011-0.979-0.013
				c-0.206,0.013-0.41,0.021-0.591,0.02c-0.183-0.002-0.36-0.005-0.536-0.018c-0.731-0.053-1.502-0.187-2.29-0.372
				c-0.784-0.184-1.771-0.478-2.932-0.836c-0.274-0.086-0.548-0.185-0.817-0.299c-0.272-0.114-0.541-0.25-0.806-0.388
				c-1.796-0.939-3.346-2.343-4.587-4.241c-1.238-1.896-1.634-3.918-1.145-6.075c0.007-0.028,0.02-0.057,0.025-0.079
				c0.004-0.025,0.01-0.051,0.018-0.079c0.005-0.015,0.013-0.035,0.021-0.068c0.007-0.027,0.007-0.048,0.013-0.063
				c0.684-2.52,2.304-4.312,4.915-5.32c2.606-1.01,5.396-1.14,8.32-0.37C588.498,36.531,588.5,36.53,588.504,36.522z"/>
			<path d="M607.601,43.435c0.03,0.027,0.063,0.051,0.109,0.065c0.044,0.019,0.088,0.039,0.139,0.057
				c0.032,0.013,0.067,0.024,0.111,0.044c0.046,0.02,0.081,0.033,0.114,0.046c2.692,1.032,4.733,2.712,6.069,4.982
				c1.336,2.27,1.496,4.684,0.499,7.161c-1.004,2.49-2.872,4.071-5.482,4.756c-2.61,0.687-5.236,0.487-7.924-0.564
				c-2.525-0.986-4.393-2.583-5.609-4.844c-1.225-2.262-1.471-4.557-0.66-6.895c0.784-2.279,2.396-3.896,4.858-4.805
				c2.466-0.911,5.069-0.911,7.768,0.018C607.596,43.45,607.599,43.446,607.601,43.435z M607.101,44.643
				c-2.351-0.818-4.469-0.765-6.327,0.135c-1.857,0.9-3.101,2.294-3.724,4.143c-0.601,1.779-0.444,3.669,0.409,5.635
				c0.853,1.966,2.303,3.394,4.371,4.318c0.051,0.019,0.096,0.033,0.137,0.048c0.041,0.017,0.083,0.031,0.106,0.047
				c0.025,0.016,0.062,0.049,0.103,0.063c0.041,0.016,0.081,0.036,0.131,0.054c1.979,0.763,3.947,0.812,5.921,0.156
				c1.973-0.658,3.379-1.95,4.196-3.918c0.803-1.925,0.752-3.949-0.184-6.065c-0.937-2.113-2.563-3.62-4.857-4.483
				c-0.018-0.005-0.035-0.01-0.059-0.021c-0.022-0.011-0.045-0.022-0.061-0.03c-0.035-0.014-0.061-0.023-0.076-0.028
				c-0.019-0.005-0.054-0.015-0.085-0.028C607.101,44.654,607.099,44.651,607.101,44.643z"/>
			<path d="M634.152,56.48c-0.353,0.143-0.688,0.286-1.014,0.408c-0.343,0.123-0.707,0.255-1.054,0.399
				c-0.348,0.148-0.729,0.314-1.141,0.49c-1.412,0.596-2.717,1.145-3.872,1.665c-1.157,0.518-2.338,1.182-3.356,1.577
				c-0.079,0.031-0.174,0.057-0.249,0.095c-0.078,0.043-0.167,0.094-0.246,0.137c-0.991,0.533-2.148,1.048-3.261,1.622
				c-1.105,0.571-2.32,1.187-3.649,1.861c3.174,1.405,4.752,2.126,7.89,3.63c0.122,0.077,0.225,0.135,0.321,0.173
				c0.099,0.041,0.217,0.087,0.328,0.118c0.098,0.023,0.22,0.046,0.332,0.074c0.114,0.03,0.234,0.048,0.366,0.061
				c0.316,0.033,0.606,0.017,0.876-0.054c0.27-0.063,0.512-0.146,0.732-0.239c0.224-0.097,0.423-0.195,0.599-0.301
				c0.166-0.107,0.321-0.184,0.468-0.235c0.413-0.166,0.622-0.25,1.038-0.413c-1.42,1.268-2.129,1.905-3.534,3.19
				c-0.194-0.24-0.293-0.36-0.489-0.602c-5.012-2.45-7.544-3.612-12.642-5.811c7.231-3.836,10.967-5.648,18.638-9.027
				c-3.452-1.672-5.183-2.479-8.675-4.038c-0.107-0.03-0.255-0.078-0.438-0.144c-0.181-0.065-0.38-0.125-0.57-0.178
				c-0.244-0.071-0.475-0.144-0.691-0.197c-0.214-0.051-0.376-0.063-0.458-0.056c-0.136,0.011-0.309,0.087-0.498,0.25
				c-0.19,0.161-0.382,0.339-0.563,0.529c-0.112,0.121-0.224,0.248-0.33,0.379c-0.105,0.13-0.188,0.231-0.269,0.318
				c-0.311,0.329-0.471,0.499-0.777,0.831c0.736-1.792,1.107-2.691,1.848-4.48c0.359,0.254,0.538,0.382,0.896,0.64
				c5.899,2.574,8.821,3.943,14.607,6.837C634.891,56.171,634.497,56.335,634.152,56.48z"/>
			<path d="M634.896,72.538c-0.122,0.235-0.22,0.437-0.284,0.617c-0.065,0.184-0.054,0.408,0.001,0.647
				c0.041,0.152,0.155,0.337,0.355,0.541c0.2,0.203,0.447,0.407,0.656,0.604c0.041,0.036,0.066,0.071,0.1,0.11
				c0.034,0.032,0.079,0.059,0.123,0.086c0.104,0.073,0.201,0.188,0.293,0.28c0.089,0.093,0.179,0.174,0.258,0.25
				c0.165,0.177,0.247,0.269,0.413,0.441c-3.133-1.71-4.708-2.542-7.885-4.153c0.245,0.055,0.361,0.076,0.605,0.127
				c0.133,0.055,0.293,0.101,0.479,0.144c0.186,0.044,0.376,0.097,0.563,0.135c0.171,0.033,0.374,0.054,0.554,0.089
				c0.178,0.031,0.354,0.047,0.5,0.061c0.087,0.007,0.17,0.015,0.255,0.007c0.084-0.01,0.163-0.019,0.197-0.03
				c0.079-0.028,0.161-0.087,0.231-0.125c0.072-0.043,0.133-0.091,0.185-0.156c0.052-0.058,0.101-0.122,0.144-0.183
				c0.044-0.066,0.076-0.122,0.104-0.179c0.021-0.041,0.048-0.079,0.066-0.112c0.016-0.033,0.035-0.071,0.044-0.097
				c0.013-0.039,0.02-0.093,0.038-0.125c0.02-0.033,0.032-0.066,0.048-0.095c2.31-4.431,3.46-6.644,5.769-11.073
				c0.01-0.014,0.028-0.038,0.048-0.071c0.02-0.036,0.056-0.069,0.081-0.1c0.016-0.021,0.032-0.062,0.057-0.103
				c0.021-0.044,0.032-0.084,0.054-0.125c0.028-0.056,0.059-0.11,0.076-0.164c0.019-0.051,0.025-0.112,0.041-0.17
				c0.021-0.089,0.045-0.184,0.054-0.275c0.008-0.092,0.001-0.196-0.037-0.293c-0.014-0.041-0.051-0.104-0.09-0.176
				c-0.044-0.073-0.107-0.149-0.169-0.219c-0.104-0.114-0.225-0.25-0.362-0.382c-0.143-0.132-0.28-0.285-0.414-0.413
				c-0.148-0.135-0.32-0.262-0.477-0.393c-0.148-0.13-0.284-0.241-0.404-0.337c-0.192-0.184-0.287-0.274-0.484-0.456
				c3.363,1.703,5.033,2.58,8.35,4.396c-0.255-0.043-0.38-0.063-0.635-0.106c-0.125,0-0.268-0.022-0.41-0.065
				c-0.147-0.043-0.304-0.113-0.457-0.144c-0.035-0.008-0.076-0.008-0.114-0.018c-0.034-0.01-0.084-0.016-0.119-0.022
				c-0.28-0.059-0.606-0.176-0.902-0.234c-0.296-0.063-0.532-0.082-0.658-0.028c-0.029,0.013-0.063,0.03-0.099,0.038
				c-0.038,0.008-0.072,0.019-0.103,0.036c-0.171,0.097-0.312,0.216-0.409,0.362c-0.096,0.145-0.194,0.311-0.295,0.496
				C638.454,65.841,637.267,68.074,634.896,72.538z"/>
			<path d="M653.956,83.293c-0.13-0.509-0.228-0.896-0.291-1.129c-0.034-0.132-0.086-0.293-0.145-0.469
				c-0.057-0.181-0.151-0.497-0.278-0.94c-0.14-0.488-0.274-0.975-0.419-1.461c-0.146-0.491-0.323-1.007-0.448-1.496
				c-0.024-0.1-0.054-0.212-0.095-0.318c-0.042-0.107-0.061-0.221-0.086-0.319c-0.563-2.191-1.397-4.398-2.101-6.394
				c-0.698-1.993-1.227-3.413-1.551-4.257c-1.984,3.479-2.976,5.219-4.957,8.697c-0.034,0.054-0.066,0.117-0.11,0.191
				c-0.042,0.071-0.083,0.164-0.135,0.231c-0.05,0.066-0.12,0.156-0.178,0.258c-0.058,0.103-0.11,0.207-0.172,0.313
				c-0.047,0.082-0.098,0.163-0.143,0.24c-0.05,0.079-0.095,0.163-0.136,0.242c-0.115,0.209-0.207,0.456-0.29,0.69
				c-0.082,0.235-0.128,0.443-0.126,0.623c0,0.176,0.082,0.372,0.25,0.594c0.171,0.222,0.353,0.446,0.55,0.666
				c0.06,0.071,0.12,0.133,0.169,0.188c0.047,0.053,0.102,0.11,0.158,0.158c0.215,0.219,0.315,0.329,0.529,0.551
				c-2.383-1.389-3.587-2.067-5.995-3.398c0.192,0.021,0.296,0.031,0.488,0.057c0.085,0.027,0.168,0.046,0.256,0.057
				c0.083,0.01,0.169,0.025,0.263,0.043c0.313,0.051,0.622,0.089,0.924,0.118c0.298,0.025,0.533-0.011,0.705-0.11
				c0.147-0.079,0.316-0.26,0.511-0.548c0.193-0.291,0.407-0.609,0.606-0.948c0.092-0.158,0.184-0.323,0.273-0.486
				c0.092-0.161,0.171-0.303,0.251-0.441c2.572-4.563,3.859-6.842,6.43-11.402c0.564,0.315,0.839,0.477,1.401,0.798
				c0.071,0.291,0.16,0.632,0.249,1.031c0.092,0.403,0.245,0.896,0.447,1.475c0.336,0.964,0.705,2.032,1.102,3.195
				c0.393,1.164,0.779,2.353,1.159,3.556c0.782,2.465,1.475,4.78,2.104,6.927c0.622,2.141,0.994,3.438,1.148,3.888
				c2.134-3.321,3.199-4.98,5.33-8.306c0.061-0.092,0.126-0.192,0.197-0.304c0.071-0.109,0.146-0.225,0.219-0.341
				c0.073-0.117,0.152-0.228,0.226-0.34c0.07-0.111,0.128-0.216,0.196-0.323c0.162-0.261,0.32-0.505,0.442-0.729
				c0.123-0.224,0.174-0.399,0.174-0.53c-0.003-0.176-0.085-0.39-0.255-0.627c-0.168-0.239-0.373-0.483-0.556-0.718
				c-0.023-0.031-0.051-0.052-0.058-0.072c-0.013-0.015-0.03-0.029-0.044-0.04c-0.058-0.054-0.124-0.153-0.184-0.227
				c-0.062-0.077-0.129-0.153-0.188-0.227c-0.117-0.174-0.168-0.266-0.285-0.437c2.483,1.564,3.712,2.368,6.164,3.999
				c-0.325-0.084-0.48-0.127-0.809-0.208c-0.062-0.003-0.121-0.01-0.165-0.024c-0.046-0.014-0.106-0.031-0.163-0.047
				c-0.293-0.084-0.587-0.135-0.836-0.181c-0.253-0.044-0.5-0.051-0.739-0.022c-0.123,0.011-0.275,0.125-0.474,0.337
				c-0.192,0.214-0.392,0.461-0.587,0.716c-0.109,0.143-0.226,0.289-0.321,0.438c-0.098,0.147-0.174,0.283-0.253,0.403
				c-0.084,0.13-0.173,0.262-0.268,0.405c-2.862,4.407-4.295,6.61-7.156,11.021c-0.428-0.281-0.639-0.419-1.07-0.699
				C654.388,85.001,654.088,83.806,653.956,83.293z"/>
			<path d="M684.844,88.295c-0.043,0.022-0.089,0.038-0.125,0.038c-0.041,0-0.073,0.014-0.107,0.023
				c-0.175,0.056-0.32,0.132-0.417,0.242c-0.098,0.109-0.202,0.239-0.313,0.388c-0.021,0.025-0.035,0.043-0.052,0.059
				c-0.019,0.017-0.032,0.043-0.052,0.066c-3.063,4.005-4.596,6.003-7.66,10.008c-0.027,0.035-0.057,0.062-0.07,0.082
				c-0.017,0.019-0.025,0.041-0.043,0.064c-0.123,0.161-0.228,0.311-0.317,0.456c-0.089,0.147-0.119,0.339-0.102,0.57
				c0.013,0.164,0.104,0.365,0.27,0.604c0.167,0.236,0.384,0.479,0.567,0.711c0.031,0.041,0.053,0.086,0.078,0.127
				c0.027,0.038,0.068,0.076,0.104,0.109c0.077,0.081,0.165,0.211,0.248,0.326c0.08,0.112,0.156,0.215,0.22,0.307
				c0.133,0.195,0.19,0.298,0.326,0.497c-2.865-2.265-4.308-3.365-7.227-5.527c0.235,0.094,0.361,0.143,0.599,0.237
				c0.123,0.071,0.271,0.146,0.451,0.222c0.174,0.074,0.365,0.164,0.546,0.235c0.165,0.063,0.359,0.116,0.536,0.183
				c0.172,0.063,0.344,0.109,0.485,0.153c0.09,0.024,0.185,0.045,0.271,0.051c0.082,0.005,0.159,0.013,0.198,0.005
				c0.053-0.008,0.112-0.033,0.161-0.054c0.049-0.021,0.114-0.034,0.161-0.057c0.078-0.032,0.166-0.111,0.231-0.184
				c0.062-0.072,0.119-0.145,0.173-0.217c0.041-0.051,0.082-0.107,0.125-0.166c0.046-0.057,0.09-0.112,0.142-0.173
				c1.406-1.866,2.108-2.796,3.517-4.66c-3.762-2.858-5.666-4.242-9.516-6.929c-1.335,1.917-2.004,2.875-3.338,4.792
				c-0.152,0.216-0.269,0.407-0.354,0.58c-0.089,0.177-0.107,0.396-0.073,0.646c0.021,0.164,0.111,0.362,0.29,0.591
				c0.177,0.229,0.397,0.456,0.591,0.681c0.034,0.039,0.063,0.087,0.09,0.125c0.027,0.041,0.065,0.069,0.104,0.104
				c0.101,0.086,0.192,0.216,0.271,0.321c0.081,0.104,0.154,0.202,0.225,0.291c0.15,0.195,0.217,0.293,0.368,0.488
				c-2.953-2.112-4.442-3.146-7.447-5.154c0.24,0.084,0.37,0.123,0.606,0.207c0.125,0.063,0.274,0.133,0.46,0.201
				c0.182,0.066,0.372,0.146,0.553,0.201c0.171,0.057,0.355,0.103,0.534,0.161c0.18,0.054,0.35,0.089,0.498,0.123
				c0.083,0.021,0.179,0.038,0.265,0.041c0.088,0.005,0.164,0.008,0.199-0.005c0.079-0.018,0.168-0.064,0.248-0.095
				c0.075-0.035,0.14-0.076,0.196-0.132c0.058-0.055,0.116-0.11,0.164-0.167c0.052-0.06,0.087-0.112,0.125-0.166
				c0.025-0.038,0.062-0.068,0.082-0.103c0.021-0.03,0.045-0.063,0.056-0.087c0.016-0.038,0.027-0.089,0.053-0.125
				c0.024-0.031,0.042-0.057,0.058-0.082c2.821-4.123,4.231-6.185,7.055-10.307c0.008-0.014,0.021-0.033,0.044-0.069
				c0.021-0.03,0.07-0.059,0.1-0.089c0.017-0.02,0.038-0.057,0.063-0.095c0.025-0.041,0.052-0.074,0.073-0.112
				c0.038-0.054,0.073-0.104,0.099-0.159c0.021-0.048,0.034-0.105,0.056-0.163c0.03-0.084,0.063-0.178,0.079-0.27
				c0.019-0.093,0.024-0.194,0-0.293c-0.01-0.043-0.036-0.112-0.071-0.191c-0.038-0.082-0.092-0.164-0.15-0.242
				c-0.09-0.13-0.19-0.277-0.318-0.432c-0.127-0.15-0.25-0.312-0.371-0.459c-0.131-0.152-0.289-0.305-0.429-0.453
				c-0.139-0.15-0.266-0.278-0.372-0.385c-0.174-0.207-0.255-0.313-0.426-0.521c3.179,2.126,4.752,3.224,7.883,5.463
				c-0.25-0.076-0.375-0.117-0.625-0.193c-0.13-0.017-0.271-0.055-0.41-0.117c-0.144-0.059-0.299-0.151-0.444-0.202
				c-0.038-0.01-0.068-0.021-0.106-0.038c-0.038-0.016-0.086-0.022-0.121-0.033c-0.276-0.094-0.582-0.252-0.87-0.352
				c-0.285-0.1-0.53-0.148-0.665-0.11c-0.03,0.009-0.063,0.021-0.104,0.026c-0.034,0.002-0.073,0.015-0.108,0.027
				c-0.185,0.078-0.339,0.179-0.457,0.313c-0.117,0.135-0.234,0.288-0.358,0.467c-1.224,1.756-1.84,2.637-3.063,4.394
				c3.864,2.7,5.782,4.096,9.563,6.964c1.29-1.706,1.936-2.563,3.226-4.271c0.041-0.051,0.095-0.108,0.147-0.175
				c0.052-0.068,0.089-0.133,0.127-0.181c0.096-0.125,0.177-0.25,0.234-0.375c0.059-0.125,0.077-0.286,0.041-0.459
				c-0.01-0.046-0.033-0.115-0.063-0.197c-0.03-0.079-0.075-0.163-0.13-0.245c-0.085-0.13-0.188-0.288-0.307-0.445
				c-0.119-0.158-0.233-0.332-0.351-0.481c-0.129-0.163-0.282-0.321-0.412-0.477c-0.131-0.158-0.254-0.291-0.354-0.405
				c-0.165-0.216-0.247-0.324-0.41-0.538c3.089,2.287,4.622,3.455,7.655,5.851c-0.24-0.082-0.362-0.12-0.6-0.201
				c-0.127-0.022-0.263-0.068-0.4-0.143c-0.137-0.066-0.298-0.166-0.442-0.227c-0.036-0.017-0.065-0.028-0.102-0.046
				c-0.037-0.019-0.079-0.028-0.113-0.041c-0.273-0.109-0.589-0.283-0.871-0.394c-0.285-0.112-0.502-0.16-0.66-0.145
				C684.834,88.305,684.842,88.303,684.844,88.295z"/>
			<path d="M698.527,98.638c-0.035,0.099-0.062,0.214-0.1,0.295c-0.044,0.089-0.103,0.186-0.133,0.279
				c-0.035,0.098-0.076,0.209-0.124,0.327c-0.248,0.649-0.536,1.626-0.922,2.842c-0.38,1.217-0.77,2.48-1.175,3.793
				c-0.022,0.082-0.054,0.161-0.07,0.248c-0.025,0.081-0.048,0.174-0.066,0.252c-0.47,1.576-0.964,3.067-1.374,4.432
				s-0.658,2.266-0.769,2.657c-0.035,0.127-0.077,0.252-0.103,0.355c-0.02,0.104-0.038,0.217-0.068,0.334
				c-0.027,0.081-0.056,0.168-0.073,0.268c-0.019,0.1-0.027,0.207-0.054,0.313c-0.036,0.175,0.016,0.405,0.144,0.687
				c0.128,0.282,0.262,0.604,0.438,0.879c0.038,0.059,0.084,0.128,0.117,0.198c0.03,0.074,0.068,0.144,0.112,0.201
				c0.029,0.049,0.055,0.101,0.076,0.148c0.019,0.046,0.038,0.092,0.065,0.143c0.119,0.212,0.173,0.319,0.293,0.53
				c-2.383-2.208-3.575-3.294-6.006-5.417c0.272,0.118,0.405,0.181,0.684,0.299c0.092,0.06,0.195,0.112,0.32,0.16
				c0.126,0.051,0.267,0.104,0.403,0.166c0.24,0.107,0.479,0.194,0.705,0.255c0.229,0.062,0.453,0.053,0.559-0.033
				c0.011-0.008,0.044-0.005,0.058-0.01c0.007-0.003,0.013-0.023,0.019-0.028c0.004-0.005,0.014-0.01,0.025-0.022
				c0.053-0.057,0.099-0.148,0.157-0.267c0.057-0.116,0.088-0.25,0.126-0.352c0.02-0.054,0.055-0.112,0.072-0.158
				c0.021-0.046,0.032-0.095,0.052-0.138c0.021-0.056,0.051-0.12,0.063-0.181c0.016-0.06,0.033-0.109,0.051-0.156
				c0.603-1.797,0.899-2.692,1.483-4.497c-2.074-1.817-3.112-2.717-5.218-4.479c-1.709,0.831-2.558,1.253-4.25,2.104
				c-0.045,0.025-0.083,0.041-0.105,0.054c-0.023,0.01-0.047,0.043-0.063,0.053c-0.046,0.033-0.13,0.058-0.201,0.101
				c-0.069,0.043-0.141,0.092-0.202,0.138c-0.14,0.1-0.284,0.188-0.413,0.286c-0.124,0.097-0.216,0.178-0.265,0.237
				c-0.011,0.013-0.014,0.021-0.019,0.026c-0.005,0.009-0.022,0.017-0.026,0.026c-0.055,0.107,0.004,0.329,0.11,0.53
				c0.104,0.198,0.229,0.458,0.38,0.63c0.021,0.021,0.05,0.049,0.074,0.076c0.022,0.03,0.036,0.059,0.043,0.076
				c0.028,0.074,0.099,0.16,0.155,0.237c0.054,0.077,0.106,0.15,0.146,0.219c0.166,0.261,0.245,0.389,0.41,0.647
				c-2.271-1.904-3.425-2.84-5.729-4.68c0.231,0.092,0.354,0.138,0.587,0.227c0.116,0.056,0.252,0.109,0.399,0.173
				c0.15,0.057,0.287,0.114,0.431,0.168c0.296,0.118,0.6,0.217,0.886,0.293c0.285,0.074,0.509,0.082,0.665,0.033
				c0.086-0.025,0.171-0.053,0.25-0.091c0.073-0.038,0.158-0.076,0.222-0.097c0.052-0.02,0.109-0.031,0.153-0.055
				c0.043-0.022,0.092-0.061,0.143-0.089c0.059-0.028,0.134-0.057,0.19-0.087c0.059-0.033,0.131-0.069,0.204-0.102
				c0.436-0.193,0.918-0.391,1.395-0.609c0.476-0.219,0.97-0.451,1.464-0.672c0.251-0.11,0.513-0.222,0.774-0.334
				c0.264-0.115,0.53-0.229,0.798-0.353c2.007-0.915,3.871-1.79,5.596-2.609c1.727-0.816,2.837-1.339,3.281-1.581
				c0.146-0.079,0.272-0.15,0.392-0.214c0.116-0.063,0.254-0.13,0.338-0.204c0.03-0.025,0.062-0.055,0.103-0.074
				c0.039-0.016,0.078-0.054,0.106-0.074c0.054-0.04,0.158-0.081,0.24-0.13c0.08-0.053,0.166-0.109,0.238-0.167
				c0.598,0.494,0.883,0.742,1.475,1.239C698.609,98.427,698.561,98.538,698.527,98.638z M695.622,99.642
				c-2.461,1.088-3.685,1.639-6.116,2.769c1.733,1.458,2.604,2.198,4.315,3.697C694.565,103.53,694.921,102.235,695.622,99.642z"/>
			<path d="M708.371,119.855c-0.185-0.132-0.278-0.196-0.467-0.332c0.089,1.698,0.124,2.542,0.19,4.231
				c0.009,0.471,0.019,0.91,0.028,1.306c0.01,0.397,0.024,0.798,0.021,1.17c0,0.104,0.003,0.214,0.012,0.321
				c0.008,0.109,0.011,0.225,0.011,0.326c0.003,0.291,0.038,0.611,0.065,0.934c0.027,0.32,0.051,0.67,0.084,1.021
				c0.021,0.204,0.044,0.391,0.054,0.545c0.011,0.156,0.021,0.317,0.052,0.471c0.016,0.084,0.038,0.173,0.048,0.252
				c0.01,0.076,0.034,0.168,0.063,0.267c0.052,0.181,0.105,0.391,0.179,0.615s0.176,0.502,0.303,0.838
				c0.128,0.295,0.199,0.449,0.324,0.743c-0.307-0.217-0.458-0.327-0.767-0.543c-0.035-0.016-0.073-0.043-0.114-0.087
				c-0.037-0.038-0.083-0.084-0.134-0.139c-0.204-0.216-0.429-0.515-0.669-0.885c-0.242-0.375-0.491-0.771-0.706-1.188
				c-0.245-0.47-0.391-1.213-0.461-2.171c-0.072-0.96-0.126-1.964-0.174-3.021c-0.003-0.022-0.005-0.043-0.013-0.061
				c-0.008-0.019,0.008-0.041,0.01-0.05c0.047-0.117-0.043-0.426-0.051-0.627c-0.005-0.204-0.014-0.413-0.019-0.613
				c-0.136-2.183-0.209-3.275-0.383-5.466c-0.22-0.214-0.325-0.318-0.545-0.532c-1.53,1.575-2.295,2.362-3.823,3.938
				c-0.185,0.189-0.333,0.362-0.447,0.521c-0.113,0.157-0.166,0.377-0.168,0.632c-0.003,0.161,0.063,0.377,0.209,0.64
				c0.148,0.26,0.329,0.525,0.489,0.785c0.028,0.046,0.054,0.097,0.076,0.141c0.025,0.043,0.057,0.084,0.089,0.123
				c0.085,0.104,0.159,0.247,0.223,0.369c0.063,0.117,0.128,0.226,0.182,0.326c0.12,0.225,0.184,0.339,0.304,0.564
				c-2.66-2.647-4.003-3.941-6.723-6.483c0.229,0.125,0.347,0.188,0.575,0.316c0.117,0.091,0.261,0.183,0.429,0.279
				c0.174,0.101,0.354,0.209,0.53,0.304c0.177,0.097,0.361,0.186,0.533,0.274c0.171,0.087,0.343,0.146,0.461,0.196
				c0.095,0.038,0.193,0.084,0.272,0.095c0.082,0.01,0.144,0.019,0.189,0.021c0.127,0.002,0.252-0.031,0.358-0.092
				c0.105-0.062,0.213-0.128,0.301-0.207c0.062-0.056,0.125-0.127,0.181-0.19c0.06-0.062,0.123-0.122,0.187-0.187
				c0.011-0.013,0.025-0.032,0.045-0.056c0.024-0.022,0.045-0.041,0.058-0.051c3.468-3.636,5.202-5.45,8.668-9.083
				c0.138-0.146,0.261-0.288,0.355-0.435c0.099-0.143,0.143-0.328,0.131-0.545c-0.008-0.181-0.083-0.419-0.222-0.707
				c-0.139-0.291-0.294-0.594-0.456-0.892c-0.098-0.176-0.2-0.347-0.296-0.513c-0.098-0.166-0.184-0.321-0.266-0.464
				c-0.132-0.234-0.194-0.354-0.324-0.589c1.549,1.442,2.313,2.175,3.84,3.653c0.199,0.216,0.396,0.405,0.584,0.578
				c0.188,0.168,0.378,0.337,0.568,0.505c0.028,0.026,0.054,0.054,0.079,0.08c0.027,0.028,0.058,0.056,0.086,0.081
				c0.156,0.148,0.306,0.298,0.464,0.441c0.162,0.143,0.317,0.3,0.488,0.464c0.149,0.149,0.309,0.303,0.464,0.469
				c0.155,0.164,0.328,0.339,0.491,0.53c0.098,0.114,0.188,0.239,0.283,0.356c0.091,0.113,0.193,0.23,0.284,0.353
				c0.694,0.907,1.11,2.083,1.25,3.335c0.144,1.249-0.281,2.353-1.268,3.312c-0.755,0.734-1.578,1.073-2.452,1.034
				c-0.88-0.038-1.692-0.214-2.447-0.538c-0.341-0.145-0.658-0.31-0.964-0.486c-0.307-0.173-0.591-0.339-0.834-0.494
				C708.36,119.871,708.365,119.866,708.371,119.855z M713.155,113.154c-0.051-0.028-0.095-0.067-0.127-0.1
				c-0.034-0.032-0.054-0.079-0.075-0.106c-0.024-0.039-0.075-0.077-0.11-0.11c-0.032-0.032-0.069-0.073-0.114-0.113
				c-0.013-0.014-0.028-0.026-0.041-0.044c-0.013-0.016-0.028-0.025-0.041-0.038c-0.265-0.259-0.538-0.495-0.812-0.706
				c-0.271-0.212-0.464-0.334-0.589-0.373c-0.188-0.053-0.356-0.033-0.483,0.057c-0.128,0.086-0.251,0.201-0.368,0.323
				c-0.01,0.01-0.014,0.018-0.021,0.022c-0.006,0.006-0.016,0.011-0.027,0.022c-1.741,1.797-2.615,2.698-4.357,4.492
				c0.392,0.367,0.593,0.548,0.979,0.918c1.066,1.045,2.218,1.718,3.459,2.014c1.244,0.295,2.242,0.06,3.011-0.724
				c0.032-0.033,0.071-0.06,0.104-0.092c0.033-0.03,0.074-0.066,0.104-0.098c0.601-0.663,0.844-1.578,0.742-2.523
				c-0.104-0.948-0.518-1.792-0.993-2.485c-0.029-0.049-0.067-0.102-0.114-0.161c-0.043-0.051-0.097-0.106-0.149-0.161
				C713.142,113.163,713.147,113.161,713.155,113.154z"/>
		</g>
	</g>
</g>
</svg>
