<?xml version="1.0" encoding="utf-8"?>
<!-- Generator: Adobe Illustrator 16.0.0, SVG Export Plug-In . SVG Version: 6.00 Build 0)  -->
<!DOCTYPE svg PUBLIC "-//W3C//DTD SVG 1.1//EN" "http://www.w3.org/Graphics/SVG/1.1/DTD/svg11.dtd">
<svg version="1.1" id="Layer_1" xmlns="http://www.w3.org/2000/svg" xmlns:xlink="http://www.w3.org/1999/xlink" x="0px" y="0px"
	 width="960px" height="560px" viewBox="0 0 960 560" enable-background="new 0 0 960 560" xml:space="preserve">
<g id="logo">
	
		<ellipse id="Janela" fill="none" stroke="#000000" stroke-width="3" stroke-miterlimit="10" cx="572.21" cy="337.463" rx="209.085" ry="208.668"/>
	<path id="chapéu" d="M675.366,261.326L675.366,261.326c0,0-9.02-15.936-6.523-21.754c0,0-1.876-43.615-87.47-27.685
		c0,0,7.602-30.823,15.933-49.98c0,0,86.217-8.434,114.021,63.103C711.324,225.01,693.962,252.239,675.366,261.326z"/>
	<g id="Corpo">
		<path fill="#603A26" stroke="#FFFFFF" stroke-width="0.3" stroke-miterlimit="10" d="M526.919,293.419
			c0.379,0.075,0.938,0.208,1.639,0.382c0.278,0.051,0.521,0.089,0.835,0.15C528.271,293.694,527.451,293.525,526.919,293.419z"/>
		<path stroke="#FFFFFF" stroke-width="0.3" stroke-miterlimit="10" d="M703.202,364.955c33.423-8.748,105.582-57.791,69.972-84.031
			c-17.795-13.109-58.102,7.498-84.342,1.132c0,0-22.49-29.152-19.991-42.482c0,0-3.126-42.99-87.469-27.685
			c0,0-22.183,15.312-28.737,23.433c0,0-48.73-8.121-69.349,11.247c0,0-37.484,1.873-47.796,14.368
			c-4.478,5.434-21.561,41.547,40.608,44.045c0,0,10.908,38.471,77.47,51.55c0,0,54.859,50.911-64.257,69.652
			c-5.186,0.816-17.622-0.741-10.091-14.364c3.592-6.492,6.121-17.333-0.318-29.677c-4.196-8.059-8.932-11.869,11.084-28.035
			c14.302-11.554-22.641-26.078-30.452,29.911c0,0-28.424,7.81-15.928-26.865c0,0,59.04-36.763,0.937-24.059
			c-9.63,2.104-24.463,19.826-23.932,31.995c0,0-28.074-9.815-12.455-27.621c4.67-5.321,7.931-26.946-3.827-23.43
			c-1.475,0.439-24.766,19.479-11.017,47.794l5.315,16.242c-5.145-1.038-15.813-20.323-20.935-13.938
			c-3.749,4.688-1.572,20.188,31.237,37.993c33.625,18.233,30.305,74.345,167.601,81.842c2.605,0.142,33.313,14.995,31.758,50.295
			c0.005-0.006,93.976-11.561,142.704-106.217C750.993,428.052,689.497,368.541,703.202,364.955z M661.344,378.012
			c-1.299-2.007-2.867-4.444-4.673-7.24c-1.664-2.88-4.188-5.69-6.585-8.982c-1.229-1.62-2.521-3.31-3.851-5.058
			c-1.289-1.778-2.702-3.541-4.355-5.197c-3.222-3.367-6.444-7.066-9.998-10.663c-3.786-3.375-7.562-6.995-11.617-10.407
			c-4.297-3.107-8.341-6.725-12.958-9.514c-4.545-2.888-8.991-5.954-13.787-8.243c-2.375-1.186-4.638-2.543-6.996-3.631
			c-2.386-1.046-4.738-2.08-7.056-3.1c-4.628-2.055-9.3-3.545-13.664-5.164c-4.47-1.274-8.657-2.689-12.653-3.471
			c-3.141-0.76-6.031-1.348-8.748-1.853c0.899,0.192,1.771,0.369,2.712,0.607c3.105,0.693,6.397,1.674,9.884,2.753
			c3.492,1.049,7.094,2.439,10.781,3.927c3.58,1.755,7.479,3.18,11.063,5.38c1.822,1.025,3.663,2.065,5.518,3.11
			c1.813,1.109,3.555,2.348,5.331,3.515c3.606,2.299,6.864,5.055,10.107,7.721c3.379,2.515,6.064,5.711,8.942,8.464
			c2.968,2.689,5.101,5.97,7.443,8.76c2.373,2.789,4.199,5.718,5.896,8.401c1.688,2.692,3.374,5.071,4.447,7.425
			c1.105,2.323,2.063,4.353,2.858,6.022c1.565,3.332,2.391,5.258,2.391,5.258s-1.175-1.743-3.24-4.79
			c-0.995-1.526-2.2-3.383-3.591-5.51c-1.366-2.135-3.346-4.257-5.156-6.774c-1.869-2.483-3.869-5.186-6.401-7.69
			c-2.5-2.53-4.818-5.475-7.761-7.992c-2.88-2.57-5.647-5.445-8.907-7.857c-3.162-2.528-6.338-5.131-9.841-7.306
			c-1.706-1.147-3.363-2.368-5.096-3.458c-1.771-1.034-3.537-2.059-5.291-3.079c-3.438-2.146-7.104-3.762-10.515-5.588
			c-3.543-1.529-6.896-3.23-10.21-4.521c-2.914-1.164-5.681-2.218-8.342-3.095c1.396,0.52,2.792,1.036,4.24,1.699
			c3.893,1.503,7.862,3.642,12.153,5.773c4.12,2.396,8.615,4.789,12.813,7.907c2.107,1.552,4.251,3.123,6.422,4.719
			c2.174,1.6,4.109,3.53,6.188,5.336c4.249,3.52,7.921,7.746,11.712,11.852c1.97,2.004,3.586,4.285,5.229,6.54
			c1.638,2.246,3.276,4.478,4.908,6.691c3.052,4.568,5.501,9.421,8.154,13.916c2.335,4.671,4.105,9.419,5.994,13.798
			c1.008,2.177,1.675,4.397,2.284,6.564c0.641,2.146,1.26,4.229,1.851,6.214c1.176,3.99,2.371,7.604,2.755,10.978
			c0.549,3.32,1.032,6.212,1.428,8.601c0.731,4.76,1.144,7.478,1.144,7.478s-0.757-2.64-2.094-7.282
			c-0.63-2.309-1.396-5.107-2.28-8.337c-0.722-3.252-2.278-6.707-3.625-10.562c-0.705-1.923-1.436-3.914-2.191-5.983
			c-0.729-2.076-1.512-4.207-2.63-6.27c-2.117-4.162-4.163-8.643-6.517-13.124c-2.692-4.3-5.314-8.855-8.258-13.267
			c-1.598-2.123-3.214-4.266-4.825-6.417c-1.602-2.158-3.191-4.349-5.105-6.258c-3.614-3.997-7.114-8.129-11.181-11.564
			c-1.997-1.75-3.821-3.68-5.868-5.296c-2.05-1.604-4.071-3.195-6.076-4.763c-1.938-1.646-4.072-2.928-6.081-4.33
			c-2.033-1.355-3.956-2.806-5.964-3.992c-3.371-1.938-6.529-3.815-9.65-5.396c1.003,0.635,1.992,1.266,3.043,1.921
			c2.99,2.216,6.335,4.397,9.281,7.232c1.515,1.393,3.037,2.813,4.584,4.246c1.509,1.48,2.859,3.136,4.29,4.752
			c2.981,3.133,5.324,6.847,7.896,10.4c2.461,3.62,4.272,7.634,6.404,11.376c1.758,3.929,3.157,7.933,4.68,11.728
			c1.15,3.922,2.021,7.777,2.926,11.396c0.882,3.626,1.061,7.178,1.569,10.371c0.448,3.216,0.842,6.152,0.703,8.8
			c0,2.625-0.004,4.915-0.004,6.799c-0.067,3.754-0.103,5.896-0.103,5.896s-0.319-2.122-0.869-5.841
			c-0.243-1.85-0.531-4.091-0.876-6.674c-0.217-2.579-0.989-5.418-1.631-8.525c-0.752-3.085-1.184-6.513-2.336-9.956
			c-1.123-3.435-2.303-7.055-3.529-10.798c-1.575-3.598-3.214-7.303-4.87-11.079c-2.089-3.539-3.863-7.348-6.251-10.764
			c-2.403-3.41-4.58-6.992-7.392-10.008c-1.354-1.544-2.592-3.178-3.958-4.654c-1.42-1.432-2.825-2.837-4.217-4.227
			c-2.759-2.793-5.735-5.164-8.46-7.541c-2.899-2.146-5.574-4.312-8.294-5.938c-5.288-3.486-9.958-6.043-13.333-7.635
			c-1.075-0.521-1.949-0.92-2.734-1.267c-2.352-0.763-3.732-1.121-3.732-1.121s0.605,0.063,1.631,0.213
			c-0.323-0.129-0.536-0.213-0.536-0.213s1.912-0.646,5.291-1.676c3.383-0.971,8.237-2.459,14.244-3.528
			c3.001-0.512,6.26-1.06,9.745-1.375c3.479-0.492,7.195-0.527,11.034-0.641c3.837,0.265,7.839,0.117,11.838,0.88
			c2.003,0.326,4.049,0.502,6.048,0.976l6.017,1.487c2.026,0.426,3.921,1.319,5.857,2.013c1.904,0.789,3.899,1.355,5.7,2.322
			c3.569,1.973,7.273,3.604,10.304,6.053c1.568,1.148,3.102,2.271,4.604,3.377c1.507,1.095,2.673,2.529,3.973,3.726
			c2.519,2.479,4.958,4.751,6.711,7.299c1.884,2.419,3.602,4.641,4.946,6.706c1.196,2.166,2.243,4.06,3.103,5.616
			c1.687,3.113,2.586,4.899,2.586,4.899s-1.237-1.592-3.406-4.376c-1.049-1.396-2.317-3.102-3.777-5.044
			c-1.653-1.767-3.519-3.763-5.556-5.935c-1.885-2.311-4.425-4.287-7.018-6.442c-2.48-2.308-5.529-4.145-8.593-6.15
			c-2.918-2.234-6.548-3.484-9.888-5.346c-1.697-0.888-3.593-1.375-5.389-2.098c-1.835-0.624-3.61-1.449-5.531-1.815l-5.654-1.488
			c-1.887-0.478-3.834-0.659-5.726-1.007c-3.783-0.752-7.606-0.877-11.271-1.26c-3.69,0.021-7.273-0.326-10.674-0.127
			c-3.419,0.021-6.634,0.277-9.617,0.538c-5.936,0.595-10.934,1.116-14.407,1.7c-2.563,0.364-4.305,0.576-5.063,0.664
			c0.907-0.097,3.344-0.319,7.117-0.316c2.406,0.018,5.335,0.104,8.688,0.336c3.354,0.27,7.148,0.563,11.221,1.355
			c4.112,0.547,8.461,1.714,13.122,2.739c4.538,1.367,9.473,2.551,14.266,4.567c2.422,0.964,4.875,1.955,7.365,2.952
			c2.475,1.034,4.856,2.356,7.302,3.577c4.974,2.317,9.604,5.417,14.326,8.361c4.738,2.924,8.877,6.694,13.272,9.956
			c4.187,3.521,7.876,7.474,11.668,11.024c3.579,3.771,6.618,7.802,9.68,11.437c1.565,1.782,2.9,3.672,4.1,5.568
			c1.241,1.855,2.435,3.652,3.582,5.379c2.28,3.459,4.501,6.536,5.881,9.626c1.518,2.988,2.839,5.602,3.931,7.747
			c2.113,4.305,3.32,6.765,3.32,6.765S663.99,382.022,661.344,378.012z"/>
	</g>
	<g id="fio_1_">
		<path fill="#FFFFFF" d="M520.149,240.837c0,0-30.299-41.442-49.667-43"/>
		<path d="M516.125,243.81c0,0-2.122-3.434-5.695-8.533c-3.551-5.071-8.474-11.753-13.922-17.961
			c-2.731-3.086-5.547-6.125-8.39-8.742c-2.825-2.631-5.607-4.969-8.229-6.594c-1.273-0.895-2.489-1.621-3.642-2.104
			c-1.141-0.527-2.109-1.119-3.007-1.274c-1.768-0.488-2.771-0.762-2.771-0.762s1.043,0.123,2.875,0.353
			c0.947,0.029,1.984,0.459,3.233,0.826c1.27,0.331,2.626,0.887,4.061,1.595c2.956,1.275,6.146,3.241,9.451,5.5
			c3.317,2.247,6.646,4.906,9.917,7.644c6.517,5.511,12.53,11.55,16.941,16.181c4.384,4.606,7.215,7.936,7.215,7.933L516.125,243.81
			z"/>
	</g>
	<g id="fio">
		<path fill="#FFFFFF" d="M509.099,240.837c0,0-28.73-33.321-38.624-33.321"/>
		<path d="M505.32,244.111c0,0-7.37-10.456-15.698-20.211c-4.156-4.872-8.551-9.552-12.244-12.587
			c-0.952-0.718-1.83-1.372-2.603-1.953c-0.842-0.469-1.582-0.878-2.19-1.219c-1.292-0.426-2.109-0.625-2.109-0.625
			s0.792,0.032,2.241,0.219c0.687,0.225,1.526,0.5,2.484,0.811c0.907,0.435,1.93,0.934,3.039,1.463
			c4.36,2.359,9.707,6.21,14.851,10.29c10.272,8.161,19.785,17.265,19.785,17.265L505.32,244.111z"/>
	</g>
	<path id="Chapéu" stroke="#FFFFFF" stroke-width="0.5" stroke-miterlimit="10" d="M772.129,54.659c0,0-23.392-15.6-52.676-8.901
		c0,0-32.501-43.273-57.801-43.162c0,0-65.916-9.997-65.916,155.882c0,0,90.802-12.3,119.33,65.6l2.082-1.991
		C717.15,222.085,875.006,117.242,772.129,54.659z M639.805,70.229c-1.915,4.422-3.44,9.025-4.99,13.319
		c-1.409,4.354-2.723,8.421-3.85,11.905c-2.207,7.077-3.671,11.793-3.671,11.793s-0.052-1.251,0.059-3.427
		c0.162-2.163,0.288-5.287,0.828-8.976c0.485-3.706,1.32-7.986,2.433-12.531c0.66-2.244,1.185-4.612,2.006-6.937
		c0.833-2.317,1.563-4.714,2.567-7.027c1.937-4.633,4.162-9.196,6.86-13.136c1.177-2.06,2.774-3.786,4.141-5.489
		c1.274-1.771,3.021-3.041,4.378-4.363c1.31-1.396,3.014-2.148,4.273-3.013c1.257-0.889,2.511-1.409,3.569-1.763
		c2.075-0.774,3.242-1.131,3.242-1.131s-1.025,0.781-2.773,1.981c-0.91,0.551-1.948,1.288-2.938,2.404
		c-0.986,1.113-2.319,2.052-3.356,3.545c-1.052,1.47-2.416,2.807-3.446,4.603c-1.084,1.752-2.323,3.485-3.334,5.506
		c-1.114,1.942-2.141,4.007-3.127,6.159C641.606,65.758,640.693,67.99,639.805,70.229z M674.077,65.109
		c-0.752,0.392-1.415,1.272-2.279,2.063c-0.88,0.767-1.704,1.816-2.598,2.975c-1.819,2.225-3.626,5.125-5.467,8.262
		c-1.004,1.512-1.74,3.294-2.729,4.937c-0.942,1.673-1.764,3.469-2.66,5.208c-3.506,7.032-6.77,14.265-9.378,19.665
		c-2.563,5.417-4.494,9.023-4.494,9.023s0.324-4.085,1.803-9.975c0.708-2.959,1.714-6.356,2.982-9.936
		c1.239-3.592,2.874-7.311,4.622-10.997c1.888-3.61,3.855-7.198,6.158-10.316c1.133-1.577,2.239-3.069,3.5-4.364
		c1.166-1.353,2.347-2.552,3.611-3.519c1.17-1.047,2.318-1.899,3.487-2.485c1.127-0.624,2.024-1.234,2.968-1.416
		c1.771-0.507,2.731-0.722,2.731-0.722S675.517,64.094,674.077,65.109z M712.616,169.434c0,0,2.289-2.939,5.785-7.103
		c1.73-2.08,3.748-4.501,5.91-7.103c2.092-2.625,4.427-5.328,6.5-8.205c2.229-2.768,4.183-5.706,6.004-8.449
		c1.783-2.776,3.246-5.458,4.403-7.839c0.606-1.185,0.938-2.337,1.38-3.339c0.454-1.011,0.678-1.922,0.869-2.685
		c0.442-1.562,0.698-2.443,0.698-2.443s0.138,0.893,0.298,2.538c0.077,0.823,0.193,1.849,0.016,2.976
		c-0.148,1.133-0.148,2.489-0.53,3.855c-0.363,1.357-0.662,2.915-1.271,4.419c-0.63,1.483-1.144,3.162-2.025,4.689
		c-0.854,1.532-1.597,3.23-2.68,4.719c-1.004,1.554-2.036,3.115-3.183,4.584c-4.546,5.936-9.979,11.021-14.406,14.351
		C715.98,167.78,712.616,169.434,712.616,169.434z M782.074,111.888c-0.148,1.372-0.199,3.09-0.738,4.938
		c-0.489,1.859-0.885,4.046-1.699,6.291c-0.892,2.201-1.768,4.653-2.946,7.126c-1.305,2.393-2.554,5.019-4.161,7.522
		c-1.691,2.435-3.201,5.163-5.192,7.563c-1.931,2.441-3.826,4.999-5.955,7.328c-4.161,4.763-8.688,9.165-13.104,13.075
		c-4.414,3.91-8.757,7.298-12.596,10.031c-3.82,2.748-7.178,4.789-9.506,6.232c-2.349,1.424-3.758,2.123-3.758,2.123
		s4.686-4.168,11.461-10.563c3.381-3.197,7.307-6.926,11.387-11.026c4.046-4.134,8.409-8.483,12.361-13.174
		c2.112-2.235,3.984-4.651,5.899-6.984c1.937-2.319,3.591-4.749,5.334-7.028c1.646-2.349,3.072-4.7,4.555-6.879
		c1.271-2.287,2.473-4.46,3.579-6.455c1.018-2.051,1.747-4.019,2.556-5.726c0.864-1.695,1.188-3.296,1.579-4.588
		c0.751-2.598,1.266-4.115,1.266-4.115S782.326,109.135,782.074,111.888z"/>
</g>
</svg>
